<?xml version="1.0" encoding="iso-8859-1"?>
<!-- Generator: Adobe Illustrator 19.0.0, SVG Export Plug-In . SVG Version: 6.00 Build 0)  -->
<svg version="1.1" id="Capa_1" xmlns="http://www.w3.org/2000/svg" xmlns:xlink="http://www.w3.org/1999/xlink" x="0px" y="0px"
	 viewBox="0 0 51 51" style="enable-background:new 0 0 51 51;" xml:space="preserve">
<g>
	<polygon points="45,0.5 0,0.5 0,43.5 5,43.5 5,6.5 45,6.5 	"/>
	<path d="M7,8.5v42h44v-42H7z M40,30.5H30v10c0,0.553-0.447,1-1,1s-1-0.447-1-1v-10H18c-0.553,0-1-0.447-1-1s0.447-1,1-1h10v-10
		c0-0.553,0.447-1,1-1s1,0.447,1,1v10h10c0.553,0,1,0.447,1,1S40.553,30.5,40,30.5z"/>
</g>
<g>
</g>
<g>
</g>
<g>
</g>
<g>
</g>
<g>
</g>
<g>
</g>
<g>
</g>
<g>
</g>
<g>
</g>
<g>
</g>
<g>
</g>
<g>
</g>
<g>
</g>
<g>
</g>
<g>
</g>
</svg>
