<?xml version="1.0" encoding="iso-8859-1"?>
<!-- Generator: Adobe Illustrator 19.0.0, SVG Export Plug-In . SVG Version: 6.00 Build 0)  -->
<svg version="1.1" id="Capa_1" xmlns="http://www.w3.org/2000/svg" xmlns:xlink="http://www.w3.org/1999/xlink" x="0px" y="0px"
	 viewBox="0 0 60 60" style="enable-background:new 0 0 60 60;" xml:space="preserve">
<g>
	<path d="M58.689,8H1.311C0.588,8,0,8.588,0,9.311V17h60V9.311C60,8.588,59.412,8,58.689,8z"/>
	<path d="M1.102,7h57.555c0.429,0,0.821-0.251,1.001-0.641c0.18-0.389,0.116-0.852-0.164-1.179L53.46,0H6.54L0.263,5.183
		c-0.278,0.325-0.342,0.788-0.162,1.177C0.28,6.749,0.673,7,1.102,7z"/>
	<path d="M17,50h26V40H17V50z M32.71,47.71C32.52,47.89,32.26,48,32,48c-0.26,0-0.52-0.11-0.71-0.29C31.11,47.52,31,47.26,31,47
		c0-0.261,0.11-0.521,0.29-0.71c0.37-0.37,1.05-0.37,1.42,0C32.89,46.479,33,46.739,33,47C33,47.26,32.89,47.52,32.71,47.71z M38,48
		h-1c-0.552,0-1-0.447-1-1s0.448-1,1-1h1c0.552,0,1,0.447,1,1S38.552,48,38,48z M27,42h11c0.552,0,1,0.447,1,1s-0.448,1-1,1H27
		c-0.552,0-1-0.447-1-1S26.448,42,27,42z M21.29,42.29c0.38-0.37,1.04-0.37,1.42,0C22.89,42.479,23,42.739,23,43
		c0,0.26-0.11,0.52-0.29,0.71C22.52,43.89,22.26,44,22,44c-0.27,0-0.52-0.11-0.71-0.29C21.11,43.52,21,43.27,21,43
		C21,42.739,21.11,42.479,21.29,42.29z M22,46h5c0.552,0,1,0.447,1,1s-0.448,1-1,1h-5c-0.552,0-1-0.447-1-1S21.448,46,22,46z"/>
	<rect x="20" y="25" width="20" height="6"/>
	<path d="M3,60h54V18H3V60z M18,23h24v10H18V23z M15,38h30v14H15V38z"/>
</g>
<g>
</g>
<g>
</g>
<g>
</g>
<g>
</g>
<g>
</g>
<g>
</g>
<g>
</g>
<g>
</g>
<g>
</g>
<g>
</g>
<g>
</g>
<g>
</g>
<g>
</g>
<g>
</g>
<g>
</g>
</svg>
