<?xml version="1.0" encoding="iso-8859-1"?>
<!-- Generator: Adobe Illustrator 19.0.0, SVG Export Plug-In . SVG Version: 6.00 Build 0)  -->
<svg version="1.1" id="Capa_1" xmlns="http://www.w3.org/2000/svg" xmlns:xlink="http://www.w3.org/1999/xlink" x="0px" y="0px"
	 viewBox="0 0 60 60" style="enable-background:new 0 0 60 60;" xml:space="preserve">
<g>
	<path d="M57.588,0H2.412C1.082,0,0,1.082,0,2.412V14h60V2.412C60,1.082,58.918,0,57.588,0z"/>
	<path d="M3,55.59C3,58.021,4.979,60,7.41,60h45.18c2.432,0,4.41-1.979,4.41-4.41V16H3V55.59z M55,48v6.59
		c0,1.883-1.527,3.41-3.41,3.41H45C45,52.477,49.477,48,55,48z M21,28c0-0.553,0.447-1,1-1s1,0.447,1,1v1.495
		C23,30.325,23.675,31,24.505,31h10.99C36.325,31,37,30.325,37,29.495V28c0-0.553,0.447-1,1-1s1,0.447,1,1v1.495
		C39,31.428,37.428,33,35.495,33h-10.99C22.572,33,21,31.428,21,29.495V28z M5,48c5.523,0,10,4.477,10,10H8.41
		C6.527,58,5,56.473,5,54.59V48z"/>
</g>
<g>
</g>
<g>
</g>
<g>
</g>
<g>
</g>
<g>
</g>
<g>
</g>
<g>
</g>
<g>
</g>
<g>
</g>
<g>
</g>
<g>
</g>
<g>
</g>
<g>
</g>
<g>
</g>
<g>
</g>
</svg>
