<?xml version="1.0" encoding="iso-8859-1"?>
<!-- Generator: Adobe Illustrator 19.0.0, SVG Export Plug-In . SVG Version: 6.00 Build 0)  -->
<svg version="1.1" id="Capa_1" xmlns="http://www.w3.org/2000/svg" xmlns:xlink="http://www.w3.org/1999/xlink" x="0px" y="0px"
	 viewBox="0 0 60 60" style="enable-background:new 0 0 60 60;" xml:space="preserve">
<g>
	<path d="M14,47v9.536C14,58.446,15.554,60,17.464,60h25.072C44.446,60,46,58.446,46,56.536V47H14z"/>
	<path d="M46,45V7.464C46,5.554,44.446,4,42.536,4H36V0H24v4h-6.536C15.554,4,14,5.554,14,7.464V45H46z M16,7.464
		C16,6.656,16.656,6,17.464,6H24h12h6.536C43.344,6,44,6.656,44,7.464V31H16V7.464z"/>
</g>
<g>
</g>
<g>
</g>
<g>
</g>
<g>
</g>
<g>
</g>
<g>
</g>
<g>
</g>
<g>
</g>
<g>
</g>
<g>
</g>
<g>
</g>
<g>
</g>
<g>
</g>
<g>
</g>
<g>
</g>
</svg>
