<?xml version="1.0" encoding="iso-8859-1"?>
<!-- Generator: Adobe Illustrator 19.0.0, SVG Export Plug-In . SVG Version: 6.00 Build 0)  -->
<svg version="1.1" id="Capa_1" xmlns="http://www.w3.org/2000/svg" xmlns:xlink="http://www.w3.org/1999/xlink" x="0px" y="0px"
	 viewBox="0 0 54 54" style="enable-background:new 0 0 54 54;" xml:space="preserve">
<path d="M52.513,33.545L46.616,9.366c-0.919-3.765-4.141-6.511-7.835-6.677C33.977,2.464,30,6.316,30,11.073v4.247h-6v-4.247
	c0-4.757-3.99-8.612-8.781-8.384c-3.695,0.166-6.917,2.912-7.835,6.677L1.486,33.547C0.541,35.261,0,37.228,0,39.32
	c0,6.617,5.383,12,12,12c6.418,0,11.661-5.069,11.97-11.412c0.008-0.05,0.03-0.095,0.03-0.147v-0.44v-9h6v9v0.44
	c0,0.052,0.022,0.097,0.03,0.147C30.339,46.251,35.582,51.32,42,51.32c6.617,0,12-5.383,12-12C54,37.227,53.459,35.26,52.513,33.545
	z M12,49.32c-5.514,0-10-4.486-10-10c0-1.821,0.497-3.525,1.352-4.998c0.184-0.317,0.385-0.62,0.6-0.912
	c0.053-0.072,0.105-0.144,0.16-0.214c0.503-0.646,1.077-1.225,1.71-1.724c0.057-0.045,0.116-0.086,0.173-0.13
	c0.28-0.211,0.571-0.408,0.871-0.588c0.054-0.033,0.107-0.067,0.162-0.099c0.707-0.407,1.464-0.726,2.254-0.951
	c0.08-0.023,0.161-0.042,0.242-0.062c0.314-0.081,0.633-0.145,0.955-0.195c0.1-0.016,0.199-0.034,0.3-0.046
	c0.403-0.05,0.81-0.082,1.221-0.082c5.514,0,10,4.486,10,10c0,0.08-0.01,0.156-0.012,0.235l-0.01,0.165
	c0,0.002,0.001,0.004,0.001,0.006C21.764,45.051,17.377,49.32,12,49.32z M42,49.32c-5.339,0-9.7-4.208-9.974-9.48
	c0.002-0.028,0.016-0.052,0.016-0.08c0-0.088-0.012-0.172-0.033-0.254C32.008,39.444,32,39.383,32,39.32c0-5.514,4.486-10,10-10
	c0.411,0,0.818,0.032,1.221,0.083c0.101,0.012,0.2,0.03,0.3,0.046c0.323,0.05,0.642,0.114,0.956,0.195
	c0.08,0.021,0.161,0.039,0.24,0.062c0.79,0.225,1.548,0.544,2.256,0.952c0.053,0.031,0.104,0.064,0.157,0.095
	c0.303,0.182,0.596,0.38,0.879,0.594c0.055,0.042,0.112,0.081,0.166,0.124c0.636,0.5,1.212,1.081,1.716,1.73
	c0.052,0.067,0.103,0.136,0.154,0.205c0.218,0.295,0.422,0.603,0.608,0.925C51.504,35.801,52,37.502,52,39.32
	C52,44.834,47.514,49.32,42,49.32z"/>
<g>
</g>
<g>
</g>
<g>
</g>
<g>
</g>
<g>
</g>
<g>
</g>
<g>
</g>
<g>
</g>
<g>
</g>
<g>
</g>
<g>
</g>
<g>
</g>
<g>
</g>
<g>
</g>
<g>
</g>
</svg>
