<?xml version="1.0" encoding="iso-8859-1"?>
<!-- Generator: Adobe Illustrator 19.0.0, SVG Export Plug-In . SVG Version: 6.00 Build 0)  -->
<svg version="1.1" id="Capa_1" xmlns="http://www.w3.org/2000/svg" xmlns:xlink="http://www.w3.org/1999/xlink" x="0px" y="0px"
	 viewBox="0 0 57 57" style="enable-background:new 0 0 57 57;" xml:space="preserve">
<g>
	<polygon points="29.5,43.37 35.143,37.022 29.524,31.102 	"/>
	<polygon points="29.5,13.414 29.524,25.373 35.127,19.042 	"/>
	<path d="M28.5,0c-9.925,0-18,8.075-18,18v21c0,9.925,8.075,18,18,18s18-8.075,18-18V18C46.5,8.075,38.425,0,28.5,0z M37.857,36.978
		L27.5,48.63l0.037-18.35l-8.37,7.479l-1.333-1.492l9.223-8.241l-9.155-8.271l1.341-1.484l8.292,7.491L27.5,8.586l10.373,10.372
		l-8.259,9.332L37.857,36.978z"/>
</g>
<g>
</g>
<g>
</g>
<g>
</g>
<g>
</g>
<g>
</g>
<g>
</g>
<g>
</g>
<g>
</g>
<g>
</g>
<g>
</g>
<g>
</g>
<g>
</g>
<g>
</g>
<g>
</g>
<g>
</g>
</svg>
