<?xml version="1.0" encoding="iso-8859-1"?>
<!-- Generator: Adobe Illustrator 19.0.0, SVG Export Plug-In . SVG Version: 6.00 Build 0)  -->
<svg version="1.1" id="Capa_1" xmlns="http://www.w3.org/2000/svg" xmlns:xlink="http://www.w3.org/1999/xlink" x="0px" y="0px"
	 viewBox="0 0 60 60" style="enable-background:new 0 0 60 60;" xml:space="preserve">
<g>
	<path d="M10,28h22c0.552,0,1-0.447,1-1s-0.448-1-1-1H10c-0.552,0-1,0.447-1,1S9.448,28,10,28z"/>
	<path d="M50,42H35c-0.552,0-1,0.447-1,1s0.448,1,1,1h15c0.552,0,1-0.447,1-1S50.552,42,50,42z"/>
	<path d="M10,36h10c0.552,0,1-0.447,1-1s-0.448-1-1-1H10c-0.552,0-1,0.447-1,1S9.448,36,10,36z"/>
	<path d="M50,50H40c-0.552,0-1,0.447-1,1s0.448,1,1,1h10c0.552,0,1-0.447,1-1S50.552,50,50,50z"/>
	<path d="M29,35c0,0.553,0.448,1,1,1h15c0.552,0,1-0.447,1-1s-0.448-1-1-1H30C29.448,34,29,34.447,29,35z"/>
	<path d="M25.71,35.71C25.89,35.52,26,35.26,26,35c0-0.261-0.11-0.521-0.29-0.71c-0.37-0.37-1.05-0.37-1.42,0
		C24.11,34.479,24,34.739,24,35c0,0.26,0.11,0.52,0.29,0.71C24.48,35.899,24.74,36,25,36C25.26,36,25.52,35.899,25.71,35.71z"/>
	<path d="M14,43c0,0.553,0.448,1,1,1h15c0.552,0,1-0.447,1-1s-0.448-1-1-1H15C14.448,42,14,42.447,14,43z"/>
	<path d="M10,44c0.26,0,0.52-0.11,0.71-0.29C10.89,43.52,11,43.26,11,43c0-0.261-0.11-0.521-0.29-0.7
		c-0.37-0.38-1.05-0.38-1.42-0.01C9.11,42.479,9,42.739,9,43c0,0.26,0.11,0.52,0.29,0.71C9.48,43.89,9.73,44,10,44z"/>
	<path d="M50,36c0.26,0,0.52-0.101,0.71-0.29C50.9,35.52,51,35.26,51,35c0-0.261-0.1-0.521-0.29-0.71c-0.38-0.37-1.05-0.37-1.42,0
		C49.11,34.479,49,34.739,49,35c0,0.26,0.11,0.52,0.29,0.71C49.48,35.899,49.74,36,50,36z"/>
	<path d="M10,52h25c0.552,0,1-0.447,1-1s-0.448-1-1-1H10c-0.552,0-1,0.447-1,1S9.448,52,10,52z"/>
	<path d="M27,0c-0.553,0-1,0.447-1,1s0.447,1,1,1c1.302,0,2.402,0.838,2.816,2h2.083C31.434,1.721,29.414,0,27,0z"/>
	<path d="M33,0c-0.553,0-1,0.447-1,1s0.447,1,1,1c1.302,0,2.402,0.838,2.816,2h2.083C37.434,1.721,35.414,0,33,0z"/>
	<path d="M39,0c-0.553,0-1,0.447-1,1s0.447,1,1,1c1.302,0,2.402,0.838,2.816,2h2.083C43.434,1.721,41.414,0,39,0z"/>
	<path d="M43.899,4C43.965,4.323,44,4.658,44,5c0,2.757-2.243,5-5,5c-0.553,0-1-0.447-1-1s0.447-1,1-1c1.654,0,3-1.346,3-3
		c0-0.353-0.072-0.686-0.184-1h-3.917C37.965,4.323,38,4.658,38,5c0,2.757-2.243,5-5,5c-0.553,0-1-0.447-1-1s0.447-1,1-1
		c1.654,0,3-1.346,3-3c0-0.353-0.072-0.686-0.184-1h-3.917C31.965,4.323,32,4.658,32,5c0,2.757-2.243,5-5,5c-0.553,0-1-0.447-1-1
		s0.447-1,1-1c1.654,0,3-1.346,3-3c0-0.353-0.072-0.686-0.184-1h-3.917C25.965,4.323,26,4.658,26,5c0,2.757-2.243,5-5,5
		c-0.553,0-1-0.447-1-1s0.447-1,1-1c1.654,0,3-1.346,3-3c0-0.353-0.072-0.686-0.184-1H19h-0.816C18.598,2.838,19.698,2,21,2
		s2.402,0.838,2.816,2h2.083C25.434,1.721,23.414,0,21,0s-4.434,1.721-4.899,4H15H1v14v42h58V18V4H43.899z M57,58H3V20h54V58z"/>
</g>
<g>
</g>
<g>
</g>
<g>
</g>
<g>
</g>
<g>
</g>
<g>
</g>
<g>
</g>
<g>
</g>
<g>
</g>
<g>
</g>
<g>
</g>
<g>
</g>
<g>
</g>
<g>
</g>
<g>
</g>
</svg>
