<?xml version="1.0" encoding="iso-8859-1"?>
<!-- Generator: Adobe Illustrator 19.0.0, SVG Export Plug-In . SVG Version: 6.00 Build 0)  -->
<svg version="1.1" id="Capa_1" xmlns="http://www.w3.org/2000/svg" xmlns:xlink="http://www.w3.org/1999/xlink" x="0px" y="0px"
	 viewBox="0 0 58 58" style="enable-background:new 0 0 58 58;" xml:space="preserve">
<g>
	<path d="M26,0c-0.553,0-1,0.447-1,1s0.447,1,1,1c1.302,0,2.402,0.838,2.816,2h2.083C30.434,1.721,28.414,0,26,0z"/>
	<path d="M32,0c-0.553,0-1,0.447-1,1s0.447,1,1,1c1.302,0,2.402,0.838,2.816,2h2.083C36.434,1.721,34.414,0,32,0z"/>
	<path d="M38,0c-0.553,0-1,0.447-1,1s0.447,1,1,1c1.302,0,2.402,0.838,2.816,2h2.083C42.434,1.721,40.414,0,38,0z"/>
	<g>
		<path d="M38,25c-2.757,0-5,2.243-5,5s2.243,5,5,5s5-2.243,5-5S40.757,25,38,25z"/>
		<g>
			<path d="M58,17V4H42.899C42.965,4.323,43,4.658,43,5c0,2.757-2.243,5-5,5c-0.553,0-1-0.447-1-1s0.447-1,1-1c1.654,0,3-1.346,3-3
				c0-0.353-0.072-0.686-0.184-1h-3.917C36.965,4.323,37,4.658,37,5c0,2.757-2.243,5-5,5c-0.553,0-1-0.447-1-1s0.447-1,1-1
				c1.654,0,3-1.346,3-3c0-0.353-0.072-0.686-0.184-1h-3.917C30.965,4.323,31,4.658,31,5c0,2.757-2.243,5-5,5c-0.553,0-1-0.447-1-1
				s0.447-1,1-1c1.654,0,3-1.346,3-3c0-0.353-0.072-0.686-0.184-1h-3.917C24.965,4.323,25,4.658,25,5c0,2.757-2.243,5-5,5
				c-0.553,0-1-0.447-1-1s0.447-1,1-1c1.654,0,3-1.346,3-3c0-0.353-0.072-0.686-0.184-1H18h-0.816C17.598,2.838,18.698,2,20,2
				s2.402,0.838,2.816,2h2.083C24.434,1.721,22.414,0,20,0s-4.434,1.721-4.899,4H14H0v13H58z"/>
			<path d="M0,19v39h58V19H0z M23,51h-8c-0.552,0-1-0.447-1-1s0.448-1,1-1h3V26.414l-4.293,4.293C13.512,30.902,13.256,31,13,31
				s-0.512-0.098-0.707-0.293c-0.391-0.391-0.391-1.023,0-1.414l5.999-6c0.092-0.092,0.203-0.166,0.326-0.216
				c0.244-0.101,0.52-0.101,0.764,0c0.245,0.101,0.44,0.296,0.541,0.541C19.973,23.74,20,23.87,20,24v25h3c0.552,0,1,0.447,1,1
				S23.552,51,23,51z M45,44c0,3.859-3.14,7-7,7s-7-3.141-7-7c0-0.553,0.448-1,1-1s1,0.447,1,1c0,2.757,2.243,5,5,5s5-2.243,5-5
				v-9.11c-1.272,1.3-3.042,2.11-5,2.11c-3.86,0-7-3.141-7-7s3.14-7,7-7s7,3.141,7,7V44z"/>
		</g>
	</g>
</g>
<g>
</g>
<g>
</g>
<g>
</g>
<g>
</g>
<g>
</g>
<g>
</g>
<g>
</g>
<g>
</g>
<g>
</g>
<g>
</g>
<g>
</g>
<g>
</g>
<g>
</g>
<g>
</g>
<g>
</g>
</svg>
