<?xml version="1.0" encoding="iso-8859-1"?>
<!-- Generator: Adobe Illustrator 19.0.0, SVG Export Plug-In . SVG Version: 6.00 Build 0)  -->
<svg version="1.1" id="Capa_1" xmlns="http://www.w3.org/2000/svg" xmlns:xlink="http://www.w3.org/1999/xlink" x="0px" y="0px"
	 viewBox="0 0 60 60" style="enable-background:new 0 0 60 60;" xml:space="preserve">
<g>
	<rect x="22" y="43" width="7" height="7"/>
	<rect x="22" y="25" width="7" height="7"/>
	<rect x="22" y="34" width="7" height="7"/>
	<rect x="13" y="34" width="7" height="7"/>
	<rect x="13" y="25" width="7" height="7"/>
	<rect x="13" y="43" width="7" height="7"/>
	<rect x="40" y="25" width="7" height="7"/>
	<path d="M57,4h-7V1c0-0.553-0.447-1-1-1h-7c-0.553,0-1,0.447-1,1v3H19V1c0-0.553-0.447-1-1-1h-7c-0.553,0-1,0.447-1,1v3H3
		C2.447,4,2,4.447,2,5v11v43c0,0.553,0.447,1,1,1h54c0.553,0,1-0.447,1-1V16V5C58,4.447,57.553,4,57,4z M49,32v2v7v2v9h-9h-2h-7h-2
		h-7h-2h-9v-9v-2v-7v-2v-9h9h2h7h2h7h2h9V32z M56,15H4V6h6v3c0,0.553,0.447,1,1,1h7c0.553,0,1-0.447,1-1V6h22v3c0,0.553,0.447,1,1,1
		h7c0.553,0,1-0.447,1-1V6h6V15z"/>
	<rect x="40" y="34" width="7" height="7"/>
	<rect x="40" y="43" width="7" height="7"/>
	<rect x="31" y="43" width="7" height="7"/>
	<rect x="31" y="34" width="7" height="7"/>
	<rect x="31" y="25" width="7" height="7"/>
</g>
<g>
</g>
<g>
</g>
<g>
</g>
<g>
</g>
<g>
</g>
<g>
</g>
<g>
</g>
<g>
</g>
<g>
</g>
<g>
</g>
<g>
</g>
<g>
</g>
<g>
</g>
<g>
</g>
<g>
</g>
</svg>
