<?xml version="1.0" encoding="iso-8859-1"?>
<!-- Generator: Adobe Illustrator 19.0.0, SVG Export Plug-In . SVG Version: 6.00 Build 0)  -->
<svg version="1.1" id="Capa_1" xmlns="http://www.w3.org/2000/svg" xmlns:xlink="http://www.w3.org/1999/xlink" x="0px" y="0px"
	 viewBox="0 0 58 58" style="enable-background:new 0 0 58 58;" xml:space="preserve">
<g>
	<path d="M13,34c3.309,0,6-2.691,6-6s-2.691-6-6-6s-6,2.691-6,6S9.691,34,13,34z M13,24c2.206,0,4,1.794,4,4s-1.794,4-4,4
		s-4-1.794-4-4S10.794,24,13,24z"/>
	<path d="M29,34c3.309,0,6-2.691,6-6s-2.691-6-6-6s-6,2.691-6,6S25.691,34,29,34z M29,24c2.206,0,4,1.794,4,4s-1.794,4-4,4
		s-4-1.794-4-4S26.794,24,29,24z"/>
	<path d="M45,34c3.309,0,6-2.691,6-6s-2.691-6-6-6s-6,2.691-6,6S41.691,34,45,34z M45,24c2.206,0,4,1.794,4,4s-1.794,4-4,4
		s-4-1.794-4-4S42.794,24,45,24z"/>
	<path d="M13,50c3.309,0,6-2.691,6-6s-2.691-6-6-6s-6,2.691-6,6S9.691,50,13,50z M13,40c2.206,0,4,1.794,4,4s-1.794,4-4,4
		s-4-1.794-4-4S10.794,40,13,40z"/>
	<path d="M29,50c3.309,0,6-2.691,6-6s-2.691-6-6-6s-6,2.691-6,6S25.691,50,29,50z M29,40c2.206,0,4,1.794,4,4s-1.794,4-4,4
		s-4-1.794-4-4S26.794,40,29,40z"/>
	<path d="M45,50c3.309,0,6-2.691,6-6s-2.691-6-6-6s-6,2.691-6,6S41.691,50,45,50z"/>
	<path d="M26,0c-0.553,0-1,0.447-1,1s0.447,1,1,1c1.302,0,2.402,0.838,2.816,2h2.083C30.434,1.721,28.414,0,26,0z"/>
	<path d="M32,0c-0.553,0-1,0.447-1,1s0.447,1,1,1c1.302,0,2.402,0.838,2.816,2h2.083C36.434,1.721,34.414,0,32,0z"/>
	<path d="M38,0c-0.553,0-1,0.447-1,1s0.447,1,1,1c1.302,0,2.402,0.838,2.816,2h2.083C42.434,1.721,40.414,0,38,0z"/>
	<path d="M42.899,4C42.965,4.323,43,4.658,43,5c0,2.757-2.243,5-5,5c-0.553,0-1-0.447-1-1s0.447-1,1-1c1.654,0,3-1.346,3-3
		c0-0.353-0.072-0.686-0.184-1h-3.917C36.965,4.323,37,4.658,37,5c0,2.757-2.243,5-5,5c-0.553,0-1-0.447-1-1s0.447-1,1-1
		c1.654,0,3-1.346,3-3c0-0.353-0.072-0.686-0.184-1h-3.917C30.965,4.323,31,4.658,31,5c0,2.757-2.243,5-5,5c-0.553,0-1-0.447-1-1
		s0.447-1,1-1c1.654,0,3-1.346,3-3c0-0.353-0.072-0.686-0.184-1h-3.917C24.965,4.323,25,4.658,25,5c0,2.757-2.243,5-5,5
		c-0.553,0-1-0.447-1-1s0.447-1,1-1c1.654,0,3-1.346,3-3c0-0.353-0.072-0.686-0.184-1H18h-0.816C17.598,2.838,18.698,2,20,2
		s2.402,0.838,2.816,2h2.083C24.434,1.721,22.414,0,20,0s-4.434,1.721-4.899,4H14H0v11v43h58V15V4H42.899z M56,56H2V17h54V56z"/>
</g>
<g>
</g>
<g>
</g>
<g>
</g>
<g>
</g>
<g>
</g>
<g>
</g>
<g>
</g>
<g>
</g>
<g>
</g>
<g>
</g>
<g>
</g>
<g>
</g>
<g>
</g>
<g>
</g>
<g>
</g>
</svg>
