<?xml version="1.0" encoding="iso-8859-1"?>
<!-- Generator: Adobe Illustrator 19.0.0, SVG Export Plug-In . SVG Version: 6.00 Build 0)  -->
<svg version="1.1" id="Capa_1" xmlns="http://www.w3.org/2000/svg" xmlns:xlink="http://www.w3.org/1999/xlink" x="0px" y="0px"
	 viewBox="0 0 58 58" style="enable-background:new 0 0 58 58;" xml:space="preserve">
<g>
	<path d="M13,31.5c0.256,0,0.512-0.098,0.707-0.293L18,26.914V49.5h-3c-0.553,0-1,0.447-1,1s0.447,1,1,1h8c0.553,0,1-0.447,1-1
		s-0.447-1-1-1h-3v-25c0-0.13-0.026-0.26-0.077-0.382c-0.101-0.245-0.296-0.44-0.541-0.541c-0.244-0.101-0.519-0.101-0.764,0
		c-0.123,0.051-0.234,0.125-0.326,0.217l-5.999,5.999c-0.391,0.391-0.391,1.023,0,1.414C12.488,31.402,12.744,31.5,13,31.5z"/>
	<path d="M30,43.5c0,4.411,3.589,8,8,8s8-3.589,8-8c0-3.07-1.74-5.738-4.284-7.079C43.685,35.181,45,32.994,45,30.5
		c0-3.859-3.141-7-7-7s-7,3.141-7,7c0,2.494,1.315,4.681,3.284,5.921C31.74,37.762,30,40.43,30,43.5z M33,30.5c0-2.757,2.243-5,5-5
		s5,2.243,5,5s-2.243,5-5,5S33,33.257,33,30.5z M38,37.5c3.309,0,6,2.691,6,6s-2.691,6-6,6s-6-2.691-6-6S34.691,37.5,38,37.5z"/>
	<path d="M26,0.5c-0.553,0-1,0.447-1,1s0.447,1,1,1c1.302,0,2.402,0.838,2.816,2h2.083C30.434,2.221,28.414,0.5,26,0.5z"/>
	<path d="M32,0.5c-0.553,0-1,0.447-1,1s0.447,1,1,1c1.302,0,2.402,0.838,2.816,2h2.083C36.434,2.221,34.414,0.5,32,0.5z"/>
	<path d="M38,0.5c-0.553,0-1,0.447-1,1s0.447,1,1,1c1.302,0,2.402,0.838,2.816,2h2.083C42.434,2.221,40.414,0.5,38,0.5z"/>
	<path d="M42.899,4.5C42.965,4.823,43,5.158,43,5.5c0,2.757-2.243,5-5,5c-0.553,0-1-0.447-1-1s0.447-1,1-1c1.654,0,3-1.346,3-3
		c0-0.353-0.072-0.686-0.184-1h-3.917C36.965,4.823,37,5.158,37,5.5c0,2.757-2.243,5-5,5c-0.553,0-1-0.447-1-1s0.447-1,1-1
		c1.654,0,3-1.346,3-3c0-0.353-0.072-0.686-0.184-1h-3.917C30.965,4.823,31,5.158,31,5.5c0,2.757-2.243,5-5,5c-0.553,0-1-0.447-1-1
		s0.447-1,1-1c1.654,0,3-1.346,3-3c0-0.353-0.072-0.686-0.184-1h-3.917C24.965,4.823,25,5.158,25,5.5c0,2.757-2.243,5-5,5
		c-0.553,0-1-0.447-1-1s0.447-1,1-1c1.654,0,3-1.346,3-3c0-0.353-0.072-0.686-0.184-1H18h-0.816c0.414-1.162,1.514-2,2.816-2
		s2.402,0.838,2.816,2h2.083c-0.465-2.279-2.484-4-4.899-4s-4.434,1.721-4.899,4H14H0v12v2v39h58v-39v-2v-12H42.899z M56,55.5H2v-37
		h54V55.5z"/>
</g>
<g>
</g>
<g>
</g>
<g>
</g>
<g>
</g>
<g>
</g>
<g>
</g>
<g>
</g>
<g>
</g>
<g>
</g>
<g>
</g>
<g>
</g>
<g>
</g>
<g>
</g>
<g>
</g>
<g>
</g>
</svg>
