<?xml version="1.0" encoding="iso-8859-1"?>
<!-- Generator: Adobe Illustrator 19.0.0, SVG Export Plug-In . SVG Version: 6.00 Build 0)  -->
<svg version="1.1" id="Capa_1" xmlns="http://www.w3.org/2000/svg" xmlns:xlink="http://www.w3.org/1999/xlink" x="0px" y="0px"
	 viewBox="0 0 60 60" style="enable-background:new 0 0 60 60;" xml:space="preserve">
<g>
	<path d="M50.25,11c-1.563-0.838-11.282-6.07-16.623-9.421C32.715,0.612,31.431,0,30,0s-2.715,0.612-3.627,1.579
		C21.031,4.929,11.313,10.162,9.75,11H0v49h60V11H50.25z M25.006,4.754C25.002,4.836,25,4.918,25,5c0,2.757,2.243,5,5,5s5-2.243,5-5
		c0-0.082-0.002-0.164-0.006-0.246C38.587,6.89,43.029,9.351,46.051,11H13.949C16.971,9.351,21.413,6.89,25.006,4.754z M2,58V20h56
		v38H2z"/>
	<circle cx="23" cy="28" r="1"/>
	<circle cx="30" cy="28" r="1"/>
	<circle cx="37" cy="28" r="1"/>
	<circle cx="44" cy="28" r="1"/>
	<circle cx="51" cy="28" r="1"/>
	<circle cx="9" cy="36" r="1"/>
	<circle cx="16" cy="36" r="1"/>
	<circle cx="23" cy="36" r="1"/>
	<circle cx="30" cy="36" r="1"/>
	<circle cx="37" cy="36" r="1"/>
	<circle cx="44" cy="36" r="1"/>
	<circle cx="51" cy="36" r="1"/>
	<circle cx="9" cy="43" r="1"/>
	<circle cx="16" cy="43" r="1"/>
	<circle cx="23" cy="43" r="1"/>
	<circle cx="30" cy="43" r="1"/>
	<circle cx="37" cy="43" r="1"/>
	<circle cx="44" cy="43" r="1"/>
	<circle cx="51" cy="43" r="1"/>
	<circle cx="9" cy="51" r="1"/>
	<circle cx="16" cy="51" r="1"/>
	<circle cx="23" cy="51" r="1"/>
	<circle cx="30" cy="51" r="1"/>
	<circle cx="37" cy="51" r="1"/>
</g>
<g>
</g>
<g>
</g>
<g>
</g>
<g>
</g>
<g>
</g>
<g>
</g>
<g>
</g>
<g>
</g>
<g>
</g>
<g>
</g>
<g>
</g>
<g>
</g>
<g>
</g>
<g>
</g>
<g>
</g>
</svg>
