<?xml version="1.0" encoding="iso-8859-1"?>
<!-- Generator: Adobe Illustrator 19.0.0, SVG Export Plug-In . SVG Version: 6.00 Build 0)  -->
<svg version="1.1" id="Capa_1" xmlns="http://www.w3.org/2000/svg" xmlns:xlink="http://www.w3.org/1999/xlink" x="0px" y="0px"
	 viewBox="0 0 60 60" style="enable-background:new 0 0 60 60;" xml:space="preserve">
<g>
	<circle cx="30" cy="30" r="2"/>
	<path d="M0,0v60h60V0H0z M49.586,9l0.707-0.707c0.391-0.391,1.023-0.391,1.414,0s0.391,1.023,0,1.414L51,10.414
		c-0.195,0.195-0.451,0.293-0.707,0.293s-0.512-0.098-0.707-0.293C49.195,10.023,49.195,9.391,49.586,9z M29,8c0-0.553,0.448-1,1-1
		s1,0.447,1,1v1c0,0.553-0.448,1-1,1s-1-0.447-1-1V8z M8.086,8.086c0.391-0.391,1.023-0.391,1.414,0l0.707,0.707
		c0.391,0.391,0.391,1.023,0,1.414C10.012,10.402,9.756,10.5,9.5,10.5s-0.512-0.098-0.707-0.293L8.086,9.5
		C7.695,9.109,7.695,8.477,8.086,8.086z M7,30c0-0.553,0.448-1,1-1h1c0.552,0,1,0.447,1,1s-0.448,1-1,1H8C7.448,31,7,30.553,7,30z
		 M10.561,50.854l-0.707,0.707c-0.195,0.195-0.451,0.293-0.707,0.293s-0.512-0.098-0.707-0.293c-0.391-0.391-0.391-1.023,0-1.414
		l0.707-0.707c0.391-0.391,1.023-0.391,1.414,0S10.951,50.463,10.561,50.854z M31,52c0,0.553-0.448,1-1,1s-1-0.447-1-1v-1
		c0-0.553,0.448-1,1-1s1,0.447,1,1V52z M30,34c-1.858,0-3.411-1.28-3.858-3H19c-0.552,0-1-0.447-1-1s0.448-1,1-1h7.142
		c0.364-1.399,1.459-2.494,2.858-2.858V16c0-0.553,0.448-1,1-1s1,0.447,1,1v10.142c1.72,0.447,3,1.999,3,3.858
		C34,32.206,32.206,34,30,34z M51.561,51.561c-0.195,0.195-0.451,0.293-0.707,0.293s-0.512-0.098-0.707-0.293l-0.707-0.707
		c-0.391-0.391-0.391-1.023,0-1.414s1.023-0.391,1.414,0l0.707,0.707C51.951,50.537,51.951,51.17,51.561,51.561z M52,31h-1
		c-0.552,0-1-0.447-1-1s0.448-1,1-1h1c0.552,0,1,0.447,1,1S52.552,31,52,31z"/>
</g>
<g>
</g>
<g>
</g>
<g>
</g>
<g>
</g>
<g>
</g>
<g>
</g>
<g>
</g>
<g>
</g>
<g>
</g>
<g>
</g>
<g>
</g>
<g>
</g>
<g>
</g>
<g>
</g>
<g>
</g>
</svg>
