<?xml version="1.0" encoding="iso-8859-1"?>
<!-- Generator: Adobe Illustrator 19.0.0, SVG Export Plug-In . SVG Version: 6.00 Build 0)  -->
<svg version="1.1" id="Capa_1" xmlns="http://www.w3.org/2000/svg" xmlns:xlink="http://www.w3.org/1999/xlink" x="0px" y="0px"
	 viewBox="0 0 51 51" style="enable-background:new 0 0 51 51;" xml:space="preserve">
<g>
	<polygon points="45,0.5 0,0.5 0,43.5 5,43.5 5,6.5 45,6.5 	"/>
	<path d="M7,8.5v42h44v-42H7z M37.485,36.571c0.391,0.391,0.391,1.023,0,1.414c-0.391,0.391-1.023,0.391-1.414,0L29,30.914
		l-7.071,7.071c-0.391,0.391-1.023,0.391-1.414,0c-0.391-0.391-0.391-1.023,0-1.414l7.071-7.071l-7.071-7.071
		c-0.391-0.391-0.391-1.023,0-1.414c0.391-0.391,1.023-0.391,1.414,0L29,28.086l7.071-7.071c0.391-0.391,1.023-0.391,1.414,0
		c0.391,0.391,0.391,1.023,0,1.414L30.414,29.5L37.485,36.571z"/>
</g>
<g>
</g>
<g>
</g>
<g>
</g>
<g>
</g>
<g>
</g>
<g>
</g>
<g>
</g>
<g>
</g>
<g>
</g>
<g>
</g>
<g>
</g>
<g>
</g>
<g>
</g>
<g>
</g>
<g>
</g>
</svg>
