<?xml version="1.0" encoding="iso-8859-1"?>
<!-- Generator: Adobe Illustrator 19.0.0, SVG Export Plug-In . SVG Version: 6.00 Build 0)  -->
<svg version="1.1" id="Capa_1" xmlns="http://www.w3.org/2000/svg" xmlns:xlink="http://www.w3.org/1999/xlink" x="0px" y="0px"
	 viewBox="0 0 56 56" style="enable-background:new 0 0 56 56;" xml:space="preserve">
<g>
	<path d="M39,40c-0.552,0-1,0.447-1,1c0,4.963-4.038,9-9,9s-9-4.037-9-9s4.038-9,9-9c3,0,5.677,1.506,7.311,4H30
		c-0.552,0-1,0.447-1,1s0.448,1,1,1h8c0.002,0,0.003-0.001,0.005-0.001c0.07,0,0.14-0.027,0.21-0.042
		c0.06-0.014,0.125-0.015,0.181-0.039c0.002-0.001,0.004,0,0.005-0.001c0.034-0.015,0.056-0.043,0.087-0.061
		c0.081-0.046,0.162-0.093,0.227-0.159c0.044-0.046,0.07-0.103,0.104-0.155c0.036-0.055,0.08-0.104,0.105-0.166
		c0.034-0.084,0.043-0.175,0.054-0.265C38.982,37.072,39,37.039,39,37v-0.011v-0.002V29c0-0.553-0.448-1-1-1s-1,0.447-1,1v4.6
		c-2.014-2.272-4.864-3.6-8-3.6c-6.065,0-11,4.935-11,11s4.935,11,11,11s11-4.935,11-11C40,40.447,39.552,40,39,40z"/>
	<path d="M47.835,19.986c-0.137-0.019-2.457-0.335-4.684,0.002C43.1,19.996,43.049,20,42.999,20c-0.486,0-0.912-0.354-0.987-0.85
		c-0.083-0.546,0.292-1.056,0.838-1.139c1.531-0.233,3.062-0.196,4.083-0.124C46.262,10.135,39.83,4,32.085,4
		c-4.697,0-9.418,2.379-12.285,6.129C21.754,11.781,23,14.246,23,17c0,0.553-0.447,1-1,1s-1-0.447-1-1
		c0-2.462-1.281-4.627-3.209-5.876c-0.227-0.147-0.462-0.277-0.702-0.396c-0.069-0.034-0.139-0.069-0.21-0.101
		c-0.272-0.124-0.55-0.234-0.835-0.321c-0.035-0.01-0.071-0.017-0.106-0.027c-0.259-0.075-0.522-0.132-0.789-0.177
		c-0.078-0.013-0.155-0.025-0.233-0.036C14.614,10.027,14.309,10,14,10c-3.859,0-7,3.141-7,7c0,0.082,0.006,0.163,0.012,0.244
		l0.012,0.21l-0.009,0.16C7.008,17.744,7,17.873,7,18v0.63l-0.567,0.271C2.705,20.688,0,25,0,29.154C0,35.135,4.865,40,10.845,40
		h5.206C16.565,33.299,22.169,28,29,28c2.157,0,4.198,0.532,6,1.497V29c0-1.657,1.343-3,3-3s3,1.343,3,3v8
		c0,0.031-0.008,0.061-0.009,0.092c-0.003,0.088-0.016,0.172-0.026,0.259c-0.016,0.134-0.036,0.264-0.068,0.392
		c-0.02,0.078-0.045,0.153-0.071,0.229c-0.045,0.13-0.097,0.255-0.159,0.376c-0.02,0.04-0.03,0.084-0.052,0.123
		c0.555,0.355,0.967,0.898,1.192,1.529h4.165C51.501,40,56,35.501,56,29.972C56,25.161,52.49,20.872,47.835,19.986z"/>
</g>
<g>
</g>
<g>
</g>
<g>
</g>
<g>
</g>
<g>
</g>
<g>
</g>
<g>
</g>
<g>
</g>
<g>
</g>
<g>
</g>
<g>
</g>
<g>
</g>
<g>
</g>
<g>
</g>
<g>
</g>
</svg>
