<?xml version="1.0" encoding="iso-8859-1"?>
<!-- Generator: Adobe Illustrator 19.0.0, SVG Export Plug-In . SVG Version: 6.00 Build 0)  -->
<svg version="1.1" id="Capa_1" xmlns="http://www.w3.org/2000/svg" xmlns:xlink="http://www.w3.org/1999/xlink" x="0px" y="0px"
	 viewBox="0 0 56 56" style="enable-background:new 0 0 56 56;" xml:space="preserve">
<g>
	<path d="M11.843,51.5h32.313L28,23.876L11.843,51.5z M15.33,49.5L28,27.837L40.67,49.5H15.33z"/>
	<path d="M27,33.5v8c0,0.553,0.448,1,1,1s1-0.447,1-1v-8c0-0.553-0.448-1-1-1S27,32.947,27,33.5z"/>
	<path d="M28,44.5c-0.552,0-1,0.447-1,1v1c0,0.553,0.448,1,1,1s1-0.447,1-1v-1C29,44.947,28.552,44.5,28,44.5z"/>
	<path d="M47.835,20.486c-0.137-0.019-2.457-0.335-4.684,0.002C43.1,20.496,43.049,20.5,42.999,20.5
		c-0.486,0-0.912-0.354-0.987-0.85c-0.083-0.546,0.292-1.056,0.838-1.139c1.531-0.233,3.062-0.196,4.083-0.124
		C46.262,10.635,39.83,4.5,32.085,4.5c-4.697,0-9.418,2.379-12.285,6.129c1.954,1.652,3.2,4.117,3.2,6.871c0,0.553-0.447,1-1,1
		s-1-0.447-1-1c0-2.462-1.281-4.627-3.209-5.876c-0.227-0.147-0.462-0.277-0.702-0.396c-0.069-0.034-0.139-0.069-0.21-0.101
		c-0.272-0.124-0.55-0.234-0.835-0.321c-0.035-0.01-0.071-0.017-0.106-0.027c-0.259-0.075-0.522-0.132-0.789-0.177
		c-0.078-0.013-0.155-0.025-0.233-0.036C14.614,10.527,14.309,10.5,14,10.5c-3.859,0-7,3.141-7,7c0,0.082,0.006,0.163,0.012,0.244
		l0.012,0.21l-0.009,0.16C7.008,18.244,7,18.373,7,18.5v0.63l-0.567,0.271C2.705,21.188,0,25.5,0,29.654
		C0,35.635,4.865,40.5,10.845,40.5h5.115L28,19.914L40.04,40.5h5.932C51.501,40.5,56,36.001,56,30.472
		C56,25.661,52.49,21.372,47.835,20.486z"/>
</g>
<g>
</g>
<g>
</g>
<g>
</g>
<g>
</g>
<g>
</g>
<g>
</g>
<g>
</g>
<g>
</g>
<g>
</g>
<g>
</g>
<g>
</g>
<g>
</g>
<g>
</g>
<g>
</g>
<g>
</g>
</svg>
