<?xml version="1.0" encoding="iso-8859-1"?>
<!-- Generator: Adobe Illustrator 19.0.0, SVG Export Plug-In . SVG Version: 6.00 Build 0)  -->
<svg version="1.1" id="Capa_1" xmlns="http://www.w3.org/2000/svg" xmlns:xlink="http://www.w3.org/1999/xlink" x="0px" y="0px"
	 viewBox="0 0 56 56" style="enable-background:new 0 0 56 56;" xml:space="preserve">
<g>
	<path d="M35.586,43.086L31,47.672V28.328l4.586,4.586C35.976,33.305,36.488,33.5,37,33.5s1.024-0.195,1.414-0.586
		c0.781-0.781,0.781-2.047,0-2.828l-7.999-7.999c-0.093-0.093-0.196-0.177-0.306-0.25c-0.05-0.034-0.105-0.057-0.158-0.086
		c-0.062-0.034-0.121-0.071-0.186-0.098c-0.067-0.028-0.137-0.044-0.206-0.064c-0.056-0.017-0.11-0.038-0.168-0.05
		c-0.259-0.052-0.525-0.052-0.784,0c-0.058,0.011-0.112,0.033-0.168,0.05c-0.069,0.02-0.138,0.036-0.205,0.064
		c-0.066,0.027-0.125,0.065-0.187,0.099c-0.052,0.029-0.107,0.052-0.157,0.085c-0.11,0.073-0.213,0.157-0.306,0.25l-7.999,7.999
		c-0.781,0.781-0.781,2.047,0,2.828C19.976,33.305,20.488,33.5,21,33.5s1.024-0.195,1.414-0.586L27,28.328v19.344l-4.586-4.586
		c-0.78-0.781-2.048-0.781-2.828,0c-0.781,0.781-0.781,2.047,0,2.828l8,8C27.976,54.305,28.488,54.5,29,54.5
		s1.024-0.195,1.414-0.586l8-8c0.781-0.781,0.781-2.047,0-2.828C37.634,42.305,36.366,42.305,35.586,43.086z"/>
	<path d="M47.835,17.486c-0.137-0.019-2.457-0.335-4.684,0.002C43.1,17.496,43.049,17.5,42.999,17.5
		c-0.486,0-0.912-0.354-0.987-0.85c-0.083-0.546,0.292-1.056,0.838-1.139c1.531-0.233,3.062-0.196,4.083-0.124
		C46.262,7.635,39.83,1.5,32.085,1.5c-4.697,0-9.418,2.379-12.285,6.129C21.754,9.281,23,11.746,23,14.5c0,0.553-0.447,1-1,1
		s-1-0.447-1-1c0-2.462-1.281-4.627-3.209-5.876c-0.227-0.147-0.462-0.277-0.702-0.396c-0.069-0.034-0.139-0.069-0.21-0.101
		c-0.272-0.124-0.55-0.234-0.835-0.321c-0.035-0.01-0.071-0.017-0.106-0.027c-0.259-0.075-0.522-0.132-0.789-0.177
		c-0.078-0.013-0.155-0.025-0.233-0.036C14.614,7.527,14.309,7.5,14,7.5c-3.859,0-7,3.141-7,7c0,0.082,0.006,0.163,0.012,0.244
		l0.012,0.21l-0.009,0.16C7.008,15.244,7,15.373,7,15.5v0.63l-0.567,0.271C2.705,18.188,0,22.5,0,26.654
		C0,32.635,4.865,37.5,10.845,37.5h14.184v-4.343l-1.171,1.171c-0.781,0.781-1.805,1.172-2.829,1.172s-2.047-0.391-2.829-1.172
		c-1.562-1.562-1.562-4.095,0-5.656l8-8h0c0.186-0.186,0.391-0.352,0.61-0.499c0.098-0.065,0.205-0.111,0.307-0.167
		c0.126-0.069,0.248-0.146,0.382-0.201c0.132-0.055,0.27-0.086,0.406-0.126c0.114-0.033,0.223-0.077,0.34-0.101
		c0.517-0.103,1.05-0.103,1.567,0c0.118,0.023,0.227,0.067,0.34,0.101c0.136,0.04,0.274,0.071,0.406,0.126
		c0.134,0.056,0.256,0.132,0.382,0.201c0.102,0.056,0.209,0.101,0.307,0.167c0.219,0.146,0.424,0.313,0.61,0.499h0l8,8
		c1.562,1.562,1.562,4.095,0,5.656c-0.781,0.781-1.805,1.172-2.829,1.172s-2.047-0.391-2.829-1.172l-1.171-1.171V37.5h2.324
		c0.059,0,0.116-0.005,0.174-0.009l0.198-0.011l0.271,0.011c0.058,0.004,0.115,0.009,0.174,0.009h9.803
		C51.501,37.5,56,33.001,56,27.472C56,22.661,52.49,18.372,47.835,17.486z"/>
</g>
<g>
</g>
<g>
</g>
<g>
</g>
<g>
</g>
<g>
</g>
<g>
</g>
<g>
</g>
<g>
</g>
<g>
</g>
<g>
</g>
<g>
</g>
<g>
</g>
<g>
</g>
<g>
</g>
<g>
</g>
</svg>
