<?xml version="1.0" encoding="iso-8859-1"?>
<!-- Generator: Adobe Illustrator 19.0.0, SVG Export Plug-In . SVG Version: 6.00 Build 0)  -->
<svg version="1.1" id="Capa_1" xmlns="http://www.w3.org/2000/svg" xmlns:xlink="http://www.w3.org/1999/xlink" x="0px" y="0px"
	 viewBox="0 0 60 60" style="enable-background:new 0 0 60 60;" xml:space="preserve">
<g>
	<path d="M50.73,8.345c-0.016-0.018-0.022-0.041-0.04-0.057c-0.142-0.135-0.289-0.262-0.434-0.394
		c-0.065-0.06-0.13-0.119-0.195-0.177c-0.298-0.269-0.601-0.531-0.908-0.787c-0.055-0.046-0.111-0.092-0.166-0.137
		c-0.324-0.266-0.653-0.524-0.987-0.776c-0.042-0.032-0.084-0.063-0.126-0.094c-0.352-0.262-0.708-0.516-1.069-0.761
		c-0.029-0.02-0.058-0.039-0.087-0.059c-0.374-0.252-0.753-0.495-1.137-0.729c-0.024-0.015-0.048-0.03-0.073-0.044
		c-0.388-0.235-0.781-0.461-1.179-0.678c-0.027-0.015-0.053-0.029-0.08-0.044c-0.394-0.213-0.792-0.417-1.194-0.612
		c-0.037-0.018-0.075-0.036-0.112-0.054c-0.391-0.188-0.785-0.366-1.184-0.536c-0.055-0.023-0.109-0.047-0.164-0.07
		c-0.38-0.159-0.763-0.31-1.15-0.454c-0.078-0.029-0.156-0.059-0.235-0.088c-0.364-0.132-0.73-0.255-1.099-0.373
		c-0.104-0.033-0.208-0.068-0.313-0.1c-0.345-0.106-0.693-0.204-1.043-0.297c-0.13-0.035-0.26-0.072-0.391-0.105
		c-0.328-0.083-0.658-0.157-0.99-0.229c-0.153-0.033-0.306-0.069-0.46-0.1c-0.315-0.063-0.632-0.117-0.949-0.17
		c-0.172-0.029-0.342-0.061-0.515-0.086c-0.31-0.046-0.623-0.083-0.935-0.119c-0.18-0.021-0.358-0.046-0.538-0.064
		c-0.333-0.033-0.668-0.055-1.003-0.077c-0.161-0.01-0.32-0.026-0.481-0.034C30.999,0.013,30.501,0,30,0s-0.999,0.013-1.496,0.038
		c-0.161,0.008-0.32,0.024-0.481,0.034c-0.335,0.022-0.67,0.044-1.003,0.077c-0.181,0.018-0.359,0.043-0.538,0.064
		c-0.313,0.037-0.625,0.073-0.935,0.119c-0.173,0.026-0.343,0.058-0.515,0.086c-0.317,0.053-0.634,0.107-0.949,0.17
		c-0.154,0.031-0.307,0.067-0.46,0.1c-0.331,0.072-0.662,0.146-0.99,0.229c-0.131,0.033-0.261,0.07-0.391,0.105
		c-0.349,0.093-0.697,0.191-1.043,0.297c-0.105,0.032-0.208,0.066-0.313,0.1c-0.369,0.117-0.735,0.241-1.099,0.373
		c-0.079,0.029-0.157,0.059-0.235,0.088c-0.386,0.144-0.77,0.295-1.15,0.454c-0.055,0.023-0.109,0.047-0.164,0.07
		c-0.398,0.17-0.793,0.348-1.184,0.536c-0.037,0.018-0.075,0.036-0.112,0.054c-0.402,0.195-0.8,0.399-1.194,0.612
		c-0.027,0.015-0.054,0.029-0.08,0.044c-0.398,0.217-0.79,0.443-1.179,0.678c-0.024,0.015-0.048,0.03-0.073,0.044
		c-0.384,0.234-0.763,0.477-1.137,0.729c-0.029,0.02-0.058,0.039-0.087,0.059c-0.361,0.245-0.718,0.499-1.069,0.761
		c-0.042,0.031-0.084,0.063-0.126,0.094c-0.334,0.251-0.662,0.51-0.987,0.776c-0.056,0.045-0.111,0.091-0.166,0.137
		c-0.307,0.256-0.609,0.518-0.908,0.787c-0.065,0.059-0.13,0.118-0.195,0.177C9.6,8.026,9.452,8.153,9.31,8.288
		c-0.017,0.016-0.024,0.04-0.04,0.057C3.564,13.81,0,21.494,0,30c0,16.542,13.458,30,30,30s30-13.458,30-30
		C60,21.494,56.436,13.81,50.73,8.345z M39,6c0-0.553,0.448-1,1-1s1,0.447,1,1v10.032c0,0.553-0.448,1-1,1s-1-0.447-1-1V6z M29,3
		c0-0.553,0.448-1,1-1s1,0.447,1,1v20.032c0,0.553-0.448,1-1,1s-1-0.447-1-1V3z M19,6c0-0.553,0.448-1,1-1s1,0.447,1,1v10.032
		c0,0.553-0.448,1-1,1s-1-0.447-1-1V6z M20,20.313l9.335,7.469C29.511,27.919,29.747,28,29.97,28c0.02-0.001,0.04-0.001,0.061,0
		c0.227,0,0.466-0.084,0.644-0.226L40,20.313l8.58,6.864l-9.338,11.699C36.805,36.404,33.505,35,30,35s-6.805,1.404-9.241,3.875
		l-9.338-11.698L20,20.313z M30,58C14.561,58,2,45.439,2,30c0-7.083,2.648-13.555,7-18.491v14.969V27
		c0,0.227,0.077,0.446,0.218,0.624l10.706,13.412l0,0l9.245,11.581c0.043,0.054,0.091,0.103,0.144,0.146
		c0.003,0.002,0.007,0.003,0.01,0.005c0.005,0.004,0.008,0.009,0.013,0.013c0.057,0.045,0.128,0.073,0.195,0.105
		c0.034,0.016,0.062,0.04,0.097,0.052C29.739,52.978,29.856,53,29.97,53c0.02-0.001,0.04-0.001,0.061,0
		c0.114,0,0.231-0.022,0.342-0.061c0.035-0.012,0.064-0.036,0.097-0.052c0.068-0.032,0.138-0.06,0.195-0.105
		c0.005-0.004,0.008-0.009,0.013-0.013c0.003-0.002,0.007-0.003,0.01-0.005c0.053-0.043,0.101-0.092,0.144-0.146l9.245-11.581l0,0
		l10.706-13.412C50.923,27.446,51,27.227,51,27v-0.521V11.509c4.352,4.936,7,11.408,7,18.491C58,45.439,45.439,58,30,58z"/>
</g>
<g>
</g>
<g>
</g>
<g>
</g>
<g>
</g>
<g>
</g>
<g>
</g>
<g>
</g>
<g>
</g>
<g>
</g>
<g>
</g>
<g>
</g>
<g>
</g>
<g>
</g>
<g>
</g>
<g>
</g>
</svg>
