<?xml version="1.0" encoding="iso-8859-1"?>
<!-- Generator: Adobe Illustrator 19.0.0, SVG Export Plug-In . SVG Version: 6.00 Build 0)  -->
<svg version="1.1" id="Capa_1" xmlns="http://www.w3.org/2000/svg" xmlns:xlink="http://www.w3.org/1999/xlink" x="0px" y="0px"
	 viewBox="0 0 58 58" style="enable-background:new 0 0 58 58;" xml:space="preserve">
<g>
	<path d="M26.172,26.172C25.416,26.927,25,27.932,25,29s0.416,2.073,1.172,2.828C26.927,32.584,27.932,33,29,33
		s2.073-0.416,2.828-1.172C32.584,31.073,33,30.068,33,29s-0.416-2.073-1.172-2.828C30.318,24.66,27.682,24.66,26.172,26.172z"/>
	<path d="M49.506,8.494C44.028,3.017,36.746,0,29,0S13.972,3.017,8.494,8.494c-11.307,11.307-11.307,29.705,0,41.012
		C13.972,54.983,21.254,58,29,58s15.028-3.017,20.506-8.494C60.813,38.199,60.813,19.801,49.506,8.494z M48.799,48.799
		c-1.934,1.934-4.084,3.519-6.368,4.769L34.756,39.53C33.011,40.487,31.046,41,29,41c-3.205,0-6.219-1.248-8.485-3.515
		c-3.85-3.85-4.524-9.684-2.038-14.238L4.432,15.569c1.25-2.284,2.835-4.434,4.769-6.368c1.934-1.934,4.084-3.519,6.368-4.769
		l7.674,14.039C24.989,17.513,26.954,17,29,17c3.205,0,6.219,1.248,8.485,3.515c3.85,3.85,4.524,9.684,2.038,14.238l14.045,7.678
		C52.318,44.715,50.733,46.865,48.799,48.799z"/>
</g>
<g>
</g>
<g>
</g>
<g>
</g>
<g>
</g>
<g>
</g>
<g>
</g>
<g>
</g>
<g>
</g>
<g>
</g>
<g>
</g>
<g>
</g>
<g>
</g>
<g>
</g>
<g>
</g>
<g>
</g>
</svg>
