<?xml version="1.0" encoding="iso-8859-1"?>
<!-- Generator: Adobe Illustrator 19.0.0, SVG Export Plug-In . SVG Version: 6.00 Build 0)  -->
<svg version="1.1" id="Capa_1" xmlns="http://www.w3.org/2000/svg" xmlns:xlink="http://www.w3.org/1999/xlink" x="0px" y="0px"
	 viewBox="0 0 59 59" style="enable-background:new 0 0 59 59;" xml:space="preserve">
<path d="M30.5,9.025V7.858c1.721-0.447,3-1.999,3-3.858c0-2.206-1.794-4-4-4s-4,1.794-4,4c0,1.859,1.279,3.411,3,3.858v1.167
	C15.177,9.553,4.5,20.55,4.5,34c0,13.785,11.215,25,25,25s25-11.215,25-25C54.5,20.55,43.823,9.553,30.5,9.025z M27.5,4
	c0-1.103,0.897-2,2-2s2,0.897,2,2s-0.897,2-2,2S27.5,5.103,27.5,4z M17.22,47.622c-0.143,0.071-0.295,0.105-0.447,0.105
	c-0.259,0-0.515-0.101-0.707-0.293c-0.305-0.305-0.38-0.77-0.188-1.154l8.163-16.325l9.504,9.504L17.22,47.622z M43.122,21.72
	l-8.163,16.325l-9.504-9.504l16.325-8.163c0.386-0.192,0.85-0.117,1.154,0.188S43.314,21.335,43.122,21.72z"/>
<g>
</g>
<g>
</g>
<g>
</g>
<g>
</g>
<g>
</g>
<g>
</g>
<g>
</g>
<g>
</g>
<g>
</g>
<g>
</g>
<g>
</g>
<g>
</g>
<g>
</g>
<g>
</g>
<g>
</g>
</svg>
