<?xml version="1.0" encoding="iso-8859-1"?>
<!-- Generator: Adobe Illustrator 19.0.0, SVG Export Plug-In . SVG Version: 6.00 Build 0)  -->
<svg version="1.1" id="Capa_1" xmlns="http://www.w3.org/2000/svg" xmlns:xlink="http://www.w3.org/1999/xlink" x="0px" y="0px"
	 viewBox="0 0 54 54" style="enable-background:new 0 0 54 54;" xml:space="preserve">
<g>
	<path d="M36,41v4H1c-0.553,0-1,0.448-1,1c0,0.552,0.447,1,1,1h35v4c0,0.552,0.447,1,1,1h12c0.553,0,1-0.448,1-1v-4h3
		c0.553,0,1-0.448,1-1s-0.447-1-1-1h-3v-4c0-0.552-0.447-1-1-1H37C36.447,40,36,40.448,36,41z"/>
	<path d="M20,22v4H1c-0.553,0-1,0.448-1,1s0.447,1,1,1h19v4c0,0.552,0.447,1,1,1h12c0.553,0,1-0.448,1-1v-4h19c0.553,0,1-0.448,1-1
		s-0.447-1-1-1H34v-4c0-0.552-0.447-1-1-1H21C20.447,21,20,21.448,20,22z"/>
	<path d="M4,3v4H1C0.447,7,0,7.448,0,8c0,0.552,0.447,1,1,1h3v4c0,0.552,0.447,1,1,1h12c0.553,0,1-0.448,1-1V9h35
		c0.553,0,1-0.448,1-1s-0.447-1-1-1H18V3c0-0.552-0.447-1-1-1H5C4.447,2,4,2.448,4,3z"/>
</g>
<g>
</g>
<g>
</g>
<g>
</g>
<g>
</g>
<g>
</g>
<g>
</g>
<g>
</g>
<g>
</g>
<g>
</g>
<g>
</g>
<g>
</g>
<g>
</g>
<g>
</g>
<g>
</g>
<g>
</g>
</svg>
