<?xml version="1.0" encoding="iso-8859-1"?>
<!-- Generator: Adobe Illustrator 19.0.0, SVG Export Plug-In . SVG Version: 6.00 Build 0)  -->
<svg version="1.1" id="Capa_1" xmlns="http://www.w3.org/2000/svg" xmlns:xlink="http://www.w3.org/1999/xlink" x="0px" y="0px"
	 viewBox="0 0 60 60" style="enable-background:new 0 0 60 60;" xml:space="preserve">
<path d="M59,0H1C0.448,0,0,0.447,0,1v58c0,0.553,0.448,1,1,1h58c0.552,0,1-0.447,1-1V1C60,0.447,59.552,0,59,0z M17,50
	c0,0.553-0.448,1-1,1h-4v3c0,0.553-0.448,1-1,1s-1-0.447-1-1v-3H6c-0.552,0-1-0.447-1-1V38c0-0.553,0.448-1,1-1h4V6
	c0-0.553,0.448-1,1-1s1,0.447,1,1v31h4c0.552,0,1,0.447,1,1V50z M36,36c0,0.553-0.448,1-1,1h-4v17c0,0.553-0.448,1-1,1s-1-0.447-1-1
	V37h-4c-0.552,0-1-0.447-1-1V24c0-0.553,0.448-1,1-1h4V6c0-0.553,0.448-1,1-1s1,0.447,1,1v17h4c0.552,0,1,0.447,1,1V36z M55,22
	c0,0.553-0.448,1-1,1h-4v31c0,0.553-0.448,1-1,1s-1-0.447-1-1V23h-4c-0.552,0-1-0.447-1-1V10c0-0.553,0.448-1,1-1h4V6
	c0-0.553,0.448-1,1-1s1,0.447,1,1v3h4c0.552,0,1,0.447,1,1V22z"/>
<g>
</g>
<g>
</g>
<g>
</g>
<g>
</g>
<g>
</g>
<g>
</g>
<g>
</g>
<g>
</g>
<g>
</g>
<g>
</g>
<g>
</g>
<g>
</g>
<g>
</g>
<g>
</g>
<g>
</g>
</svg>
