<?xml version="1.0" encoding="iso-8859-1"?>
<!-- Generator: Adobe Illustrator 19.0.0, SVG Export Plug-In . SVG Version: 6.00 Build 0)  -->
<svg version="1.1" id="Capa_1" xmlns="http://www.w3.org/2000/svg" xmlns:xlink="http://www.w3.org/1999/xlink" x="0px" y="0px"
	 viewBox="0 0 60 60" style="enable-background:new 0 0 60 60;" xml:space="preserve">
<path d="M59,0H1C0.448,0,0,0.447,0,1v58c0,0.553,0.448,1,1,1h58c0.552,0,1-0.447,1-1V1C60,0.447,59.552,0,59,0z M12,53
	c-3.86,0-7-3.141-7-7c0-3.519,2.613-6.432,6-6.92V8c0-0.553,0.448-1,1-1s1,0.447,1,1v31.08c3.387,0.488,6,3.401,6,6.92
	C19,49.859,15.86,53,12,53z M31,35.92V52c0,0.553-0.448,1-1,1s-1-0.447-1-1V35.92c-3.387-0.488-6-3.401-6-6.92s2.613-6.432,6-6.92V8
	c0-0.553,0.448-1,1-1s1,0.447,1,1v14.08c3.387,0.488,6,3.401,6,6.92S34.387,35.432,31,35.92z M49,20.92V52c0,0.553-0.448,1-1,1
	s-1-0.447-1-1V20.92c-3.387-0.488-6-3.401-6-6.92c0-3.859,3.14-7,7-7s7,3.141,7,7C55,17.519,52.387,20.432,49,20.92z"/>
<g>
</g>
<g>
</g>
<g>
</g>
<g>
</g>
<g>
</g>
<g>
</g>
<g>
</g>
<g>
</g>
<g>
</g>
<g>
</g>
<g>
</g>
<g>
</g>
<g>
</g>
<g>
</g>
<g>
</g>
</svg>
