<?xml version="1.0" encoding="iso-8859-1"?>
<!-- Generator: Adobe Illustrator 19.0.0, SVG Export Plug-In . SVG Version: 6.00 Build 0)  -->
<svg version="1.1" id="Capa_1" xmlns="http://www.w3.org/2000/svg" xmlns:xlink="http://www.w3.org/1999/xlink" x="0px" y="0px"
	 viewBox="0 0 60 60" style="enable-background:new 0 0 60 60;" xml:space="preserve">
<g>
	<path d="M7,4c0-0.553-0.447-1-1-1S5,3.447,5,4v35H0v14h5v3c0,0.553,0.447,1,1,1s1-0.447,1-1v-3h5V39H7V4z M7,49H5
		c-0.553,0-1-0.447-1-1s0.447-1,1-1h2c0.553,0,1,0.447,1,1S7.553,49,7,49z M8,44c0,0.553-0.447,1-1,1H5c-0.553,0-1-0.447-1-1
		s0.447-1,1-1h2C7.553,43,8,43.447,8,44z"/>
	<path d="M23,4c0-0.553-0.447-1-1-1s-1,0.447-1,1v25h-5v14h5v13c0,0.553,0.447,1,1,1s1-0.447,1-1V43h5V29h-5V4z M23,39h-2
		c-0.553,0-1-0.447-1-1s0.447-1,1-1h2c0.553,0,1,0.447,1,1S23.553,39,23,39z M24,34c0,0.553-0.447,1-1,1h-2c-0.553,0-1-0.447-1-1
		s0.447-1,1-1h2C23.553,33,24,33.447,24,34z"/>
	<path d="M39,4c0-0.553-0.447-1-1-1s-1,0.447-1,1v15h-5v14h5v23c0,0.553,0.447,1,1,1s1-0.447,1-1V33h5V19h-5V4z M39,29h-2
		c-0.553,0-1-0.447-1-1s0.447-1,1-1h2c0.553,0,1,0.447,1,1S39.553,29,39,29z M40,24c0,0.553-0.447,1-1,1h-2c-0.553,0-1-0.447-1-1
		s0.447-1,1-1h2C39.553,23,40,23.447,40,24z"/>
	<path d="M60,7h-5V4c0-0.553-0.447-1-1-1s-1,0.447-1,1v3h-5v14h5v35c0,0.553,0.447,1,1,1s1-0.447,1-1V21h5V7z M55,17h-2
		c-0.553,0-1-0.447-1-1s0.447-1,1-1h2c0.553,0,1,0.447,1,1S55.553,17,55,17z M55,13h-2c-0.553,0-1-0.447-1-1s0.447-1,1-1h2
		c0.553,0,1,0.447,1,1S55.553,13,55,13z"/>
</g>
<g>
</g>
<g>
</g>
<g>
</g>
<g>
</g>
<g>
</g>
<g>
</g>
<g>
</g>
<g>
</g>
<g>
</g>
<g>
</g>
<g>
</g>
<g>
</g>
<g>
</g>
<g>
</g>
<g>
</g>
</svg>
