<?xml version="1.0" encoding="iso-8859-1"?>
<!-- Generator: Adobe Illustrator 19.0.0, SVG Export Plug-In . SVG Version: 6.00 Build 0)  -->
<svg version="1.1" id="Capa_1" xmlns="http://www.w3.org/2000/svg" xmlns:xlink="http://www.w3.org/1999/xlink" x="0px" y="0px"
	 viewBox="0 0 59 59" style="enable-background:new 0 0 59 59;" xml:space="preserve">
<g>
	<path d="M38,18.58V3.5c0-0.553-0.447-1-1-1s-1,0.447-1,1v15.08c-3.386,0.488-6,3.401-6,6.92s2.614,6.432,6,6.92V55.5
		c0,0.553,0.447,1,1,1s1-0.447,1-1V32.42c3.386-0.488,6-3.401,6-6.92S41.386,19.068,38,18.58z M38,28.5h-2c-0.553,0-1-0.447-1-1
		s0.447-1,1-1h2c0.553,0,1,0.447,1,1S38.553,28.5,38,28.5z M38,24.5h-2c-0.553,0-1-0.447-1-1s0.447-1,1-1h2c0.553,0,1,0.447,1,1
		S38.553,24.5,38,24.5z"/>
	<path d="M23,30.58V3.5c0-0.553-0.447-1-1-1s-1,0.447-1,1v27.08c-3.386,0.488-6,3.401-6,6.92s2.614,6.432,6,6.92V55.5
		c0,0.553,0.447,1,1,1s1-0.447,1-1V44.42c3.386-0.488,6-3.401,6-6.92S26.386,31.068,23,30.58z M23,40.5h-2c-0.553,0-1-0.447-1-1
		s0.447-1,1-1h2c0.553,0,1,0.447,1,1S23.553,40.5,23,40.5z M23,36.5h-2c-0.553,0-1-0.447-1-1s0.447-1,1-1h2c0.553,0,1,0.447,1,1
		S23.553,36.5,23,36.5z"/>
	<path d="M8,42.58V3.5c0-0.553-0.447-1-1-1s-1,0.447-1,1v39.08c-3.386,0.488-6,3.401-6,6.92c0,3.859,3.141,7,7,7s7-3.141,7-7
		C14,45.981,11.386,43.068,8,42.58z M8,52.5H6c-0.553,0-1-0.447-1-1s0.447-1,1-1h2c0.553,0,1,0.447,1,1S8.553,52.5,8,52.5z M8,48.5
		H6c-0.553,0-1-0.447-1-1s0.447-1,1-1h2c0.553,0,1,0.447,1,1S8.553,48.5,8,48.5z"/>
	<path d="M59,13.5c0-3.519-2.614-6.432-6-6.92V3.5c0-0.553-0.447-1-1-1s-1,0.447-1,1v3.08c-3.386,0.488-6,3.401-6,6.92
		s2.614,6.432,6,6.92V55.5c0,0.553,0.447,1,1,1s1-0.447,1-1V20.42C56.386,19.932,59,17.019,59,13.5z M53,16.5h-2
		c-0.553,0-1-0.447-1-1s0.447-1,1-1h2c0.553,0,1,0.447,1,1S53.553,16.5,53,16.5z M53,12.5h-2c-0.553,0-1-0.447-1-1s0.447-1,1-1h2
		c0.553,0,1,0.447,1,1S53.553,12.5,53,12.5z"/>
</g>
<g>
</g>
<g>
</g>
<g>
</g>
<g>
</g>
<g>
</g>
<g>
</g>
<g>
</g>
<g>
</g>
<g>
</g>
<g>
</g>
<g>
</g>
<g>
</g>
<g>
</g>
<g>
</g>
<g>
</g>
</svg>
