<?xml version="1.0" encoding="iso-8859-1"?>
<!-- Generator: Adobe Illustrator 19.0.0, SVG Export Plug-In . SVG Version: 6.00 Build 0)  -->
<svg version="1.1" id="Capa_1" xmlns="http://www.w3.org/2000/svg" xmlns:xlink="http://www.w3.org/1999/xlink" x="0px" y="0px"
	 viewBox="0 0 60 60" style="enable-background:new 0 0 60 60;" xml:space="preserve">
<path d="M0,1l0,58c0,0.552,0.447,1,1,1h58c0.553,0,1-0.448,1-1V1c0-0.552-0.447-1-1-1L1,0C0.447,0,0,0.448,0,1z M50,43
	c0.553,0,1,0.448,1,1v4h3c0.553,0,1,0.448,1,1s-0.447,1-1,1h-3v4c0,0.552-0.447,1-1,1H38c-0.553,0-1-0.448-1-1v-4H6
	c-0.553,0-1-0.448-1-1s0.447-1,1-1h31v-4c0-0.552,0.447-1,1-1H50z M36,24c0.553,0,1,0.448,1,1v4h17c0.553,0,1,0.448,1,1
	s-0.447,1-1,1H37v4c0,0.552-0.447,1-1,1H24c-0.553,0-1-0.448-1-1v-4H6c-0.553,0-1-0.448-1-1s0.447-1,1-1h17v-4c0-0.552,0.447-1,1-1
	H36z M22,5c0.553,0,1,0.448,1,1v4h31c0.553,0,1,0.448,1,1s-0.447,1-1,1H23v4c0,0.552-0.447,1-1,1H10c-0.553,0-1-0.448-1-1v-4H6
	c-0.553,0-1-0.448-1-1s0.447-1,1-1h3V6c0-0.552,0.447-1,1-1H22z"/>
<g>
</g>
<g>
</g>
<g>
</g>
<g>
</g>
<g>
</g>
<g>
</g>
<g>
</g>
<g>
</g>
<g>
</g>
<g>
</g>
<g>
</g>
<g>
</g>
<g>
</g>
<g>
</g>
<g>
</g>
</svg>
