<?xml version="1.0" encoding="iso-8859-1"?>
<!-- Generator: Adobe Illustrator 19.0.0, SVG Export Plug-In . SVG Version: 6.00 Build 0)  -->
<svg version="1.1" id="Capa_1" xmlns="http://www.w3.org/2000/svg" xmlns:xlink="http://www.w3.org/1999/xlink" x="0px" y="0px"
	 viewBox="0 0 60 60" style="enable-background:new 0 0 60 60;" xml:space="preserve">
<g>
	<path d="M42.241,43.934c-0.016,0.011-0.034,0.018-0.05,0.031c-0.086,0.068-0.161,0.158-0.204,0.28C41.608,45.312,40.632,46,39.5,46
		s-2.108-0.688-2.487-1.755c-0.044-0.123-0.119-0.214-0.206-0.283c-0.013-0.01-0.027-0.016-0.04-0.025
		c-0.073-0.049-0.151-0.08-0.23-0.097c-0.012-0.002-0.024-0.003-0.036-0.005v7.75l3-3l3,3v-7.749
		c-0.014,0.002-0.027,0.003-0.041,0.005C42.385,43.859,42.311,43.889,42.241,43.934z"/>
	<path d="M38.914,0H6.5v60h47V14.586L38.914,0z M31.5,23h7c0.553,0,1,0.447,1,1s-0.447,1-1,1h-7c-0.553,0-1-0.447-1-1
		S30.947,23,31.5,23z M27.5,24c0,0.26-0.11,0.52-0.29,0.7c-0.19,0.199-0.45,0.3-0.71,0.3s-0.521-0.11-0.71-0.29
		C25.6,24.52,25.5,24.26,25.5,24c0-0.261,0.1-0.521,0.29-0.7c0.37-0.38,1.04-0.38,1.42-0.01C27.39,23.479,27.5,23.739,27.5,24z
		 M16.5,15h9c0.553,0,1,0.447,1,1s-0.447,1-1,1h-9c-0.553,0-1-0.447-1-1S15.947,15,16.5,15z M16.5,23h5c0.553,0,1,0.447,1,1
		s-0.447,1-1,1h-5c-0.553,0-1-0.447-1-1S15.947,23,16.5,23z M15.79,31.29c0.38-0.37,1.04-0.37,1.42,0
		c0.189,0.189,0.29,0.449,0.29,0.71c0,0.26-0.101,0.52-0.29,0.71C17.02,32.89,16.76,33,16.5,33s-0.521-0.11-0.71-0.29
		c-0.181-0.19-0.29-0.45-0.29-0.71C15.5,31.729,15.6,31.479,15.79,31.29z M18.306,47.766c-0.031,0.918-1.045,1.262-1.707,0.707
		c-0.935-0.784-1.871-1.567-2.806-2.351c-0.99-0.83,0.433-2.237,1.414-1.415c0.414,0.347,0.828,0.693,1.241,1.04
		c0.268-2.261,1.005-4.441,3.196-5.582c1.142-0.594,2.154,1.132,1.009,1.727C18.483,43.023,18.379,45.599,18.306,47.766z
		 M27.256,46.259c-0.344-0.615-1.86,0.565-2.267,0.717c-0.571,0.213-1.081,0.295-1.688,0.226c-1.169-0.134-2.156-0.89-2.669-1.932
		c-0.568-1.152,1.156-2.166,1.727-1.009c0.955,1.936,2.571,0.28,3.936-0.106c1.046-0.296,2.169,0.165,2.688,1.095
		C29.613,46.376,27.885,47.385,27.256,46.259z M28.5,33h-7c-0.553,0-1-0.447-1-1s0.447-1,1-1h7c0.553,0,1,0.447,1,1
		S29.053,33,28.5,33z M46.745,39.487c-0.233,0.083-0.336,0.259-0.377,0.357c-0.04,0.098-0.093,0.296,0.014,0.521
		c0.392,0.822,0.337,1.77-0.145,2.531c-0.394,0.625-1.037,1.031-1.737,1.171v12.346l-5-5l-5,5V44.066
		c-0.699-0.141-1.343-0.545-1.737-1.169c-0.481-0.763-0.536-1.71-0.145-2.533c0.106-0.224,0.054-0.422,0.014-0.52
		c-0.041-0.099-0.144-0.274-0.377-0.357C31.188,39.108,30.5,38.132,30.5,37s0.688-2.108,1.755-2.487
		c0.233-0.083,0.336-0.259,0.377-0.357c0.04-0.098,0.093-0.296-0.014-0.521c-0.392-0.822-0.337-1.77,0.145-2.532
		c0.699-1.105,2.175-1.557,3.373-0.984c0.295,0.142,0.729,0.055,0.877-0.363C37.392,28.688,38.368,28,39.5,28
		s2.108,0.688,2.487,1.755c0.148,0.418,0.581,0.504,0.878,0.363c1.194-0.569,2.673-0.12,3.372,0.984
		c0.481,0.763,0.536,1.71,0.145,2.533c-0.106,0.224-0.054,0.422-0.014,0.52c0.041,0.099,0.144,0.274,0.377,0.357
		C47.812,34.892,48.5,35.868,48.5,37S47.812,39.108,46.745,39.487z M42.5,24c0-0.261,0.109-0.521,0.29-0.71
		c0.38-0.37,1.04-0.37,1.42,0c0.18,0.189,0.29,0.449,0.29,0.71c0,0.26-0.11,0.52-0.29,0.71C44.02,24.89,43.76,25,43.5,25
		s-0.521-0.11-0.71-0.29C42.609,24.52,42.5,24.26,42.5,24z M36.5,15V1l14,14H36.5z"/>
	<path d="M46.075,36.397c-0.702-0.249-1.269-0.787-1.554-1.476c-0.286-0.689-0.267-1.471,0.054-2.145
		c0.126-0.265,0.054-0.476-0.029-0.606c-0.175-0.276-0.508-0.395-0.822-0.246c-0.358,0.17-0.739,0.256-1.133,0.256
		c-1.115,0-2.115-0.706-2.488-1.756C39.967,30.041,39.636,30,39.5,30s-0.467,0.041-0.603,0.425c-0.373,1.05-1.373,1.756-2.488,1.756
		c-0.394,0-0.774-0.086-1.132-0.256c-0.317-0.148-0.648-0.03-0.823,0.246c-0.083,0.131-0.155,0.342-0.029,0.605
		c0.32,0.675,0.34,1.456,0.054,2.146c-0.285,0.688-0.852,1.227-1.554,1.476C32.541,36.533,32.5,36.864,32.5,37
		s0.041,0.467,0.425,0.603c0.702,0.249,1.269,0.787,1.554,1.476c0.286,0.689,0.267,1.471-0.054,2.145
		c-0.126,0.265-0.054,0.476,0.029,0.606c0.147,0.233,0.406,0.343,0.671,0.287l0.231-0.072c0.278-0.139,0.66-0.226,1.054-0.226
		c1.115,0,2.115,0.706,2.488,1.757C39.033,43.959,39.364,44,39.5,44s0.467-0.041,0.603-0.425c0.373-1.051,1.373-1.757,2.488-1.757
		c0.193,0,0.382,0.022,0.568,0.064c0.056,0.012,0.108,0.038,0.163,0.054c0.117,0.034,0.235,0.064,0.347,0.115l0.218,0.068
		c0.262,0.05,0.514-0.061,0.659-0.29c0.083-0.131,0.155-0.342,0.029-0.605c-0.32-0.675-0.34-1.456-0.054-2.146
		c0.285-0.688,0.852-1.227,1.554-1.476C46.459,37.467,46.5,37.136,46.5,37S46.459,36.533,46.075,36.397z"/>
</g>
<g>
</g>
<g>
</g>
<g>
</g>
<g>
</g>
<g>
</g>
<g>
</g>
<g>
</g>
<g>
</g>
<g>
</g>
<g>
</g>
<g>
</g>
<g>
</g>
<g>
</g>
<g>
</g>
<g>
</g>
</svg>
