<?xml version="1.0" encoding="iso-8859-1"?>
<!-- Generator: Adobe Illustrator 19.0.0, SVG Export Plug-In . SVG Version: 6.00 Build 0)  -->
<svg version="1.1" id="Capa_1" xmlns="http://www.w3.org/2000/svg" xmlns:xlink="http://www.w3.org/1999/xlink" x="0px" y="0px"
	 viewBox="0 0 58 58" style="enable-background:new 0 0 58 58;" xml:space="preserve">
<g>
	<path d="M40.5,0v2h-28c-2.757,0-5,2.243-5,5c0,1.164,0.4,2.236,1.069,3.087C6.255,10.524,4.5,12.561,4.5,15
		c0,1.164,0.4,2.236,1.069,3.087C3.255,18.524,1.5,20.561,1.5,23c0,2.495,1.375,3.662,2.715,4.233C3.165,28.15,2.5,29.499,2.5,31
		c0,2.757,2.243,5,5,5h14.366l-0.729,3.41c-0.973,4.551-0.334,9.717-0.116,11.191C21.539,54.094,24.628,58,27.987,58h0.239
		c1.596,0,4.274-0.909,4.274-7c0-14.82,6.686-15,7-15h0h1v2h16V0H40.5z M54.5,36h-12V2h12V36z"/>
	<path d="M48.5,15c2.757,0,5-2.243,5-5s-2.243-5-5-5s-5,2.243-5,5S45.743,15,48.5,15z"/>
</g>
<g>
</g>
<g>
</g>
<g>
</g>
<g>
</g>
<g>
</g>
<g>
</g>
<g>
</g>
<g>
</g>
<g>
</g>
<g>
</g>
<g>
</g>
<g>
</g>
<g>
</g>
<g>
</g>
<g>
</g>
</svg>
