<?xml version="1.0" encoding="iso-8859-1"?>
<!-- Generator: Adobe Illustrator 19.0.0, SVG Export Plug-In . SVG Version: 6.00 Build 0)  -->
<svg version="1.1" id="Capa_1" xmlns="http://www.w3.org/2000/svg" xmlns:xlink="http://www.w3.org/1999/xlink" x="0px" y="0px"
	 viewBox="0 0 60 60" style="enable-background:new 0 0 60 60;" xml:space="preserve">
<path d="M38.914,0H6.5v60h47V14.586L38.914,0z M32.5,23h7c0.552,0,1,0.447,1,1s-0.448,1-1,1h-7c-0.552,0-1-0.447-1-1
	S31.948,23,32.5,23z M33.5,31c0,0.553-0.448,1-1,1h-10c-0.552,0-1-0.447-1-1s0.448-1,1-1h10C33.052,30,33.5,30.447,33.5,31z
	 M28.21,23.29c0.18,0.189,0.29,0.449,0.29,0.71c0,0.26-0.11,0.52-0.29,0.71C28.02,24.89,27.76,25,27.5,25
	c-0.26,0-0.52-0.11-0.71-0.29c-0.18-0.19-0.29-0.45-0.29-0.71c0-0.261,0.11-0.521,0.29-0.71C27.17,22.92,27.84,22.92,28.21,23.29z
	 M17.5,15h9c0.552,0,1,0.447,1,1s-0.448,1-1,1h-9c-0.552,0-1-0.447-1-1S16.948,15,17.5,15z M17.5,23h5c0.552,0,1,0.447,1,1
	s-0.448,1-1,1h-5c-0.552,0-1-0.447-1-1S16.948,23,17.5,23z M16.79,30.29c0.37-0.37,1.05-0.37,1.42,0
	c0.18,0.189,0.29,0.449,0.29,0.71c0,0.26-0.11,0.52-0.29,0.71C18.02,31.89,17.76,32,17.5,32c-0.26,0-0.52-0.11-0.71-0.29
	c-0.18-0.19-0.29-0.45-0.29-0.71C16.5,30.729,16.61,30.479,16.79,30.29z M18.21,45.71C18.02,45.89,17.77,46,17.5,46
	c-0.26,0-0.52-0.11-0.71-0.29C16.6,45.52,16.5,45.27,16.5,45c0-0.271,0.11-0.53,0.29-0.71c0.38-0.37,1.05-0.37,1.42,0.01
	c0.18,0.18,0.29,0.43,0.29,0.7C18.5,45.26,18.39,45.52,18.21,45.71z M32.5,46h-10c-0.552,0-1-0.447-1-1s0.448-1,1-1h10
	c0.552,0,1,0.447,1,1S33.052,46,32.5,46z M34.5,39h-17c-0.552,0-1-0.447-1-1s0.448-1,1-1h17c0.552,0,1,0.447,1,1S35.052,39,34.5,39z
	 M44.5,46h-7c-0.552,0-1-0.447-1-1s0.448-1,1-1h7c0.552,0,1,0.447,1,1S45.052,46,44.5,46z M38.5,38c0-0.261,0.11-0.521,0.29-0.71
	c0.37-0.37,1.04-0.37,1.42,0c0.18,0.189,0.29,0.449,0.29,0.71c0,0.26-0.11,0.52-0.29,0.71C40.02,38.89,39.77,39,39.5,39
	s-0.52-0.101-0.71-0.29C38.61,38.52,38.5,38.26,38.5,38z M45.21,38.71C45.02,38.89,44.77,39,44.5,39s-0.52-0.11-0.71-0.29
	c-0.18-0.19-0.29-0.45-0.29-0.71c0-0.261,0.11-0.521,0.29-0.71c0.37-0.37,1.05-0.37,1.42,0c0.18,0.189,0.29,0.449,0.29,0.71
	C45.5,38.26,45.39,38.52,45.21,38.71z M44.5,32h-7c-0.552,0-1-0.447-1-1s0.448-1,1-1h7c0.552,0,1,0.447,1,1S45.052,32,44.5,32z
	 M45.21,24.71C45.02,24.89,44.76,25,44.5,25c-0.26,0-0.52-0.11-0.71-0.29c-0.18-0.19-0.29-0.45-0.29-0.71
	c0-0.261,0.11-0.521,0.29-0.71c0.38-0.37,1.04-0.37,1.42,0c0.19,0.189,0.29,0.449,0.29,0.71C45.5,24.26,45.4,24.52,45.21,24.71z
	 M37.5,16V2l14,14H37.5z"/>
<g>
</g>
<g>
</g>
<g>
</g>
<g>
</g>
<g>
</g>
<g>
</g>
<g>
</g>
<g>
</g>
<g>
</g>
<g>
</g>
<g>
</g>
<g>
</g>
<g>
</g>
<g>
</g>
<g>
</g>
</svg>
