<?xml version="1.0" encoding="iso-8859-1"?>
<!-- Generator: Adobe Illustrator 19.0.0, SVG Export Plug-In . SVG Version: 6.00 Build 0)  -->
<svg version="1.1" id="Capa_1" xmlns="http://www.w3.org/2000/svg" xmlns:xlink="http://www.w3.org/1999/xlink" x="0px" y="0px"
	 viewBox="0 0 60 60" style="enable-background:new 0 0 60 60;" xml:space="preserve">
<path d="M30,0C13.458,0,0,13.458,0,30s13.458,30,30,30s30-13.458,30-30S46.542,0,30,0z M46,45H14v-7h32V45z M45.02,35
	c-0.004,0-0.012,0.001-0.02,0H15c-0.371,0-0.711-0.205-0.884-0.533c-0.174-0.327-0.151-0.724,0.058-1.03l15-22
	c0.373-0.547,1.279-0.547,1.652,0l14.904,21.86c0.179,0.181,0.289,0.429,0.289,0.703C46.02,34.553,45.572,35,45.02,35z"/>
<g>
</g>
<g>
</g>
<g>
</g>
<g>
</g>
<g>
</g>
<g>
</g>
<g>
</g>
<g>
</g>
<g>
</g>
<g>
</g>
<g>
</g>
<g>
</g>
<g>
</g>
<g>
</g>
<g>
</g>
</svg>
