<?xml version="1.0" encoding="iso-8859-1"?>
<!-- Generator: Adobe Illustrator 19.0.0, SVG Export Plug-In . SVG Version: 6.00 Build 0)  -->
<svg version="1.1" id="Capa_1" xmlns="http://www.w3.org/2000/svg" xmlns:xlink="http://www.w3.org/1999/xlink" x="0px" y="0px"
	 viewBox="0 0 56 56" style="enable-background:new 0 0 56 56;" xml:space="preserve">
<g>
	<path d="M54.424,28.382c0.101-0.244,0.101-0.519,0-0.764c-0.051-0.123-0.125-0.234-0.217-0.327L42.208,15.293
		c-0.391-0.391-1.023-0.391-1.414,0s-0.391,1.023,0,1.414L51.087,27H20.501c-0.552,0-1,0.447-1,1s0.448,1,1,1h30.586L40.794,39.293
		c-0.391,0.391-0.391,1.023,0,1.414C40.989,40.902,41.245,41,41.501,41s0.512-0.098,0.707-0.293l11.999-11.999
		C54.299,28.616,54.373,28.505,54.424,28.382z"/>
	<path d="M16.501,28c0-2.209,1.791-4,4-4h17V1c0-0.553-0.448-1-1-1h-34c-0.552,0-1,0.447-1,1v54c0,0.553,0.448,1,1,1h34
		c0.552,0,1-0.447,1-1V32h-17C18.292,32,16.501,30.209,16.501,28z"/>
</g>
<g>
</g>
<g>
</g>
<g>
</g>
<g>
</g>
<g>
</g>
<g>
</g>
<g>
</g>
<g>
</g>
<g>
</g>
<g>
</g>
<g>
</g>
<g>
</g>
<g>
</g>
<g>
</g>
<g>
</g>
</svg>
