<?xml version="1.0" encoding="iso-8859-1"?>
<!-- Generator: Adobe Illustrator 19.0.0, SVG Export Plug-In . SVG Version: 6.00 Build 0)  -->
<svg version="1.1" id="Capa_1" xmlns="http://www.w3.org/2000/svg" xmlns:xlink="http://www.w3.org/1999/xlink" x="0px" y="0px"
	 viewBox="0 0 60 60" style="enable-background:new 0 0 60 60;" xml:space="preserve">
<g>
	<path d="M18,9h18c0.553,0,1-0.447,1-1s-0.447-1-1-1H18c-0.553,0-1,0.447-1,1S17.447,9,18,9z"/>
	<path d="M42,12H18c-0.553,0-1,0.447-1,1s0.447,1,1,1h24c0.553,0,1-0.447,1-1S42.553,12,42,12z"/>
	<path d="M42,43H18c-0.553,0-1,0.447-1,1s0.447,1,1,1h24c0.553,0,1-0.447,1-1S42.553,43,42,43z"/>
	<path d="M42,48H18c-0.553,0-1,0.447-1,1s0.447,1,1,1h24c0.553,0,1-0.447,1-1S42.553,48,42,48z"/>
	<g>
		<path d="M51,17V0H9v17H0v34h6v3h3v6h42v-6h3v-3h6V17H51z M11,2h38v15H11V2z M23,28h-3c-0.553,0-1-0.447-1-1s0.447-1,1-1h3
			c0.553,0,1,0.447,1,1S23.553,28,23,28z M24,31c0,0.553-0.447,1-1,1h-3c-0.553,0-1-0.447-1-1s0.447-1,1-1h3
			C23.553,30,24,30.447,24,31z M23,24h-3c-0.553,0-1-0.447-1-1s0.447-1,1-1h3c0.553,0,1,0.447,1,1S23.553,24,23,24z M16,28h-3
			c-0.553,0-1-0.447-1-1s0.447-1,1-1h3c0.553,0,1,0.447,1,1S16.553,28,16,28z M17,31c0,0.553-0.447,1-1,1h-3c-0.553,0-1-0.447-1-1
			s0.447-1,1-1h3C16.553,30,17,30.447,17,31z M16,24h-3c-0.553,0-1-0.447-1-1s0.447-1,1-1h3c0.553,0,1,0.447,1,1S16.553,24,16,24z
			 M9,32H6c-0.553,0-1-0.447-1-1s0.447-1,1-1h3c0.553,0,1,0.447,1,1S9.553,32,9,32z M9,28H6c-0.553,0-1-0.447-1-1s0.447-1,1-1h3
			c0.553,0,1,0.447,1,1S9.553,28,9,28z M9,24H6c-0.553,0-1-0.447-1-1s0.447-1,1-1h3c0.553,0,1,0.447,1,1S9.553,24,9,24z M49,54v4H11
			v-4V37h38V54z M50,32c-2.757,0-5-2.243-5-5s2.243-5,5-5s5,2.243,5,5S52.757,32,50,32z"/>
		<circle cx="50" cy="27" r="3"/>
	</g>
</g>
<g>
</g>
<g>
</g>
<g>
</g>
<g>
</g>
<g>
</g>
<g>
</g>
<g>
</g>
<g>
</g>
<g>
</g>
<g>
</g>
<g>
</g>
<g>
</g>
<g>
</g>
<g>
</g>
<g>
</g>
</svg>
