<?xml version="1.0" encoding="iso-8859-1"?>
<!-- Generator: Adobe Illustrator 19.0.0, SVG Export Plug-In . SVG Version: 6.00 Build 0)  -->
<svg version="1.1" id="Capa_1" xmlns="http://www.w3.org/2000/svg" xmlns:xlink="http://www.w3.org/1999/xlink" x="0px" y="0px"
	 viewBox="0 0 60 60" style="enable-background:new 0 0 60 60;" xml:space="preserve">
<g>
	<polygon points="49,12 49,0 6,0 6,55 9,55 9,3 40,3 	"/>
	<path d="M39.414,5H11v55h43V19.586L39.414,5z M20,17h10c0.552,0,1,0.447,1,1s-0.448,1-1,1H20c-0.552,0-1-0.447-1-1S19.448,17,20,17
		z M45,51H20c-0.552,0-1-0.447-1-1s0.448-1,1-1h25c0.552,0,1,0.447,1,1S45.552,51,45,51z M45,43H20c-0.552,0-1-0.447-1-1
		s0.448-1,1-1h25c0.552,0,1,0.447,1,1S45.552,43,45,43z M45,35H20c-0.552,0-1-0.447-1-1s0.448-1,1-1h25c0.552,0,1,0.447,1,1
		S45.552,35,45,35z M45,27H20c-0.552,0-1-0.447-1-1s0.448-1,1-1h25c0.552,0,1,0.447,1,1S45.552,27,45,27z M38,21V7l14,14H38z"/>
</g>
<g>
</g>
<g>
</g>
<g>
</g>
<g>
</g>
<g>
</g>
<g>
</g>
<g>
</g>
<g>
</g>
<g>
</g>
<g>
</g>
<g>
</g>
<g>
</g>
<g>
</g>
<g>
</g>
<g>
</g>
</svg>
