<?xml version="1.0" encoding="iso-8859-1"?>
<!-- Generator: Adobe Illustrator 19.0.0, SVG Export Plug-In . SVG Version: 6.00 Build 0)  -->
<svg version="1.1" id="Capa_1" xmlns="http://www.w3.org/2000/svg" xmlns:xlink="http://www.w3.org/1999/xlink" x="0px" y="0px"
	 viewBox="0 0 59 59" style="enable-background:new 0 0 59 59;" xml:space="preserve">
<g>
	<path d="M58,57c-4.411,0-8-3.589-8-8c0-0.009-0.005-0.017-0.005-0.026C54.949,43.769,58,36.736,58,29C58,13.01,44.99,0,29,0
		S0,13.01,0,29s13.01,29,29,29c7.34,0,14.048-2.747,19.162-7.26C48.989,55.426,53.081,59,58,59c0.553,0,1-0.447,1-1S58.553,57,58,57
		z M2,29C2,14.112,14.112,2,29,2s27,12.112,27,27S43.888,56,29,56S2,43.888,2,29z"/>
	<path d="M29,4C15.215,4,4,15.215,4,29s11.215,25,25,25s25-11.215,25-25S42.785,4,29,4z M29,10c3.859,0,7,3.141,7,7s-3.141,7-7,7
		s-7-3.141-7-7S25.141,10,29,10z M17,36c-3.859,0-7-3.141-7-7s3.141-7,7-7s7,3.141,7,7S20.859,36,17,36z M29,48
		c-3.859,0-7-3.141-7-7s3.141-7,7-7s7,3.141,7,7S32.859,48,29,48z M41,36c-3.859,0-7-3.141-7-7s3.141-7,7-7s7,3.141,7,7
		S44.859,36,41,36z"/>
	<path d="M29,22c2.795,0,5.137-1.914,5.804-4.501C33.083,16.546,31.106,16,29,16s-4.083,0.546-5.804,1.499
		C23.863,20.086,26.205,22,29,22z"/>
	<path d="M29,36c-2.795,0-5.137,1.914-5.804,4.501C24.917,41.454,26.894,42,29,42s4.083-0.546,5.804-1.499
		C34.137,37.914,31.795,36,29,36z"/>
	<path d="M36,29c0,2.795,1.914,5.137,4.501,5.803C41.454,33.083,42,31.106,42,29s-0.546-4.083-1.499-5.803
		C37.914,23.863,36,26.205,36,29z"/>
	<path d="M17.499,23.197C16.546,24.917,16,26.894,16,29s0.546,4.083,1.499,5.803C20.086,34.137,22,31.795,22,29
		S20.086,23.863,17.499,23.197z"/>
</g>
<g>
</g>
<g>
</g>
<g>
</g>
<g>
</g>
<g>
</g>
<g>
</g>
<g>
</g>
<g>
</g>
<g>
</g>
<g>
</g>
<g>
</g>
<g>
</g>
<g>
</g>
<g>
</g>
<g>
</g>
</svg>
