<?xml version="1.0" encoding="iso-8859-1"?>
<!-- Generator: Adobe Illustrator 19.0.0, SVG Export Plug-In . SVG Version: 6.00 Build 0)  -->
<svg version="1.1" id="Capa_1" xmlns="http://www.w3.org/2000/svg" xmlns:xlink="http://www.w3.org/1999/xlink" x="0px" y="0px"
	 viewBox="0 0 58.999 58.999" style="enable-background:new 0 0 58.999 58.999;" xml:space="preserve">
<g>
	<path d="M57.195,31.901c-0.478-4.887-1.392-11.528-3.039-15.422C49.92,6.469,40.16,0,29.29,0c-3.587,0-7.085,0.701-10.396,2.083
		c-0.948,0.396-1.877,0.833-2.761,1.301c-1.279,0.677-2.575,1.546-3.963,2.657c-6.165,4.937-9.97,12.078-10.438,19.594
		c-0.28,4.494,0.367,9.423,1.942,14.707c0.374,1.021,2.152,6.219,6.52,10.87c-0.013-6.379-0.076-13.283-0.374-15.318
		c-0.159-1.082-0.455-2.169-0.744-3.189c-2.894-10.21,2.32-20.993,12.127-25.084c2.814-1.175,5.793-1.726,8.853-1.606
		c7.994,0.286,16.708,7.035,19.426,15.044c1.968,5.801,2.2,22.181,2.039,32.524c0.005-0.006,0.011-0.01,0.016-0.016
		C58.57,45.752,57.253,32.456,57.195,31.901z"/>
	<path d="M47.506,21.7C45.075,14.535,37.015,8.267,29.904,8.012c-2.753-0.092-5.464,0.392-8.012,1.454
		c-8.873,3.701-13.59,13.457-10.973,22.693c0.308,1.084,0.623,2.242,0.799,3.444c0.349,2.379,0.393,10.443,0.398,17.519
		c1.44,1.239,3.096,2.382,5,3.325c-0.001-2.946-0.002-6.267-0.004-6.452c-0.112-10.965-2.026-17.929-2.046-18
		c-1.822-6.732,0.415-13.679,5.565-17.295c0.451-0.318,1.076-0.208,1.393,0.244c0.317,0.451,0.208,1.075-0.244,1.393
		c-4.463,3.134-6.387,9.213-4.786,15.127c0.083,0.294,2.008,7.304,2.118,18.534c0.002,0.203,0.003,4.204,0.004,7.324
		c1.24,0.477,2.573,0.865,4,1.15c-0.018-11.806-0.647-26.385-1.39-28.64c-1.383-4.199,0.509-8.59,4.4-10.214
		C27.11,19.208,28.146,19,29.207,19c3.221,0,6.112,1.917,7.367,4.883c1.994,4.718,2.579,12.986,2.72,19.093
		c0.013,0.553-0.425,1.011-0.977,1.023c-0.008,0-0.017,0-0.023,0c-0.542,0-0.987-0.433-1-0.977
		c-0.136-5.934-0.69-13.934-2.558-18.353C33.791,22.438,31.622,21,29.207,21c-0.796,0-1.573,0.156-2.312,0.464
		c-2.917,1.217-4.323,4.546-3.27,7.743c0.914,2.78,1.483,18.882,1.49,29.591c1.042,0.125,2.132,0.193,3.269,0.201h1.879
		c0.51-19.9-1.992-31.632-2.019-31.722c-0.153-0.531,0.152-1.085,0.683-1.239c0.533-0.15,1.086,0.152,1.239,0.683
		c0.11,0.382,2.616,12.109,2.099,32.278h2.933h2.018c0.014-2.157-0.022-6.536-0.055-7.971c-0.027-1.187-0.052-2.284-0.047-3.036
		c0.004-0.55,0.451-0.993,1-0.993c0.002,0,0.005,0,0.007,0c0.553,0.004,0.997,0.454,0.993,1.007
		c-0.005,0.737,0.02,1.814,0.046,2.977c0.033,1.438,0.069,5.744,0.055,7.971c1.425-0.064,2.774-0.251,4.043-0.563
		c0.494-15.539,0.267-30.906-2.082-36.455C39.14,17.114,34.441,14,29.207,14c-0.941,0-1.879,0.102-2.786,0.302
		c-0.547,0.112-1.073-0.222-1.192-0.761c-0.119-0.54,0.222-1.073,0.761-1.192C27.038,12.117,28.12,12,29.207,12
		c6.039,0,11.461,3.594,13.813,9.155c2.472,5.84,2.747,20.736,2.259,36.615c1.509-0.571,2.882-1.349,4.124-2.32
		C49.621,45.512,49.504,27.586,47.506,21.7z"/>
</g>
<g>
</g>
<g>
</g>
<g>
</g>
<g>
</g>
<g>
</g>
<g>
</g>
<g>
</g>
<g>
</g>
<g>
</g>
<g>
</g>
<g>
</g>
<g>
</g>
<g>
</g>
<g>
</g>
<g>
</g>
</svg>
