<?xml version="1.0" encoding="iso-8859-1"?>
<!-- Generator: Adobe Illustrator 19.0.0, SVG Export Plug-In . SVG Version: 6.00 Build 0)  -->
<svg version="1.1" id="Capa_1" xmlns="http://www.w3.org/2000/svg" xmlns:xlink="http://www.w3.org/1999/xlink" x="0px" y="0px"
	 viewBox="0 0 60 60" style="enable-background:new 0 0 60 60;" xml:space="preserve">
<path d="M46.714,25l10.61-15.434c0.21-0.306,0.233-0.703,0.061-1.032C57.212,8.206,56.871,8,56.5,8h-30V4c0-0.553-0.447-1-1-1h-21V1
	c0-0.553-0.447-1-1-1s-1,0.447-1,1v3v29v26c0,0.553,0.447,1,1,1s1-0.447,1-1V34h11.026c-0.635,0.838-1.026,1.87-1.026,3
	c0,2.757,2.243,5,5,5h37c0.371,0,0.712-0.206,0.885-0.534c0.173-0.329,0.149-0.727-0.061-1.032L46.714,25z"/>
<g>
</g>
<g>
</g>
<g>
</g>
<g>
</g>
<g>
</g>
<g>
</g>
<g>
</g>
<g>
</g>
<g>
</g>
<g>
</g>
<g>
</g>
<g>
</g>
<g>
</g>
<g>
</g>
<g>
</g>
</svg>
