<?xml version="1.0" encoding="iso-8859-1"?>
<!-- Generator: Adobe Illustrator 19.0.0, SVG Export Plug-In . SVG Version: 6.00 Build 0)  -->
<svg version="1.1" id="Capa_1" xmlns="http://www.w3.org/2000/svg" xmlns:xlink="http://www.w3.org/1999/xlink" x="0px" y="0px"
	 viewBox="0 0 60 60" style="enable-background:new 0 0 60 60;" xml:space="preserve">
<path d="M53.747,35.323L44.17,20l9.668-15.47c0.193-0.309,0.203-0.697,0.027-1.015C53.688,3.197,53.354,3,52.99,3h-45V1
	c0-0.553-0.447-1-1-1s-1,0.447-1,1v3v29v3v23c0,0.553,0.447,1,1,1s1-0.447,1-1V37h45c0.008,0.001,0.016,0,0.02,0
	c0.553,0,1-0.447,1-1C54.01,35.739,53.91,35.502,53.747,35.323z"/>
<g>
</g>
<g>
</g>
<g>
</g>
<g>
</g>
<g>
</g>
<g>
</g>
<g>
</g>
<g>
</g>
<g>
</g>
<g>
</g>
<g>
</g>
<g>
</g>
<g>
</g>
<g>
</g>
<g>
</g>
</svg>
