<?xml version="1.0" encoding="iso-8859-1"?>
<!-- Generator: Adobe Illustrator 19.0.0, SVG Export Plug-In . SVG Version: 6.00 Build 0)  -->
<svg version="1.1" id="Capa_1" xmlns="http://www.w3.org/2000/svg" xmlns:xlink="http://www.w3.org/1999/xlink" x="0px" y="0px"
	 viewBox="0 0 60 60" style="enable-background:new 0 0 60 60;" xml:space="preserve">
<g>
	<path d="M30,25.5c-2.206,0-4,1.794-4,4v5h8v-5C34,27.294,32.206,25.5,30,25.5z"/>
	<path d="M26.515,10.5l-5-7H0v53h60v-37v-2v-7H26.515z M40,51.5H20v-17h4v-5c0-3.309,2.691-6,6-6s6,2.691,6,6v5h4V51.5z M58,17.5
		H31.515l-3.571-5H58V17.5z"/>
	<path d="M30,38.5c-2.206,0-4,1.794-4,4c0,1.859,1.279,3.411,3,3.858V48.5c0,0.553,0.447,1,1,1s1-0.447,1-1v-2.142
		c1.721-0.447,3-1.999,3-3.858C34,40.294,32.206,38.5,30,38.5z M30,44.5c-1.105,0-2-0.896-2-2s0.895-2,2-2s2,0.896,2,2
		S31.105,44.5,30,44.5z"/>
</g>
<g>
</g>
<g>
</g>
<g>
</g>
<g>
</g>
<g>
</g>
<g>
</g>
<g>
</g>
<g>
</g>
<g>
</g>
<g>
</g>
<g>
</g>
<g>
</g>
<g>
</g>
<g>
</g>
<g>
</g>
</svg>
