<?xml version="1.0" encoding="iso-8859-1"?>
<!-- Generator: Adobe Illustrator 19.0.0, SVG Export Plug-In . SVG Version: 6.00 Build 0)  -->
<svg version="1.1" id="Capa_1" xmlns="http://www.w3.org/2000/svg" xmlns:xlink="http://www.w3.org/1999/xlink" x="0px" y="0px"
	 viewBox="0 0 60 60" style="enable-background:new 0 0 60 60;" xml:space="preserve">
<g>
	<rect x="10.044" y="21" width="40" height="4"/>
	<rect x="11.044" y="17" width="38" height="3"/>
	<rect x="12.044" y="13" width="36" height="3"/>
	<path d="M8.044,11h44v14h4V6.768C56.044,5.793,55.251,5,54.277,5H23.611l-2.485-4.141C20.808,0.329,20.227,0,19.61,0H5.812
		C4.837,0,4.044,0.793,4.044,1.768V25h4V11z"/>
	<path d="M59.65,27.443C59.408,27.162,59.057,27,58.685,27H1.316c-0.37,0-0.722,0.161-0.963,0.441
		c-0.242,0.28-0.35,0.651-0.294,1.02L1.76,39H58.24l1.701-10.535C59.997,28.098,59.892,27.726,59.65,27.443z"/>
	<path d="M4.977,58.922C5.074,59.547,5.602,60,6.233,60h47.534c0.632,0,1.16-0.453,1.257-1.081L55.979,53H4.021L4.977,58.922z"/>
	<polygon points="16.568,51 21.74,51 31.74,41 26.568,41 	"/>
	<polygon points="24.568,51 29.74,51 39.74,41 34.568,41 	"/>
	<polygon points="32.568,51 37.74,51 47.74,41 42.568,41 	"/>
	<polygon points="8.568,51 13.74,51 23.74,41 18.568,41 	"/>
	<polygon points="55.74,41 50.568,41 40.568,51 45.74,51 	"/>
	<polygon points="56.302,51 57.791,41.776 48.568,51 	"/>
	<polygon points="2.282,41 3.131,46.608 8.74,41 	"/>
	<polygon points="15.74,41 11.568,41 3.503,49.065 3.796,51 5.74,51 	"/>
</g>
<g>
</g>
<g>
</g>
<g>
</g>
<g>
</g>
<g>
</g>
<g>
</g>
<g>
</g>
<g>
</g>
<g>
</g>
<g>
</g>
<g>
</g>
<g>
</g>
<g>
</g>
<g>
</g>
<g>
</g>
</svg>
