<?xml version="1.0" encoding="iso-8859-1"?>
<!-- Generator: Adobe Illustrator 19.0.0, SVG Export Plug-In . SVG Version: 6.00 Build 0)  -->
<svg version="1.1" id="Capa_1" xmlns="http://www.w3.org/2000/svg" xmlns:xlink="http://www.w3.org/1999/xlink" x="0px" y="0px"
	 viewBox="0 0 60 60" style="enable-background:new 0 0 60 60;" xml:space="preserve">
<g>
	<path d="M59.65,27.443C59.408,27.162,59.057,27,58.685,27H1.316c-0.37,0-0.722,0.161-0.963,0.441
		c-0.242,0.28-0.35,0.651-0.294,1.02l4.918,30.461C5.074,59.547,5.602,60,6.233,60h47.534c0.632,0,1.16-0.453,1.257-1.081
		l4.917-30.454C59.997,28.098,59.892,27.726,59.65,27.443z"/>
	<path d="M8.133,11h44v14h4V6.768C56.133,5.793,55.34,5,54.366,5H23.7l-2.485-4.141C20.897,0.329,20.316,0,19.699,0H5.901
		C4.926,0,4.133,0.793,4.133,1.768V25h4V11z"/>
	<rect x="10.044" y="21" width="40" height="4"/>
	<rect x="11.044" y="17" width="38" height="3"/>
	<rect x="12.044" y="13" width="36" height="3"/>
</g>
<g>
</g>
<g>
</g>
<g>
</g>
<g>
</g>
<g>
</g>
<g>
</g>
<g>
</g>
<g>
</g>
<g>
</g>
<g>
</g>
<g>
</g>
<g>
</g>
<g>
</g>
<g>
</g>
<g>
</g>
</svg>
