<?xml version="1.0" encoding="iso-8859-1"?>
<!-- Generator: Adobe Illustrator 19.0.0, SVG Export Plug-In . SVG Version: 6.00 Build 0)  -->
<svg version="1.1" id="Capa_1" xmlns="http://www.w3.org/2000/svg" xmlns:xlink="http://www.w3.org/1999/xlink" x="0px" y="0px"
	 viewBox="0 0 60 60" style="enable-background:new 0 0 60 60;" xml:space="preserve">
<path d="M57.49,27H54v-7.268C54,18.226,52.774,17,51.268,17H48v-2.414L32.414,0H8v10H2.732C1.226,10,0,11.226,0,12.732v45.23
	l0.058,0.002c0.078,0.367,0.234,0.719,0.471,1.029C1.018,59.634,1.76,60,2.565,60h44.759c1.156,0,2.174-0.779,2.45-1.813L60,30.149
	v-0.177C60,28.25,58.944,27,57.49,27z M31,2.288c0-0.106,0.129-0.16,0.204-0.084l14.592,13.593C45.871,15.872,45.818,16,45.712,16
	H31V2.288z M16,5h10c0.552,0,1,0.447,1,1s-0.448,1-1,1H16c-0.552,0-1-0.447-1-1S15.448,5,16,5z M16,12h10c0.552,0,1,0.447,1,1
	s-0.448,1-1,1H16c-0.552,0-1-0.447-1-1S15.448,12,16,12z M16,19h24c0.552,0,1,0.447,1,1s-0.448,1-1,1H16c-0.552,0-1-0.447-1-1
	S15.448,19,16,19z M10.281,28.813L2,51.526V12.732C2,12.328,2.328,12,2.732,12H8v19l1.666-4.164C9.868,26.331,10.356,26,10.9,26H46
	h2v-7h3.268C51.672,19,52,19.328,52,19.732V27h-5H12.731C11.575,27,10.557,27.779,10.281,28.813z"/>
<g>
</g>
<g>
</g>
<g>
</g>
<g>
</g>
<g>
</g>
<g>
</g>
<g>
</g>
<g>
</g>
<g>
</g>
<g>
</g>
<g>
</g>
<g>
</g>
<g>
</g>
<g>
</g>
<g>
</g>
</svg>
