<?xml version="1.0" encoding="iso-8859-1"?>
<!-- Generator: Adobe Illustrator 19.0.0, SVG Export Plug-In . SVG Version: 6.00 Build 0)  -->
<svg version="1.1" id="Capa_1" xmlns="http://www.w3.org/2000/svg" xmlns:xlink="http://www.w3.org/1999/xlink" x="0px" y="0px"
	 viewBox="0 0 60 60" style="enable-background:new 0 0 60 60;" xml:space="preserve">
<g>
	<path d="M26.515,10.5l-5-7H0v53h60v-37v-2v-7H26.515z M55,51.5H34v-14h21V51.5z M31.515,17.5l-3.571-5H58v5H31.515z"/>
	<path d="M53,39.5H36v10h17V39.5z M47,41.5h1c0.552,0,1,0.447,1,1s-0.448,1-1,1h-1c-0.552,0-1-0.447-1-1S46.448,41.5,47,41.5z
		 M39,41.5h4c0.552,0,1,0.447,1,1s-0.448,1-1,1h-4c-0.552,0-1-0.447-1-1S38.448,41.5,39,41.5z M50,47.5H39c-0.552,0-1-0.447-1-1
		s0.448-1,1-1h11c0.552,0,1,0.447,1,1S50.552,47.5,50,47.5z"/>
</g>
<g>
</g>
<g>
</g>
<g>
</g>
<g>
</g>
<g>
</g>
<g>
</g>
<g>
</g>
<g>
</g>
<g>
</g>
<g>
</g>
<g>
</g>
<g>
</g>
<g>
</g>
<g>
</g>
<g>
</g>
</svg>
