<?xml version="1.0" encoding="iso-8859-1"?>
<!-- Generator: Adobe Illustrator 19.0.0, SVG Export Plug-In . SVG Version: 6.00 Build 0)  -->
<svg version="1.1" id="Capa_1" xmlns="http://www.w3.org/2000/svg" xmlns:xlink="http://www.w3.org/1999/xlink" x="0px" y="0px"
	 viewBox="0 0 58.001 58.001" style="enable-background:new 0 0 58.001 58.001;" xml:space="preserve">
<path d="M54.001,22.5v-10H52v-4H25l-2-4h-2H2.732C1.226,4.5,0,5.726,0,7.233V52.5l0.001-0.002V52.5c0,0.734-0.047,1,0.565,1h44.759
	c1.156,0,2.174-0.779,2.45-1.813L58.001,23.5c0,0,0-0.625,0-1H54.001z M50,10.5v2H26.001H25H7v2H5v-4H50z M8.001,15.914V18.5H5.415
	L8.001,15.914z M52.001,21.5h-8v-3c0-0.553-0.448-1-1-1s-1,0.447-1,1v3h-5v-3c0-0.553-0.448-1-1-1s-1,0.447-1,1v3h-5v-3
	c0-0.553-0.448-1-1-1s-1,0.447-1,1v3h-5v-3c0-0.553-0.448-1-1-1s-1,0.447-1,1v3h-5v-3c0-0.553-0.448-1-1-1s-1,0.447-1,1v3h-2.269
	c-1.157,0-2.175,0.779-2.45,1.813L4.001,37.793V20.5h6v-6h42V21.5z"/>
<g>
</g>
<g>
</g>
<g>
</g>
<g>
</g>
<g>
</g>
<g>
</g>
<g>
</g>
<g>
</g>
<g>
</g>
<g>
</g>
<g>
</g>
<g>
</g>
<g>
</g>
<g>
</g>
<g>
</g>
</svg>
