<?xml version="1.0" encoding="iso-8859-1"?>
<!-- Generator: Adobe Illustrator 19.0.0, SVG Export Plug-In . SVG Version: 6.00 Build 0)  -->
<svg version="1.1" id="Capa_1" xmlns="http://www.w3.org/2000/svg" xmlns:xlink="http://www.w3.org/1999/xlink" x="0px" y="0px"
	 viewBox="0 0 59.911 59.911" style="enable-background:new 0 0 59.911 59.911;" xml:space="preserve">
<g>
	<path d="M59.605,26.399c-0.241-0.281-0.593-0.443-0.965-0.443H1.271c-0.37,0-0.722,0.161-0.963,0.441
		c-0.242,0.28-0.35,0.651-0.294,1.02l4.918,30.461c0.097,0.625,0.625,1.078,1.256,1.078h47.534c0.632,0,1.16-0.453,1.257-1.081
		l4.917-30.454C59.953,27.053,59.847,26.681,59.605,26.399z"/>
	<path d="M8,14.956h44v9h4V7.723c0-0.975-0.793-1.768-1.768-1.768H23.566l-2.485-4.141c-0.317-0.53-0.898-0.859-1.516-0.859H5.768
		C4.793,0.956,4,1.749,4,2.723v21.232h4V14.956z"/>
</g>
<g>
</g>
<g>
</g>
<g>
</g>
<g>
</g>
<g>
</g>
<g>
</g>
<g>
</g>
<g>
</g>
<g>
</g>
<g>
</g>
<g>
</g>
<g>
</g>
<g>
</g>
<g>
</g>
<g>
</g>
</svg>
