<?xml version="1.0" encoding="iso-8859-1"?>
<!-- Generator: Adobe Illustrator 19.0.0, SVG Export Plug-In . SVG Version: 6.00 Build 0)  -->
<svg version="1.1" id="Capa_1" xmlns="http://www.w3.org/2000/svg" xmlns:xlink="http://www.w3.org/1999/xlink" x="0px" y="0px"
	 viewBox="0 0 60 60" style="enable-background:new 0 0 60 60;" xml:space="preserve">
<g>
	<path d="M36,49.5h17v-10H36V49.5z M47,41.5h1c0.552,0,1,0.447,1,1s-0.448,1-1,1h-1c-0.552,0-1-0.447-1-1S46.448,41.5,47,41.5z
		 M39,41.5h4c0.552,0,1,0.447,1,1s-0.448,1-1,1h-4c-0.552,0-1-0.447-1-1S38.448,41.5,39,41.5z M39,45.5h11c0.552,0,1,0.447,1,1
		s-0.448,1-1,1H39c-0.552,0-1-0.447-1-1S38.448,45.5,39,45.5z"/>
	<path d="M56.981,11.5H28.019V6.52c0-1.665-1.354-3.02-3.019-3.02H3.019C1.354,3.5,0,4.854,0,6.52V20.5h60v-5.98
		C60,12.854,58.646,11.5,56.981,11.5z"/>
	<path d="M0,53.48c0,1.665,1.354,3.02,3.019,3.02h53.962c1.665,0,3.019-1.354,3.019-3.02V22.5H0V53.48z M34,37.5h21v14H34V37.5z"/>
</g>
<g>
</g>
<g>
</g>
<g>
</g>
<g>
</g>
<g>
</g>
<g>
</g>
<g>
</g>
<g>
</g>
<g>
</g>
<g>
</g>
<g>
</g>
<g>
</g>
<g>
</g>
<g>
</g>
<g>
</g>
</svg>
