<?xml version="1.0" encoding="iso-8859-1"?>
<!-- Generator: Adobe Illustrator 19.0.0, SVG Export Plug-In . SVG Version: 6.00 Build 0)  -->
<svg version="1.1" id="Capa_1" xmlns="http://www.w3.org/2000/svg" xmlns:xlink="http://www.w3.org/1999/xlink" x="0px" y="0px"
	 viewBox="0 0 52 52" style="enable-background:new 0 0 52 52;" xml:space="preserve">
<path d="M44.385,7.615C39.475,2.705,32.945,0,26,0S12.525,2.705,7.615,7.615S0,19.055,0,26s2.705,13.475,7.615,18.385
	S19.055,52,26,52s13.475-2.705,18.385-7.615S52,32.945,52,26S49.295,12.525,44.385,7.615z M9.029,9.029C13.562,4.496,19.589,2,26,2
	c5.739,0,11.167,2.006,15.494,5.677L7.677,41.494C4.006,37.167,2,31.74,2,26C2,19.589,4.496,13.563,9.029,9.029z M42.971,42.971
	C38.437,47.504,32.411,50,26,50c-5.739,0-11.167-2.006-15.494-5.677l33.817-33.817C47.994,14.833,50,20.26,50,26
	C50,32.411,47.504,38.438,42.971,42.971z"/>
<g>
</g>
<g>
</g>
<g>
</g>
<g>
</g>
<g>
</g>
<g>
</g>
<g>
</g>
<g>
</g>
<g>
</g>
<g>
</g>
<g>
</g>
<g>
</g>
<g>
</g>
<g>
</g>
<g>
</g>
</svg>
