<?xml version="1.0" encoding="iso-8859-1"?>
<!-- Generator: Adobe Illustrator 19.0.0, SVG Export Plug-In . SVG Version: 6.00 Build 0)  -->
<svg version="1.1" id="Capa_1" xmlns="http://www.w3.org/2000/svg" xmlns:xlink="http://www.w3.org/1999/xlink" x="0px" y="0px"
	 viewBox="0 0 60 60" style="enable-background:new 0 0 60 60;" xml:space="preserve">
<path d="M49.416,10.199c-0.572-0.759-1.405-1.25-2.346-1.382l-9.352-1.314l0.417-2.971c0.111-0.791-0.093-1.58-0.577-2.222
	s-1.185-1.056-1.977-1.167L27.661,0.03c-1.657-0.234-3.163,0.944-3.388,2.553l-0.418,2.971L14.504,4.24
	c-1.964-0.278-3.75,1.118-4.017,3.026l-0.619,4.401l8.353,1.174l-5.855,5.855c-0.09,0.09-0.142,0.199-0.201,0.305h-1.032v37.271
	c0,2.057,1.673,3.729,3.729,3.729h28.541c2.057,0,3.729-1.673,3.729-3.729V19h-5v-2.799l7.347,1.032l0.618-4.399
	C50.229,11.893,49.988,10.957,49.416,10.199z M26.253,2.861c0.075-0.535,0.571-0.932,1.129-0.851l7.922,1.113
	c0.262,0.037,0.496,0.176,0.658,0.391c0.162,0.214,0.23,0.477,0.193,0.738l-0.417,2.971l-9.903-1.392L26.253,2.861z M14.89,19
	l3.586-3.586L22.061,19H14.89z M26.132,19v-1h6v1H26.132z M37.132,19v-1h3v1H37.132z M35.132,16v3h-1v-3h-10v2.243l-5.319-5.319
	L40.702,16H35.132z"/>
<g>
</g>
<g>
</g>
<g>
</g>
<g>
</g>
<g>
</g>
<g>
</g>
<g>
</g>
<g>
</g>
<g>
</g>
<g>
</g>
<g>
</g>
<g>
</g>
<g>
</g>
<g>
</g>
<g>
</g>
</svg>
