<?xml version="1.0" encoding="iso-8859-1"?>
<!-- Generator: Adobe Illustrator 19.0.0, SVG Export Plug-In . SVG Version: 6.00 Build 0)  -->
<svg version="1.1" id="Capa_1" xmlns="http://www.w3.org/2000/svg" xmlns:xlink="http://www.w3.org/1999/xlink" x="0px" y="0px"
	 viewBox="0 0 59.003 59.003" style="enable-background:new 0 0 59.003 59.003;" xml:space="preserve">
<g>
	<path d="M42.242,11.003c0.815-1.165,1.259-2.549,1.259-4.007c0-1.875-0.726-3.633-2.043-4.95c-2.729-2.729-7.17-2.729-9.899,0
		l-2.829,2.829l-2.828-2.829c-1.317-1.317-3.075-2.043-4.95-2.043s-3.632,0.726-4.95,2.043s-2.043,3.075-2.043,4.95
		c0,1.458,0.444,2.842,1.259,4.007H0.502v14h27h1h30v-14H42.242z M32.973,3.46c1.95-1.949,5.122-1.949,7.071,0
		c0.939,0.94,1.457,2.195,1.457,3.536c0,1.34-0.518,2.596-1.457,3.535l-0.472,0.472h-8.071h-3h-1h0H25.43l4.714-4.714l0,0
		L32.973,3.46z M17.417,10.532c-0.939-0.939-1.457-2.195-1.457-3.535c0-1.341,0.518-2.596,1.457-3.536
		c0.94-0.939,2.195-1.457,3.536-1.457s2.596,0.518,3.536,1.457l2.828,2.829l-3.535,3.535c-0.207,0.207-0.397,0.441-0.581,0.689
		c-0.054,0.073-0.107,0.152-0.159,0.229c-0.06,0.088-0.123,0.167-0.18,0.26h-4.972L17.417,10.532z"/>
	<rect x="5.502" y="44.003" width="23" height="15"/>
	<rect x="30.502" y="44.003" width="23" height="15"/>
	<rect x="30.502" y="27.003" width="23" height="15"/>
	<rect x="5.502" y="27.003" width="23" height="15"/>
</g>
<g>
</g>
<g>
</g>
<g>
</g>
<g>
</g>
<g>
</g>
<g>
</g>
<g>
</g>
<g>
</g>
<g>
</g>
<g>
</g>
<g>
</g>
<g>
</g>
<g>
</g>
<g>
</g>
<g>
</g>
</svg>
