<?xml version="1.0" encoding="iso-8859-1"?>
<!-- Generator: Adobe Illustrator 19.0.0, SVG Export Plug-In . SVG Version: 6.00 Build 0)  -->
<svg version="1.1" id="Capa_1" xmlns="http://www.w3.org/2000/svg" xmlns:xlink="http://www.w3.org/1999/xlink" x="0px" y="0px"
	 viewBox="0 0 58 58" style="enable-background:new 0 0 58 58;" xml:space="preserve">
<g>
	<path d="M56.925,21.196c-0.001-0.005,0.001-0.011-0.001-0.016c-0.002-0.008-0.008-0.013-0.01-0.02
		c-0.617-2.194-1.498-4.276-2.586-6.228c0.178,0.164,0.411,0.269,0.672,0.269c0.552,0,1-0.447,1-1v-0.977c0-0.553-0.448-1-1-1
		s-1,0.447-1,1v0.977c0,0.06,0.024,0.111,0.034,0.168c-0.151-0.257-0.304-0.513-0.463-0.765c-0.025-0.039-0.063-0.062-0.092-0.096
		c-0.621-0.978-1.298-1.916-2.028-2.81c-0.025-0.041-0.035-0.087-0.067-0.125c-0.199-0.241-0.401-0.479-0.607-0.713
		c-0.019-0.021-0.044-0.03-0.064-0.049c-0.793-0.896-1.639-1.743-2.536-2.535c-0.018-0.018-0.025-0.042-0.045-0.059
		c-0.234-0.205-0.471-0.407-0.711-0.604c-0.036-0.03-0.08-0.04-0.119-0.064c-0.896-0.732-1.836-1.409-2.816-2.031
		c-0.035-0.029-0.058-0.067-0.097-0.092c-0.252-0.158-0.508-0.313-0.765-0.463C43.687,3.975,43.745,4,43.812,4h0.977
		c0.552,0,1-0.447,1-1s-0.448-1-1-1h-0.977c-0.552,0-1,0.447-1,1c0,0.266,0.108,0.504,0.277,0.683
		c-1.958-1.094-4.048-1.979-6.25-2.598c-0.006-0.001-0.01-0.006-0.017-0.008c-0.004-0.001-0.009,0-0.013,0
		C34.322,0.38,31.705,0,29,0s-5.322,0.38-7.808,1.077c-0.005,0.001-0.009,0-0.013,0c-0.006,0.001-0.01,0.006-0.017,0.008
		c-2.195,0.617-4.278,1.499-6.23,2.587C15.096,3.494,15.201,3.261,15.201,3c0-0.553-0.448-1-1-1h-0.977c-0.552,0-1,0.447-1,1
		s0.448,1,1,1h0.977c0.06,0,0.112-0.024,0.169-0.034c-0.258,0.151-0.513,0.305-0.766,0.464c-0.039,0.025-0.062,0.063-0.096,0.092
		c-0.979,0.622-1.917,1.299-2.812,2.03c-0.04,0.024-0.085,0.034-0.122,0.065c-0.241,0.198-0.479,0.4-0.713,0.607
		C9.841,7.241,9.833,7.265,9.815,7.283C8.918,8.076,8.07,8.924,7.277,9.821C7.259,9.839,7.235,9.847,7.218,9.866
		c-0.206,0.234-0.408,0.472-0.607,0.713c-0.031,0.037-0.041,0.083-0.065,0.123c-0.73,0.894-1.406,1.832-2.027,2.81
		c-0.03,0.035-0.069,0.058-0.094,0.098c-0.158,0.252-0.312,0.507-0.463,0.765C3.975,14.313,4,14.255,4,14.188v-0.977
		c0-0.553-0.448-1-1-1s-1,0.447-1,1v0.977c0,0.553,0.448,1,1,1c0.266,0,0.504-0.107,0.683-0.277
		c-1.093,1.957-1.978,4.046-2.597,6.248c-0.002,0.008-0.008,0.013-0.01,0.02c-0.001,0.005,0.001,0.011-0.001,0.016
		C0.38,23.681,0,26.296,0,29s0.38,5.319,1.075,7.804c0.001,0.005-0.001,0.011,0.001,0.016c0.002,0.009,0.008,0.016,0.011,0.025
		c0.617,2.192,1.498,4.273,2.585,6.223C3.494,42.904,3.261,42.799,3,42.799c-0.552,0-1,0.447-1,1v0.977c0,0.553,0.448,1,1,1
		s1-0.447,1-1v-0.977c0-0.059-0.024-0.11-0.034-0.167c0.15,0.256,0.304,0.512,0.462,0.763c0.038,0.061,0.086,0.112,0.134,0.162
		c0.61,0.955,1.273,1.871,1.987,2.745c0.025,0.041,0.035,0.087,0.067,0.125c0.199,0.241,0.401,0.479,0.607,0.713
		c0.017,0.019,0.041,0.026,0.059,0.043c0.794,0.898,1.643,1.747,2.541,2.54c0.018,0.018,0.026,0.042,0.045,0.059
		c0.234,0.205,0.471,0.407,0.711,0.604c0.041,0.034,0.089,0.05,0.134,0.076c0.891,0.727,1.826,1.401,2.801,2.019
		c0.035,0.029,0.058,0.067,0.097,0.092c0.252,0.158,0.508,0.313,0.765,0.463C14.313,54.025,14.255,54,14.188,54h-0.977
		c-0.552,0-1,0.447-1,1s0.448,1,1,1h0.977c0.552,0,1-0.447,1-1c0-0.266-0.108-0.504-0.277-0.683c1.958,1.094,4.047,1.979,6.25,2.598
		c0.006,0.001,0.01,0.006,0.017,0.008c0.007,0.002,0.013,0.001,0.02,0.002C23.683,57.62,26.297,58,29,58s5.317-0.38,7.801-1.075
		c0.007-0.001,0.013-0.001,0.02-0.002c0.006-0.001,0.01-0.006,0.017-0.008c2.195-0.617,4.278-1.499,6.23-2.587
		c-0.164,0.178-0.269,0.411-0.269,0.672c0,0.553,0.448,1,1,1h0.977c0.552,0,1-0.447,1-1s-0.448-1-1-1h-0.977
		c-0.06,0-0.112,0.024-0.169,0.034c0.258-0.151,0.513-0.305,0.766-0.464c0.039-0.025,0.062-0.063,0.096-0.092
		c0.973-0.618,1.907-1.291,2.797-2.018c0.045-0.027,0.095-0.043,0.137-0.077c0.241-0.198,0.479-0.4,0.713-0.607
		c0.02-0.017,0.028-0.042,0.046-0.06c0.899-0.795,1.748-1.644,2.542-2.543c0.016-0.016,0.039-0.022,0.054-0.04
		c0.206-0.234,0.408-0.472,0.607-0.713c0.031-0.037,0.041-0.083,0.065-0.123c0.714-0.875,1.377-1.791,1.986-2.746
		c0.049-0.05,0.096-0.102,0.135-0.163c0.158-0.252,0.312-0.507,0.463-0.765C54.025,43.688,54,43.745,54,43.812v0.977
		c0,0.553,0.448,1,1,1s1-0.447,1-1v-0.977c0-0.553-0.448-1-1-1c-0.266,0-0.504,0.107-0.683,0.277
		c1.093-1.956,1.977-4.043,2.596-6.243c0.003-0.009,0.009-0.016,0.011-0.025c0.001-0.005-0.001-0.011,0.001-0.016
		C57.62,34.319,58,31.704,58,29S57.62,23.681,56.925,21.196z M29,2c2.194,0,4.325,0.27,6.368,0.766l-2.777,11.11
		C31.436,13.601,30.238,13.44,29,13.44s-2.436,0.161-3.591,0.435l-2.777-11.11C24.675,2.27,26.806,2,29,2z M2,29
		c0-2.194,0.269-4.325,0.766-6.368l11.109,2.777C13.601,26.564,13.44,27.762,13.44,29s0.161,2.436,0.435,3.591L2.766,35.368
		C2.269,33.325,2,31.194,2,29z M29,56c-2.194,0-4.325-0.27-6.368-0.766l2.777-11.11c1.155,0.274,2.353,0.435,3.591,0.435
		s2.436-0.161,3.591-0.435l2.777,11.11C33.325,55.73,31.194,56,29,56z M29,42.56c-7.477,0-13.56-6.083-13.56-13.56
		S21.523,15.44,29,15.44S42.56,21.523,42.56,29S36.477,42.56,29,42.56z M55.234,35.368l-11.109-2.777
		c0.274-1.155,0.435-2.353,0.435-3.591s-0.161-2.436-0.435-3.591l11.109-2.777C55.731,24.675,56,26.806,56,29
		S55.731,33.325,55.234,35.368z"/>
	<path d="M3.958,5.639c0.292,0,0.583-0.128,0.78-0.373c0.159-0.198,0.339-0.378,0.534-0.533c0.432-0.345,0.503-0.974,0.159-1.405
		C5.086,2.895,4.457,2.824,4.025,3.168C3.715,3.416,3.43,3.699,3.179,4.012C2.833,4.442,2.901,5.072,3.332,5.418
		C3.516,5.566,3.737,5.639,3.958,5.639z"/>
	<path d="M8.339,4h0.977c0.552,0,1-0.447,1-1s-0.448-1-1-1H8.339c-0.552,0-1,0.447-1,1S7.787,4,8.339,4z"/>
	<path d="M3,10.304c0.552,0,1-0.447,1-1V8.326c0-0.553-0.448-1-1-1s-1,0.447-1,1v0.978C2,9.856,2.448,10.304,3,10.304z"/>
	<path d="M48.696,4h0.977c0.552,0,1-0.447,1-1s-0.448-1-1-1h-0.977c-0.552,0-1,0.447-1,1S48.144,4,48.696,4z"/>
	<path d="M53.268,5.271c0.198,0.248,0.489,0.377,0.783,0.377c0.219,0,0.438-0.071,0.623-0.218c0.432-0.345,0.503-0.974,0.159-1.405
		c-0.249-0.312-0.533-0.597-0.845-0.848c-0.43-0.344-1.06-0.276-1.406,0.154c-0.346,0.431-0.277,1.061,0.154,1.406
		C52.932,4.896,53.111,5.075,53.268,5.271z"/>
	<path d="M54,8.339v0.978c0,0.553,0.448,1,1,1s1-0.447,1-1V8.339c0-0.553-0.448-1-1-1S54,7.786,54,8.339z"/>
	<path d="M55,47.696c-0.552,0-1,0.447-1,1v0.978c0,0.553,0.448,1,1,1s1-0.447,1-1v-0.978C56,48.144,55.552,47.696,55,47.696z"/>
	<path d="M49.661,54h-0.977c-0.552,0-1,0.447-1,1s0.448,1,1,1h0.977c0.552,0,1-0.447,1-1S50.213,54,49.661,54z"/>
	<path d="M53.263,52.734c-0.159,0.198-0.339,0.378-0.534,0.533c-0.432,0.345-0.503,0.974-0.159,1.405
		c0.198,0.248,0.489,0.377,0.783,0.377c0.219,0,0.438-0.071,0.623-0.218c0.311-0.248,0.596-0.531,0.847-0.844
		c0.346-0.431,0.278-1.061-0.153-1.406C54.239,52.237,53.609,52.306,53.263,52.734z"/>
	<path d="M9.304,54H8.327c-0.552,0-1,0.447-1,1s0.448,1,1,1h0.977c0.552,0,1-0.447,1-1S9.856,54,9.304,54z"/>
	<path d="M4,49.661v-0.978c0-0.553-0.448-1-1-1s-1,0.447-1,1v0.978c0,0.553,0.448,1,1,1S4,50.214,4,49.661z"/>
	<path d="M4.732,52.729c-0.345-0.433-0.974-0.502-1.405-0.159c-0.432,0.345-0.503,0.974-0.159,1.405
		c0.249,0.312,0.533,0.597,0.845,0.848c0.185,0.147,0.406,0.22,0.625,0.22c0.292,0,0.583-0.128,0.78-0.374
		c0.346-0.431,0.277-1.061-0.154-1.406C5.068,53.104,4.889,52.925,4.732,52.729z"/>
</g>
<g>
</g>
<g>
</g>
<g>
</g>
<g>
</g>
<g>
</g>
<g>
</g>
<g>
</g>
<g>
</g>
<g>
</g>
<g>
</g>
<g>
</g>
<g>
</g>
<g>
</g>
<g>
</g>
<g>
</g>
</svg>
