<?xml version="1.0" encoding="iso-8859-1"?>
<!-- Generator: Adobe Illustrator 19.0.0, SVG Export Plug-In . SVG Version: 6.00 Build 0)  -->
<svg version="1.1" id="Capa_1" xmlns="http://www.w3.org/2000/svg" xmlns:xlink="http://www.w3.org/1999/xlink" x="0px" y="0px"
	 viewBox="0 0 54 54" style="enable-background:new 0 0 54 54;" xml:space="preserve">
<g>
	<circle cx="34" cy="30" r="1"/>
	<circle cx="36" cy="19" r="1"/>
	<circle cx="40" cy="19" r="1"/>
	<circle cx="38" cy="17" r="1"/>
	<circle cx="40" cy="15" r="1"/>
	<circle cx="36" cy="23" r="1"/>
	<circle cx="34" cy="21" r="1"/>
	<circle cx="38" cy="21" r="1"/>
	<circle cx="34" cy="33" r="1"/>
	<circle cx="34" cy="36" r="1"/>
	<circle cx="34" cy="39" r="1"/>
	<circle cx="34" cy="42" r="1"/>
	<circle cx="34" cy="45" r="1"/>
	<path d="M25,7h-5c-1.104,0-2,0.896-2,2s0.896,2,2,2h5c1.104,0,2-0.896,2-2S26.104,7,25,7z"/>
	<path d="M25,14H15c-1.104,0-2,0.896-2,2s0.896,2,2,2h10c1.104,0,2-0.896,2-2S26.104,14,25,14z"/>
	<path d="M25,21H10c-1.104,0-2,0.896-2,2s0.896,2,2,2h15c1.104,0,2-0.896,2-2S26.104,21,25,21z"/>
	<path d="M25,28H6c-1.104,0-2,0.896-2,2s0.896,2,2,2h19c1.104,0,2-0.896,2-2S26.104,28,25,28z"/>
	<path d="M25,35H12c-1.104,0-2,0.896-2,2s0.896,2,2,2h13c1.104,0,2-0.896,2-2S26.104,35,25,35z"/>
	<path d="M25,42h-7c-1.104,0-2,0.896-2,2s0.896,2,2,2h7c1.104,0,2-0.896,2-2S26.104,42,25,42z"/>
	<path d="M50,9V0H31c-1.104,0-2,0.896-2,2s0.896,2,2,2h15v5c0,7.082-4.22,13.417-10.752,16.147c-0.128,0.052-0.25,0.118-0.365,0.196
		c-0.033,0.022-0.06,0.05-0.091,0.073c-0.072,0.054-0.144,0.109-0.208,0.173c-0.041,0.042-0.074,0.089-0.112,0.134
		c-0.046,0.055-0.094,0.106-0.135,0.167c-0.049,0.074-0.087,0.155-0.126,0.234c-0.018,0.036-0.042,0.068-0.058,0.106
		c-0.001,0.002-0.001,0.004-0.002,0.005c-0.05,0.121-0.088,0.246-0.114,0.375c-0.012,0.059-0.012,0.119-0.018,0.178
		C34.013,26.859,34,26.929,34,27s0.012,0.141,0.02,0.211c0.006,0.06,0.007,0.119,0.018,0.178c0.026,0.129,0.064,0.254,0.114,0.375
		c0.001,0.002,0.001,0.004,0.002,0.005c0.002,0.006,0.007,0.01,0.009,0.015c0.068,0.158,0.161,0.304,0.268,0.441
		c0.026,0.033,0.051,0.066,0.079,0.098c0.112,0.127,0.237,0.243,0.383,0.34c0.021,0.014,0.044,0.022,0.065,0.035
		c0.088,0.054,0.176,0.107,0.274,0.148C41.773,31.571,46,37.912,46,45v5H31c-1.104,0-2,0.896-2,2s0.896,2,2,2h19v-9
		c0-7.377-3.736-14.083-9.761-18C46.264,23.083,50,16.377,50,9z"/>
</g>
<g>
</g>
<g>
</g>
<g>
</g>
<g>
</g>
<g>
</g>
<g>
</g>
<g>
</g>
<g>
</g>
<g>
</g>
<g>
</g>
<g>
</g>
<g>
</g>
<g>
</g>
<g>
</g>
<g>
</g>
</svg>
