<?xml version="1.0" encoding="iso-8859-1"?>
<!-- Generator: Adobe Illustrator 19.0.0, SVG Export Plug-In . SVG Version: 6.00 Build 0)  -->
<svg version="1.1" id="Capa_1" xmlns="http://www.w3.org/2000/svg" xmlns:xlink="http://www.w3.org/1999/xlink" x="0px" y="0px"
	 viewBox="0 0 60 60" style="enable-background:new 0 0 60 60;" xml:space="preserve">
<g>
	<path d="M47,4h-12l1.8-2.4c0.332-0.441,0.242-1.068-0.2-1.399c-0.443-0.331-1.069-0.242-1.4,0.2L32.5,4h-4.882l-1.724-3.447
		c-0.247-0.494-0.846-0.692-1.342-0.447c-0.494,0.247-0.694,0.848-0.447,1.342L25.382,4H13c-1.654,0-3,1.346-3,3v50
		c0,1.654,1.346,3,3,3h34c1.654,0,3-1.346,3-3V7C50,5.346,48.654,4,47,4z M48,57c0,0.552-0.448,1-1,1H13c-0.551,0-1-0.448-1-1V7
		c0-0.552,0.449-1,1-1h13.382l1,2C26.542,8.734,26,9.799,26,11c0,2.206,1.794,4,4,4s4-1.794,4-4s-1.794-4-4-4
		c-0.287,0-0.566,0.033-0.836,0.091L28.618,6H47c0.552,0,1,0.448,1,1V57z M28.332,9.9l0.773,1.547
		C29.281,11.798,29.634,12,30.001,12c0.15,0,0.303-0.034,0.446-0.105c0.494-0.247,0.694-0.848,0.447-1.342l-0.77-1.54
		C31.168,9.078,32,9.94,32,11c0,1.103-0.897,2-2,2s-2-0.897-2-2C28,10.594,28.123,10.216,28.332,9.9z"/>
	<path d="M30,23c-7.72,0-14,6.281-14,14s6.28,14,14,14s14-6.281,14-14S37.72,23,30,23z M38.535,42.98
		c-2.043,2.718-5.154,4.277-8.535,4.277s-6.492-1.558-8.535-4.277l-0.686-0.912l4.833-1.61c-0.354-0.688-0.542-1.448-0.542-2.218
		v-3.31C25.069,32.211,27.281,30,30,30s4.931,2.212,4.931,4.931v3.31c0,0.77-0.188,1.53-0.542,2.218l4.833,1.61L38.535,42.98z"/>
	<circle cx="22.4" cy="19" r="1"/>
	<circle cx="26.2" cy="19" r="1"/>
	<circle cx="14.8" cy="19" r="1"/>
	<circle cx="30" cy="19" r="1"/>
	<circle cx="18.6" cy="19" r="1"/>
	<circle cx="33.8" cy="19" r="1"/>
	<circle cx="41.4" cy="19" r="1"/>
	<circle cx="45.2" cy="19" r="1"/>
	<circle cx="37.6" cy="19" r="1"/>
	<circle cx="14.8" cy="54" r="1"/>
	<circle cx="41.4" cy="54" r="1"/>
	<circle cx="18.6" cy="54" r="1"/>
	<circle cx="33.8" cy="54" r="1"/>
	<circle cx="45.2" cy="54" r="1"/>
	<circle cx="37.6" cy="54" r="1"/>
	<circle cx="30" cy="54" r="1"/>
	<circle cx="22.4" cy="54" r="1"/>
	<circle cx="26.2" cy="54" r="1"/>
</g>
<g>
</g>
<g>
</g>
<g>
</g>
<g>
</g>
<g>
</g>
<g>
</g>
<g>
</g>
<g>
</g>
<g>
</g>
<g>
</g>
<g>
</g>
<g>
</g>
<g>
</g>
<g>
</g>
<g>
</g>
</svg>
