<?xml version="1.0" encoding="iso-8859-1"?>
<!-- Generator: Adobe Illustrator 19.0.0, SVG Export Plug-In . SVG Version: 6.00 Build 0)  -->
<svg version="1.1" id="Capa_1" xmlns="http://www.w3.org/2000/svg" xmlns:xlink="http://www.w3.org/1999/xlink" x="0px" y="0px"
	 viewBox="0 0 60 60" style="enable-background:new 0 0 60 60;" xml:space="preserve">
<path d="M47,4h-12l1.8-2.4c0.332-0.441,0.242-1.068-0.2-1.399c-0.441-0.331-1.068-0.242-1.399,0.2L32.5,4h-4.882l-1.724-3.447
	c-0.247-0.494-0.848-0.692-1.342-0.447c-0.494,0.247-0.694,0.848-0.447,1.342L25.382,4H13c-1.654,0-3,1.346-3,3v50
	c0,1.654,1.346,3,3,3h34c1.654,0,3-1.346,3-3V7C50,5.346,48.654,4,47,4z M22,55h-1c-0.553,0-1-0.447-1-1s0.447-1,1-1h1
	c0.553,0,1,0.447,1,1S22.553,55,22,55z M28,55h-2c-0.553,0-1-0.447-1-1s0.447-1,1-1h2c0.553,0,1,0.447,1,1S28.553,55,28,55z M33,55
	h-1c-0.553,0-1-0.447-1-1s0.447-1,1-1h1c0.553,0,1,0.447,1,1S33.553,55,33,55z M39,55h-2c-0.553,0-1-0.447-1-1s0.447-1,1-1h2
	c0.553,0,1,0.447,1,1S39.553,55,39,55z M39,51H21c-0.553,0-1-0.447-1-1s0.447-1,1-1h18c0.553,0,1,0.447,1,1S39.553,51,39,51z M24,46
	c0-0.553,0.447-1,1-1h10c0.553,0,1,0.447,1,1s-0.447,1-1,1H25C24.447,47,24,46.553,24,46z M48,40h-8.148
	c-0.305-1.183-1.095-2.194-2.21-2.752L34,35.388v-0.387c1.628-0.889,2.773-2.353,3.412-4.364C38.381,30.123,39,29.122,39,28v-1
	c0-0.926-0.431-1.785-1.151-2.349c-0.624-3.78-3.262-5.696-7.849-5.696c-0.217,0-0.429,0.008-0.636,0.024
	c-1.2,0.096-2.363-0.163-3.224-0.74c-0.409-0.276-0.718-0.544-0.915-0.793c-0.444-0.568-1.37-0.594-1.843-0.062
	c-0.227,0.254-0.334,0.596-0.294,0.936c0.042,0.374,0.105,0.809,0.2,1.286c0.193,0.975,0.193,0.975-0.078,1.559
	c-0.102,0.22-0.228,0.489-0.376,0.852c-0.331,0.811-0.566,1.699-0.701,2.647C21.424,25.228,21,26.083,21,27v1
	c0,1.122,0.619,2.123,1.588,2.637c0.639,2.012,1.784,3.476,3.412,4.364v0.376l-3.769,1.858c-1.077,0.587-1.828,1.598-2.107,2.765H12
	V7c0-0.552,0.448-1,1-1h13.382l1,2C26.542,8.734,26,9.799,26,11c0,2.206,1.794,4,4,4s4-1.794,4-4s-1.794-4-4-4
	c-0.287,0-0.566,0.033-0.836,0.091L28.618,6H47c0.552,0,1,0.448,1,1V40z M28.332,9.901l0.773,1.546
	C29.281,11.798,29.634,12,30.001,12c0.15,0,0.303-0.034,0.446-0.105c0.494-0.247,0.694-0.848,0.447-1.342l-0.77-1.54
	C31.168,9.078,32,9.94,32,11c0,1.103-0.897,2-2,2s-2-0.897-2-2C28,10.594,28.123,10.217,28.332,9.901z"/>
<g>
</g>
<g>
</g>
<g>
</g>
<g>
</g>
<g>
</g>
<g>
</g>
<g>
</g>
<g>
</g>
<g>
</g>
<g>
</g>
<g>
</g>
<g>
</g>
<g>
</g>
<g>
</g>
<g>
</g>
</svg>
