<?xml version="1.0" encoding="iso-8859-1"?>
<!-- Generator: Adobe Illustrator 19.0.0, SVG Export Plug-In . SVG Version: 6.00 Build 0)  -->
<svg version="1.1" id="Capa_1" xmlns="http://www.w3.org/2000/svg" xmlns:xlink="http://www.w3.org/1999/xlink" x="0px" y="0px"
	 viewBox="0 0 60 60" style="enable-background:new 0 0 60 60;" xml:space="preserve">
<g>
	<path d="M47,4h-12l1.8-2.4c0.332-0.441,0.242-1.068-0.2-1.399c-0.441-0.331-1.068-0.242-1.399,0.2L32.5,4h-4.882l-1.724-3.447
		c-0.248-0.494-0.848-0.692-1.342-0.447c-0.494,0.247-0.694,0.848-0.447,1.342L25.382,4H13c-1.654,0-3,1.346-3,3v50
		c0,1.654,1.346,3,3,3h34c1.654,0,3-1.346,3-3V7C50,5.346,48.654,4,47,4z M48,57c0,0.552-0.448,1-1,1H13c-0.552,0-1-0.448-1-1V7
		c0-0.552,0.448-1,1-1h13.382l1,2C26.542,8.734,26,9.799,26,11c0,2.206,1.794,4,4,4s4-1.794,4-4s-1.794-4-4-4
		c-0.287,0-0.566,0.033-0.836,0.091L28.618,6H47c0.552,0,1,0.448,1,1V57z M28.332,9.901l0.773,1.546
		C29.281,11.798,29.634,12,30.001,12c0.15,0,0.303-0.034,0.446-0.105c0.494-0.247,0.694-0.848,0.447-1.342l-0.77-1.54
		C31.168,9.078,32,9.94,32,11c0,1.103-0.897,2-2,2s-2-0.897-2-2C28,10.594,28.123,10.217,28.332,9.901z"/>
	<path d="M40,43H20c-0.553,0-1,0.447-1,1s0.447,1,1,1h20c0.553,0,1-0.447,1-1S40.553,43,40,43z"/>
	<path d="M40,48H20c-0.553,0-1,0.447-1,1s0.447,1,1,1h20c0.553,0,1-0.447,1-1S40.553,48,40,48z"/>
	<path d="M40,53H20c-0.553,0-1,0.447-1,1s0.447,1,1,1h20c0.553,0,1-0.447,1-1S40.553,53,40,53z"/>
	<path d="M40,17H20v24h20V17z M30,20c2.757,0,5,2.243,5,5s-2.243,5-5,5s-5-2.243-5-5S27.243,20,30,20z M36,39H24v-1
		c0-3.309,2.691-6,6-6s6,2.691,6,6V39z"/>
</g>
<g>
</g>
<g>
</g>
<g>
</g>
<g>
</g>
<g>
</g>
<g>
</g>
<g>
</g>
<g>
</g>
<g>
</g>
<g>
</g>
<g>
</g>
<g>
</g>
<g>
</g>
<g>
</g>
<g>
</g>
</svg>
