<?xml version="1.0" encoding="iso-8859-1"?>
<!-- Generator: Adobe Illustrator 19.0.0, SVG Export Plug-In . SVG Version: 6.00 Build 0)  -->
<svg version="1.1" id="Capa_1" xmlns="http://www.w3.org/2000/svg" xmlns:xlink="http://www.w3.org/1999/xlink" x="0px" y="0px"
	 viewBox="0 0 60 60" style="enable-background:new 0 0 60 60;" xml:space="preserve">
<g>
	<path d="M55.783,8H4.217C1.892,8,0,9.892,0,12.217V13v10v24.783C0,50.108,1.892,52,4.217,52h51.566C58.108,52,60,50.108,60,47.783
		V23V13v-0.783C60,9.892,58.108,8,55.783,8z M58,47.783C58,49.006,57.006,50,55.783,50H4.217C2.994,50,2,49.006,2,47.783V23h56
		V47.783z M2,13v-0.783C2,10.994,2.994,10,4.217,10h51.566C57.006,10,58,10.994,58,12.217V13H2z"/>
	<path d="M50.649,47H55V25H33v22h4.351H50.649z M35,27h18v18h-2.003c-0.018-1.195-0.686-2.266-1.75-2.799l-2.122-1.083
		c0.974-0.623,1.676-1.561,2.094-2.801c0.685-0.416,1.115-1.158,1.115-1.984v-0.667c0-0.677-0.295-1.308-0.793-1.745
		c-0.357-1.898-1.645-3.951-5.54-3.951c-0.153,0-0.304,0.006-0.45,0.018c-0.729,0.063-1.425-0.093-1.937-0.438
		c-0.305-0.204-0.458-0.361-0.536-0.461c-0.419-0.532-1.292-0.553-1.737-0.053c-0.214,0.239-0.315,0.562-0.279,0.882
		c0.029,0.257,0.073,0.557,0.139,0.886c0.084,0.421,0.09,0.541,0.086,0.573c-0.009,0.035-0.066,0.159-0.112,0.259
		c-0.07,0.15-0.156,0.335-0.257,0.582c-0.218,0.528-0.375,1.104-0.471,1.72c-0.49,0.437-0.778,1.062-0.778,1.729v0.667
		c0,0.826,0.431,1.568,1.115,1.984c0.417,1.235,1.115,2.171,2.083,2.793l-2.205,1.087C37.636,42.758,37,43.829,37,44.995V45h-2V27z"
		/>
	<path d="M6,29h9c0.553,0,1-0.447,1-1s-0.447-1-1-1H6c-0.553,0-1,0.447-1,1S5.447,29,6,29z"/>
	<path d="M19,29h9c0.553,0,1-0.447,1-1s-0.447-1-1-1h-9c-0.553,0-1,0.447-1,1S18.447,29,19,29z"/>
	<path d="M6,34h1c0.553,0,1-0.447,1-1s-0.447-1-1-1H6c-0.553,0-1,0.447-1,1S5.447,34,6,34z"/>
	<path d="M13,34c0.553,0,1-0.447,1-1s-0.447-1-1-1h-2c-0.553,0-1,0.447-1,1s0.447,1,1,1H13z"/>
	<path d="M17,34h1c0.553,0,1-0.447,1-1s-0.447-1-1-1h-1c-0.553,0-1,0.447-1,1S16.447,34,17,34z"/>
	<path d="M24,34c0.553,0,1-0.447,1-1s-0.447-1-1-1h-2c-0.553,0-1,0.447-1,1s0.447,1,1,1H24z"/>
	<path d="M27.29,32.29C27.109,32.479,27,32.729,27,33c0,0.27,0.109,0.52,0.29,0.71C27.479,33.89,27.74,34,28,34s0.52-0.11,0.71-0.29
		C28.89,33.52,29,33.26,29,33s-0.11-0.521-0.29-0.71C28.34,31.92,27.66,31.92,27.29,32.29z"/>
	<path d="M11.651,37.4c-2.191,1.14-2.928,3.32-3.196,5.582c-0.414-0.346-0.827-0.693-1.241-1.04
		c-0.981-0.822-2.404,0.585-1.414,1.414c0.935,0.783,1.871,1.567,2.806,2.351c0.662,0.555,1.676,0.211,1.707-0.707
		c0.073-2.167,0.177-4.743,2.348-5.873C13.805,38.532,12.794,36.806,11.651,37.4z"/>
	<path d="M25.181,40.392c-1.457-0.11-3.958,1.975-4.992,0.132c-0.262-0.468-0.91-0.64-1.368-0.359
		c-1.416,0.869-3.267,2.119-4.756,0.5c-0.875-0.951-2.286,0.467-1.414,1.414c1.871,2.033,4.284,1.41,6.407,0.259
		c0.448,0.481,0.984,0.81,1.697,1.067c0.909,0.328,4.087-1.22,4.333-0.883c0.752,1.03,2.489,0.034,1.727-1.01
		C26.391,40.934,25.955,40.451,25.181,40.392z"/>
</g>
<g>
</g>
<g>
</g>
<g>
</g>
<g>
</g>
<g>
</g>
<g>
</g>
<g>
</g>
<g>
</g>
<g>
</g>
<g>
</g>
<g>
</g>
<g>
</g>
<g>
</g>
<g>
</g>
<g>
</g>
</svg>
