<?xml version="1.0" encoding="iso-8859-1"?>
<!-- Generator: Adobe Illustrator 19.0.0, SVG Export Plug-In . SVG Version: 6.00 Build 0)  -->
<svg version="1.1" id="Capa_1" xmlns="http://www.w3.org/2000/svg" xmlns:xlink="http://www.w3.org/1999/xlink" x="0px" y="0px"
	 viewBox="0 0 57.746 57.746" style="enable-background:new 0 0 57.746 57.746;" xml:space="preserve">
<path d="M56.28,15.314c-0.152-0.225-2.899-4.191-8.28-6.238V4.873H0v48h48V16.156c0.491-0.04,0.995-0.067,1.521-0.067
	c1.801,0,3.714,0.253,5.684,0.754l2.541,0.645L56.28,15.314z M49.521,14.09c-0.526,0-1.027,0.029-1.521,0.065v-0.038l-1.131,0.149
	c-0.085,0.011-0.163,0.03-0.247,0.042c-0.371,0.053-0.733,0.115-1.084,0.186c-0.108,0.022-0.214,0.046-0.32,0.07
	c-0.391,0.087-0.772,0.181-1.138,0.288c-0.039,0.011-0.076,0.024-0.115,0.036c-3.433,1.029-5.786,2.85-7.2,4.283
	c-0.011,0.011-0.021,0.021-0.032,0.032c-0.163,0.167-0.314,0.325-0.452,0.479c-0.018,0.02-0.035,0.039-0.052,0.058
	c-0.129,0.145-0.248,0.281-0.354,0.41c-0.019,0.023-0.036,0.044-0.054,0.066c-0.1,0.123-0.192,0.237-0.271,0.341
	c-0.015,0.02-0.026,0.035-0.04,0.053c-0.077,0.102-0.146,0.195-0.201,0.273c-0.001,0.002-0.002,0.003-0.003,0.004
	c-0.117,0.168-0.195,0.288-0.214,0.319l-0.41,0.672l3.961,3.962l-13.599-0.036l-0.036-13.599l4.134,4.134l0.707-0.75
	c5.054-5.369,9.746-5.636,9.845-5.641c2.424-0.221,4.771,0.044,6.987,0.794l0.22,0.074c2.554,0.91,4.49,2.315,5.782,3.493
	C51.604,14.164,50.547,14.09,49.521,14.09z"/>
<g>
</g>
<g>
</g>
<g>
</g>
<g>
</g>
<g>
</g>
<g>
</g>
<g>
</g>
<g>
</g>
<g>
</g>
<g>
</g>
<g>
</g>
<g>
</g>
<g>
</g>
<g>
</g>
<g>
</g>
</svg>
