<?xml version="1.0" encoding="iso-8859-1"?>
<!-- Generator: Adobe Illustrator 19.0.0, SVG Export Plug-In . SVG Version: 6.00 Build 0)  -->
<svg version="1.1" id="Capa_1" xmlns="http://www.w3.org/2000/svg" xmlns:xlink="http://www.w3.org/1999/xlink" x="0px" y="0px"
	 viewBox="0 0 57 57" style="enable-background:new 0 0 57 57;" xml:space="preserve">
<path d="M39.5,23V11.601C39.5,5.204,33.893,0,27,0S14.5,5.204,14.5,11.601v3.22c0,0.553,0.448,1,1,1s1-0.447,1-1v-3.22
	C16.5,6.307,21.21,2,27,2s10.5,4.307,10.5,9.601V23h-31v20v1.878V57h44V44.878V43V23H39.5z M8.5,45h10l-10,10V45z M18.5,55l10-10h13
	l-10,10H18.5z M48.5,55h-7l7-7V55z"/>
<g>
</g>
<g>
</g>
<g>
</g>
<g>
</g>
<g>
</g>
<g>
</g>
<g>
</g>
<g>
</g>
<g>
</g>
<g>
</g>
<g>
</g>
<g>
</g>
<g>
</g>
<g>
</g>
<g>
</g>
</svg>
