<?xml version="1.0" encoding="iso-8859-1"?>
<!-- Generator: Adobe Illustrator 19.0.0, SVG Export Plug-In . SVG Version: 6.00 Build 0)  -->
<svg version="1.1" id="Capa_1" xmlns="http://www.w3.org/2000/svg" xmlns:xlink="http://www.w3.org/1999/xlink" x="0px" y="0px"
	 viewBox="0 0 58 58" style="enable-background:new 0 0 58 58;" xml:space="preserve">
<path d="M40,21.314V10.22C40,4.585,35.065,0,29,0S18,4.585,18,10.22v11.094C12.584,24.896,9,31.034,9,38c0,11.028,8.972,20,20,20
	s20-8.972,20-20C49,31.034,45.416,24.896,40,21.314z M40.313,28.101l-2.828,2.828c-0.195,0.195-0.451,0.293-0.707,0.293
	s-0.512-0.098-0.707-0.293c-0.391-0.391-0.391-1.023,0-1.414l2.828-2.828c0.391-0.391,1.023-0.391,1.414,0
	S40.704,27.71,40.313,28.101z M28,23c0-0.553,0.447-1,1-1s1,0.447,1,1v4c0,0.553-0.447,1-1,1s-1-0.447-1-1V23z M20,20.157V10.22
	C20,5.688,24.037,2,29,2s9,3.688,9,8.22v9.938c-0.188-0.095-0.38-0.179-0.57-0.268c-0.393-0.184-0.792-0.356-1.198-0.515
	c-0.261-0.102-0.523-0.198-0.787-0.289c-0.26-0.089-0.518-0.178-0.782-0.256c-0.437-0.13-0.879-0.241-1.324-0.341
	c-0.193-0.043-0.387-0.084-0.582-0.122c-0.523-0.101-1.049-0.183-1.579-0.242c-0.12-0.013-0.24-0.021-0.36-0.032
	C30.213,18.036,29.608,18,29,18s-1.213,0.036-1.816,0.092c-0.12,0.011-0.241,0.019-0.36,0.032c-0.53,0.059-1.056,0.141-1.579,0.242
	c-0.195,0.037-0.389,0.079-0.582,0.122c-0.445,0.1-0.887,0.211-1.324,0.341c-0.264,0.078-0.523,0.168-0.782,0.256
	c-0.264,0.091-0.527,0.187-0.787,0.289c-0.407,0.158-0.805,0.331-1.198,0.515C20.38,19.978,20.188,20.062,20,20.157z M17.687,26.687
	c0.391-0.391,1.023-0.391,1.414,0l2.828,2.828c0.391,0.391,0.391,1.023,0,1.414c-0.195,0.195-0.451,0.293-0.707,0.293
	s-0.512-0.098-0.707-0.293l-2.828-2.828C17.296,27.71,17.296,27.077,17.687,26.687z M14,39c-0.553,0-1-0.447-1-1s0.447-1,1-1h4
	c0.553,0,1,0.447,1,1s-0.447,1-1,1H14z M21.929,46.485l-2.828,2.828c-0.195,0.195-0.451,0.293-0.707,0.293s-0.512-0.098-0.707-0.293
	c-0.391-0.391-0.391-1.023,0-1.414l2.828-2.828c0.391-0.391,1.023-0.391,1.414,0S22.319,46.095,21.929,46.485z M30,53
	c0,0.553-0.447,1-1,1s-1-0.447-1-1v-4c0-0.553,0.447-1,1-1s1,0.447,1,1V53z M29,47c-4.963,0-9-4.037-9-9s4.037-9,9-9s9,4.037,9,9
	S33.963,47,29,47z M40.313,49.313c-0.195,0.195-0.451,0.293-0.707,0.293s-0.512-0.098-0.707-0.293l-2.828-2.828
	c-0.391-0.391-0.391-1.023,0-1.414s1.023-0.391,1.414,0l2.828,2.828C40.704,48.29,40.704,48.923,40.313,49.313z M44,39h-4
	c-0.553,0-1-0.447-1-1s0.447-1,1-1h4c0.553,0,1,0.447,1,1S44.553,39,44,39z"/>
<g>
</g>
<g>
</g>
<g>
</g>
<g>
</g>
<g>
</g>
<g>
</g>
<g>
</g>
<g>
</g>
<g>
</g>
<g>
</g>
<g>
</g>
<g>
</g>
<g>
</g>
<g>
</g>
<g>
</g>
</svg>
