<?xml version="1.0" encoding="iso-8859-1"?>
<!-- Generator: Adobe Illustrator 19.0.0, SVG Export Plug-In . SVG Version: 6.00 Build 0)  -->
<svg version="1.1" id="Capa_1" xmlns="http://www.w3.org/2000/svg" xmlns:xlink="http://www.w3.org/1999/xlink" x="0px" y="0px"
	 viewBox="0 0 56 56" style="enable-background:new 0 0 56 56;" xml:space="preserve">
<g>
	<path d="M25.293,39.293c-0.391,0.391-0.391,1.023,0,1.414C25.488,40.902,25.744,41,26,41s0.512-0.098,0.707-0.293l11.999-11.999
		c0.093-0.092,0.166-0.203,0.217-0.326c0.101-0.244,0.101-0.519,0-0.764c-0.051-0.123-0.125-0.234-0.217-0.327L26.707,15.293
		c-0.391-0.391-1.023-0.391-1.414,0s-0.391,1.023,0,1.414L35.586,27H5c-0.553,0-1,0.447-1,1s0.447,1,1,1h30.586L25.293,39.293z"/>
	<path d="M51,0H14c-0.553,0-1,0.447-1,1v22h12.93l-3.465-3.465C21.521,18.592,21,17.336,21,16s0.521-2.592,1.465-3.535
		C23.408,11.521,24.664,11,26,11s2.592,0.521,3.536,1.465l11.996,11.997c0.228,0.227,0.438,0.484,0.626,0.765
		c0.065,0.097,0.118,0.196,0.169,0.298l0.094,0.173c0.071,0.126,0.14,0.253,0.196,0.389s0.098,0.274,0.136,0.413l0.054,0.179
		c0.037,0.112,0.071,0.226,0.095,0.345c0.129,0.648,0.129,1.307,0,1.955c-0.023,0.119-0.058,0.232-0.095,0.345l-0.054,0.179
		c-0.038,0.139-0.079,0.277-0.135,0.411c-0.06,0.142-0.131,0.273-0.204,0.403l-0.087,0.16c-0.051,0.102-0.104,0.201-0.168,0.297
		c-0.188,0.281-0.399,0.539-0.629,0.768L29.535,43.535C28.592,44.479,27.336,45,26,45s-2.592-0.521-3.536-1.465
		C21.521,42.592,21,41.336,21,40s0.521-2.592,1.465-3.535L25.93,33H13v22c0,0.553,0.447,1,1,1h37c0.553,0,1-0.447,1-1V1
		C52,0.447,51.553,0,51,0z"/>
</g>
<g>
</g>
<g>
</g>
<g>
</g>
<g>
</g>
<g>
</g>
<g>
</g>
<g>
</g>
<g>
</g>
<g>
</g>
<g>
</g>
<g>
</g>
<g>
</g>
<g>
</g>
<g>
</g>
<g>
</g>
</svg>
