<?xml version="1.0" encoding="iso-8859-1"?>
<!-- Generator: Adobe Illustrator 19.0.0, SVG Export Plug-In . SVG Version: 6.00 Build 0)  -->
<svg version="1.1" id="Capa_1" xmlns="http://www.w3.org/2000/svg" xmlns:xlink="http://www.w3.org/1999/xlink" x="0px" y="0px"
	 viewBox="0 0 56.599 56.599" style="enable-background:new 0 0 56.599 56.599;" xml:space="preserve">
<path d="M40.505,9c0.552,0,1-0.447,1-1V1c0-0.553-0.448-1-1-1s-1,0.447-1,1v7C39.505,8.553,39.953,9,40.505,9z M40.505,23
	c-0.552,0-1,0.447-1,1v7c0,0.553,0.448,1,1,1s1-0.447,1-1v-7C41.505,23.447,41.057,23,40.505,23z M55.505,15h-7
	c-0.552,0-1,0.447-1,1c0,0.553,0.448,1,1,1h7c0.552,0,1-0.447,1-1S56.057,15,55.505,15z M25.505,17h7c0.552,0,1-0.447,1-1
	s-0.448-1-1-1h-7c-0.552,0-1,0.447-1,1C24.505,16.553,24.953,17,25.505,17z M46.505,11c0.256,0,0.512-0.098,0.707-0.293l4.95-4.95
	c0.391-0.391,0.391-1.023,0-1.414s-1.023-0.391-1.414,0l-4.95,4.95c-0.391,0.391-0.391,1.023,0,1.414
	C45.993,10.902,46.249,11,46.505,11z M47.212,21.293c-0.391-0.391-1.023-0.391-1.414,0s-0.391,1.023,0,1.414l4.95,4.95
	c0.195,0.195,0.451,0.293,0.707,0.293s0.512-0.098,0.707-0.293c0.391-0.391,0.391-1.023,0-1.414L47.212,21.293z M33.798,10.707
	C33.993,10.902,34.249,11,34.505,11s0.512-0.098,0.707-0.293c0.391-0.391,0.391-1.023,0-1.414l-4.95-4.95
	c-0.391-0.391-1.023-0.391-1.414,0s-0.391,1.023,0,1.414L33.798,10.707z M35.926,25.006l-4.242-4.242l8.75-8.75l4.242,4.242
	L35.926,25.006z M4.336,56.599l-4.243-4.243L30.27,22.179l4.243,4.243L4.336,56.599z"/>
<g>
</g>
<g>
</g>
<g>
</g>
<g>
</g>
<g>
</g>
<g>
</g>
<g>
</g>
<g>
</g>
<g>
</g>
<g>
</g>
<g>
</g>
<g>
</g>
<g>
</g>
<g>
</g>
<g>
</g>
</svg>
