<?xml version="1.0" encoding="iso-8859-1"?>
<!-- Generator: Adobe Illustrator 19.0.0, SVG Export Plug-In . SVG Version: 6.00 Build 0)  -->
<svg version="1.1" id="Capa_1" xmlns="http://www.w3.org/2000/svg" xmlns:xlink="http://www.w3.org/1999/xlink" x="0px" y="0px"
	 viewBox="0 0 57 57" style="enable-background:new 0 0 57 57;" xml:space="preserve">
<g>
	<path d="M52,3c-2.757,0-5,2.243-5,5v2.268L7.964,22.645C7.781,20.607,6.084,19,4,19c-2.206,0-4,1.794-4,4v11c0,2.206,1.794,4,4,4
		c2.084,0,3.781-1.607,3.964-3.645l3.207,1.017c-0.437,0.437-0.776,0.978-0.976,1.595c-0.328,1.014-0.241,2.097,0.246,3.051
		c0.486,0.954,1.313,1.66,2.326,1.987l14.27,4.623c0.397,0.129,0.811,0.194,1.227,0.194c1.744,0,3.275-1.112,3.812-2.767
		c0.139-0.429,0.124-1.295,0.059-2.037L47,46.732V49c0,2.757,2.243,5,5,5s5-2.243,5-5V8C57,5.243,54.757,3,52,3z M30.173,43.439
		c-0.327,1.011-1.493,1.617-2.519,1.287l-14.271-4.623c-0.505-0.164-0.918-0.517-1.161-0.995c-0.244-0.478-0.289-1.019-0.125-1.523
		c0.248-0.766,0.963-1.298,1.763-1.36l15.213,4.823c0.318,0.202,0.816,0.557,0.974,0.867C30.292,42.393,30.337,42.934,30.173,43.439
		z"/>
</g>
<g>
</g>
<g>
</g>
<g>
</g>
<g>
</g>
<g>
</g>
<g>
</g>
<g>
</g>
<g>
</g>
<g>
</g>
<g>
</g>
<g>
</g>
<g>
</g>
<g>
</g>
<g>
</g>
<g>
</g>
</svg>
