<?xml version="1.0" encoding="iso-8859-1"?>
<!-- Generator: Adobe Illustrator 19.0.0, SVG Export Plug-In . SVG Version: 6.00 Build 0)  -->
<svg version="1.1" id="Capa_1" xmlns="http://www.w3.org/2000/svg" xmlns:xlink="http://www.w3.org/1999/xlink" x="0px" y="0px"
	 viewBox="0 0 59 59" style="enable-background:new 0 0 59 59;" xml:space="preserve">
<g>
	<path d="M44.5,29c-0.552,0-1,0.447-1,1v6c0,7.72-6.28,14-14,14s-14-6.28-14-14v-6c0-0.553-0.448-1-1-1s-1,0.447-1,1v6
		c0,8.485,6.644,15.429,15,15.949V57h-5c-0.552,0-1,0.447-1,1s0.448,1,1,1h12c0.552,0,1-0.447,1-1s-0.448-1-1-1h-5v-5.051
		c8.356-0.52,15-7.465,15-15.949v-6C45.5,29.447,45.052,29,44.5,29z"/>
	<path d="M29.5,48c-0.552,0-1-0.448-1-1s0.448-1,1-1s1,0.448,1,1S30.052,48,29.5,48c6.617,0,12-5.383,12-12V12
		c0-6.617-5.383-12-12-12s-12,5.383-12,12v24C17.5,42.617,22.883,48,29.5,48z M38.5,7c0.552,0,1,0.448,1,1s-0.448,1-1,1
		s-1-0.448-1-1S37.948,7,38.5,7z M38.5,13c0.552,0,1,0.448,1,1s-0.448,1-1,1s-1-0.448-1-1S37.948,13,38.5,13z M38.5,19
		c0.552,0,1,0.448,1,1s-0.448,1-1,1s-1-0.448-1-1S37.948,19,38.5,19z M38.5,25c0.552,0,1,0.448,1,1s-0.448,1-1,1s-1-0.448-1-1
		S37.948,25,38.5,25z M38.5,31c0.552,0,1,0.448,1,1s-0.448,1-1,1s-1-0.448-1-1S37.948,31,38.5,31z M38.5,37c0.552,0,1,0.448,1,1
		s-0.448,1-1,1s-1-0.448-1-1S37.948,37,38.5,37z M35.5,4c0.552,0,1,0.448,1,1s-0.448,1-1,1s-1-0.448-1-1S34.948,4,35.5,4z M35.5,10
		c0.552,0,1,0.448,1,1s-0.448,1-1,1s-1-0.448-1-1S34.948,10,35.5,10z M35.5,16c0.552,0,1,0.448,1,1s-0.448,1-1,1s-1-0.448-1-1
		S34.948,16,35.5,16z M35.5,22c0.552,0,1,0.448,1,1s-0.448,1-1,1s-1-0.448-1-1S34.948,22,35.5,22z M35.5,28c0.552,0,1,0.448,1,1
		s-0.448,1-1,1s-1-0.448-1-1S34.948,28,35.5,28z M35.5,34c0.552,0,1,0.448,1,1s-0.448,1-1,1s-1-0.448-1-1S34.948,34,35.5,34z
		 M35.5,40c0.552,0,1,0.448,1,1s-0.448,1-1,1s-1-0.448-1-1S34.948,40,35.5,40z M32.5,1c0.552,0,1,0.448,1,1c0,0.552-0.448,1-1,1
		s-1-0.448-1-1C31.5,1.448,31.948,1,32.5,1z M32.5,7c0.552,0,1,0.448,1,1s-0.448,1-1,1s-1-0.448-1-1S31.948,7,32.5,7z M32.5,13
		c0.552,0,1,0.448,1,1s-0.448,1-1,1s-1-0.448-1-1S31.948,13,32.5,13z M32.5,19c0.552,0,1,0.448,1,1s-0.448,1-1,1s-1-0.448-1-1
		S31.948,19,32.5,19z M32.5,25c0.552,0,1,0.448,1,1s-0.448,1-1,1s-1-0.448-1-1S31.948,25,32.5,25z M32.5,31c0.552,0,1,0.448,1,1
		s-0.448,1-1,1s-1-0.448-1-1S31.948,31,32.5,31z M32.5,37c0.552,0,1,0.448,1,1s-0.448,1-1,1s-1-0.448-1-1S31.948,37,32.5,37z
		 M32.5,43c0.552,0,1,0.448,1,1s-0.448,1-1,1s-1-0.448-1-1S31.948,43,32.5,43z M29.5,4c0.552,0,1,0.448,1,1s-0.448,1-1,1
		s-1-0.448-1-1S28.948,4,29.5,4z M29.5,10c0.552,0,1,0.448,1,1s-0.448,1-1,1s-1-0.448-1-1S28.948,10,29.5,10z M29.5,16
		c0.552,0,1,0.448,1,1s-0.448,1-1,1s-1-0.448-1-1S28.948,16,29.5,16z M29.5,22c0.552,0,1,0.448,1,1s-0.448,1-1,1s-1-0.448-1-1
		S28.948,22,29.5,22z M29.5,28c0.552,0,1,0.448,1,1s-0.448,1-1,1s-1-0.448-1-1S28.948,28,29.5,28z M29.5,34c0.552,0,1,0.448,1,1
		s-0.448,1-1,1s-1-0.448-1-1S28.948,34,29.5,34z M29.5,40c0.552,0,1,0.448,1,1s-0.448,1-1,1s-1-0.448-1-1S28.948,40,29.5,40z
		 M26.5,1c0.552,0,1,0.448,1,1c0,0.552-0.448,1-1,1s-1-0.448-1-1C25.5,1.448,25.948,1,26.5,1z M26.5,7c0.552,0,1,0.448,1,1
		s-0.448,1-1,1s-1-0.448-1-1S25.948,7,26.5,7z M26.5,13c0.552,0,1,0.448,1,1s-0.448,1-1,1s-1-0.448-1-1S25.948,13,26.5,13z M26.5,19
		c0.552,0,1,0.448,1,1s-0.448,1-1,1s-1-0.448-1-1S25.948,19,26.5,19z M26.5,25c0.552,0,1,0.448,1,1s-0.448,1-1,1s-1-0.448-1-1
		S25.948,25,26.5,25z M26.5,31c0.552,0,1,0.448,1,1s-0.448,1-1,1s-1-0.448-1-1S25.948,31,26.5,31z M26.5,37c0.552,0,1,0.448,1,1
		s-0.448,1-1,1s-1-0.448-1-1S25.948,37,26.5,37z M26.5,43c0.552,0,1,0.448,1,1s-0.448,1-1,1s-1-0.448-1-1S25.948,43,26.5,43z
		 M23.5,4c0.552,0,1,0.448,1,1s-0.448,1-1,1s-1-0.448-1-1S22.948,4,23.5,4z M23.5,10c0.552,0,1,0.448,1,1s-0.448,1-1,1s-1-0.448-1-1
		S22.948,10,23.5,10z M23.5,16c0.552,0,1,0.448,1,1s-0.448,1-1,1s-1-0.448-1-1S22.948,16,23.5,16z M23.5,22c0.552,0,1,0.448,1,1
		s-0.448,1-1,1s-1-0.448-1-1S22.948,22,23.5,22z M23.5,28c0.552,0,1,0.448,1,1s-0.448,1-1,1s-1-0.448-1-1S22.948,28,23.5,28z
		 M23.5,34c0.552,0,1,0.448,1,1s-0.448,1-1,1s-1-0.448-1-1S22.948,34,23.5,34z M23.5,40c0.552,0,1,0.448,1,1s-0.448,1-1,1
		s-1-0.448-1-1S22.948,40,23.5,40z M20.5,7c0.552,0,1,0.448,1,1s-0.448,1-1,1s-1-0.448-1-1S19.948,7,20.5,7z M20.5,13
		c0.552,0,1,0.448,1,1s-0.448,1-1,1s-1-0.448-1-1S19.948,13,20.5,13z M20.5,19c0.552,0,1,0.448,1,1s-0.448,1-1,1s-1-0.448-1-1
		S19.948,19,20.5,19z M20.5,25c0.552,0,1,0.448,1,1s-0.448,1-1,1s-1-0.448-1-1S19.948,25,20.5,25z M20.5,31c0.552,0,1,0.448,1,1
		s-0.448,1-1,1s-1-0.448-1-1S19.948,31,20.5,31z M19.5,38c0-0.552,0.448-1,1-1s1,0.448,1,1s-0.448,1-1,1S19.5,38.552,19.5,38z"/>
</g>
<g>
</g>
<g>
</g>
<g>
</g>
<g>
</g>
<g>
</g>
<g>
</g>
<g>
</g>
<g>
</g>
<g>
</g>
<g>
</g>
<g>
</g>
<g>
</g>
<g>
</g>
<g>
</g>
<g>
</g>
</svg>
