<?xml version="1.0" encoding="iso-8859-1"?>
<!-- Generator: Adobe Illustrator 19.0.0, SVG Export Plug-In . SVG Version: 6.00 Build 0)  -->
<svg version="1.1" id="Capa_1" xmlns="http://www.w3.org/2000/svg" xmlns:xlink="http://www.w3.org/1999/xlink" x="0px" y="0px"
	 viewBox="0 0 54 54" style="enable-background:new 0 0 54 54;" xml:space="preserve">
<g>
	<polygon points="42,10.996 22,13.593 22,17 22,18.861 42,16.264 42,14.143 	"/>
	<path d="M41.824,0H12.176C5.462,0,0,5.462,0,12.176v29.648C0,48.538,5.462,54,12.176,54h29.648C48.538,54,54,48.538,54,41.824
		V12.176C54,5.462,48.538,0,41.824,0z M44,34.857c0,3.702-3.333,6.714-7.429,6.714c-4.096,0-7.428-3.012-7.428-6.714
		s3.333-6.715,7.428-6.715c2.182,0,4.141,0.86,5.502,2.219C42.029,30.249,42,30.128,42,30V18.28l-20,2.598V41
		c0,0.542,0-0.91,0,0.286C22,44.988,18.636,48,14.5,48S7,44.988,7,41.286s3.364-6.715,7.5-6.715c2.174,0,4.129,0.838,5.5,2.165V20
		v-3v-4.286c0-0.503,0.373-0.927,0.871-0.991l22-2.856c0.283-0.039,0.572,0.051,0.789,0.24C43.876,9.296,44,9.569,44,9.857v4.285v3
		V34"/>
</g>
<g>
</g>
<g>
</g>
<g>
</g>
<g>
</g>
<g>
</g>
<g>
</g>
<g>
</g>
<g>
</g>
<g>
</g>
<g>
</g>
<g>
</g>
<g>
</g>
<g>
</g>
<g>
</g>
<g>
</g>
</svg>
