<?xml version="1.0" encoding="iso-8859-1"?>
<!-- Generator: Adobe Illustrator 19.0.0, SVG Export Plug-In . SVG Version: 6.00 Build 0)  -->
<svg version="1.1" id="Capa_1" xmlns="http://www.w3.org/2000/svg" xmlns:xlink="http://www.w3.org/1999/xlink" x="0px" y="0px"
	 viewBox="0 0 60 60" style="enable-background:new 0 0 60 60;" xml:space="preserve">
<g>
	<rect y="4" width="10" height="52"/>
	<path d="M12,4v52h48V4H12z M51,15v5v15c0,3.309-2.916,6-6.5,6S38,38.309,38,35s2.916-6,6.5-6c1.746,0,3.331,0.642,4.5,1.68v-9.51
		l-17,2.684v17.248c0,0.013-0.007,0.025-0.008,0.038C31.911,44.383,29.033,47,25.5,47c-3.584,0-6.5-2.691-6.5-6s2.916-6,6.5-6
		c1.746,0,3.331,0.642,4.5,1.68V23v-2.714V17c0-0.492,0.358-0.911,0.844-0.987l19-3c0.294-0.047,0.583,0.037,0.806,0.228
		C50.872,13.43,51,13.708,51,14V15z"/>
</g>
<g>
</g>
<g>
</g>
<g>
</g>
<g>
</g>
<g>
</g>
<g>
</g>
<g>
</g>
<g>
</g>
<g>
</g>
<g>
</g>
<g>
</g>
<g>
</g>
<g>
</g>
<g>
</g>
<g>
</g>
</svg>
