<?xml version="1.0" encoding="iso-8859-1"?>
<!-- Generator: Adobe Illustrator 19.0.0, SVG Export Plug-In . SVG Version: 6.00 Build 0)  -->
<svg version="1.1" id="Capa_1" xmlns="http://www.w3.org/2000/svg" xmlns:xlink="http://www.w3.org/1999/xlink" x="0px" y="0px"
	 viewBox="0 0 60 60" style="enable-background:new 0 0 60 60;" xml:space="preserve">
<g>
	<path d="M51.707,8.293c-0.391-0.391-1.023-0.391-1.414,0l-42,42c-0.391,0.391-0.391,1.023,0,1.414C8.488,51.902,8.744,52,9,52
		s0.512-0.098,0.707-0.293l42-42C52.098,9.316,52.098,8.684,51.707,8.293z"/>
	<path d="M52.841,10.561L42,21.402v27.491C42,50.606,40.606,52,38.893,52c-0.547,0-1.09-0.149-1.571-0.432
		c-0.063-0.037-0.121-0.081-0.174-0.131L24.106,39.296L10.561,52.841C15.982,57.469,22.795,60,30,60
		c8.013,0,15.547-3.121,21.213-8.787S60,38.013,60,30C60,22.795,57.469,15.982,52.841,10.561z"/>
	<path d="M15.104,39C13.392,39,12,37.607,12,35.896V23.104C12,21.393,13.392,20,15.104,20h8.324c0.166,0,0.329-0.037,0.479-0.109
		L37.148,7.563c0.053-0.05,0.112-0.094,0.174-0.131C37.803,7.149,38.346,7,38.893,7C40.606,7,42,8.394,42,10.106v4.479l7.433-7.432
		C44.013,2.529,37.203,0,30,0C21.987,0,14.453,3.121,8.787,8.787C3.121,14.453,0,21.987,0,30c0,7.202,2.528,14.013,7.153,19.432
		L17.586,39H15.104z"/>
</g>
<g>
</g>
<g>
</g>
<g>
</g>
<g>
</g>
<g>
</g>
<g>
</g>
<g>
</g>
<g>
</g>
<g>
</g>
<g>
</g>
<g>
</g>
<g>
</g>
<g>
</g>
<g>
</g>
<g>
</g>
</svg>
