<?xml version="1.0" encoding="iso-8859-1"?>
<!-- Generator: Adobe Illustrator 19.0.0, SVG Export Plug-In . SVG Version: 6.00 Build 0)  -->
<svg version="1.1" id="Capa_1" xmlns="http://www.w3.org/2000/svg" xmlns:xlink="http://www.w3.org/1999/xlink" x="0px" y="0px"
	 viewBox="0 0 58 58" style="enable-background:new 0 0 58 58;" xml:space="preserve">
<g>
	<path d="M29.5,46c6.065,0,11-4.935,11-11V20.414L20.149,40.765C22.09,43.9,25.55,46,29.5,46z"/>
	<path d="M40.5,11c0-6.065-4.935-11-11-11s-11,4.935-11,11v22.586l22-22V11z"/>
	<path d="M52.207,4.293c-0.391-0.391-1.023-0.391-1.414,0L16.089,38.997C15.71,37.729,15.5,36.389,15.5,35v-6c0-0.553-0.448-1-1-1
		s-1,0.447-1,1v6c0,1.96,0.371,3.83,1.019,5.567l-8.726,8.726c-0.391,0.391-0.391,1.023,0,1.414C5.988,50.902,6.244,51,6.5,51
		s0.512-0.098,0.707-0.293l8.181-8.181c2.548,4.759,7.434,8.07,13.112,8.424V56h-5c-0.552,0-1,0.447-1,1s0.448,1,1,1h12
		c0.552,0,1-0.447,1-1s-0.448-1-1-1h-5v-5.051c8.356-0.52,15-7.465,15-15.949v-6c0-0.553-0.448-1-1-1s-1,0.447-1,1v6
		c0,7.72-6.28,14-14,14c-5.559,0-10.357-3.265-12.616-7.97L52.207,5.707C52.598,5.316,52.598,4.684,52.207,4.293z"/>
</g>
<g>
</g>
<g>
</g>
<g>
</g>
<g>
</g>
<g>
</g>
<g>
</g>
<g>
</g>
<g>
</g>
<g>
</g>
<g>
</g>
<g>
</g>
<g>
</g>
<g>
</g>
<g>
</g>
<g>
</g>
</svg>
