<?xml version="1.0" encoding="iso-8859-1"?>
<!-- Generator: Adobe Illustrator 19.0.0, SVG Export Plug-In . SVG Version: 6.00 Build 0)  -->
<svg version="1.1" id="Capa_1" xmlns="http://www.w3.org/2000/svg" xmlns:xlink="http://www.w3.org/1999/xlink" x="0px" y="0px"
	 viewBox="0 0 60 60" style="enable-background:new 0 0 60 60;" xml:space="preserve">
<g>
	<path d="M47,4H23v6h24V4z M45,8H25V6h20V8z"/>
	<g>
		<rect x="19" y="18" width="10" height="10"/>
		<rect x="41" y="42" width="10" height="10"/>
		<path d="M58.99,12.952V0H11v30H1v24c0,3.309,2.691,6,6,6h46c3.303,0,5.99-2.688,5.99-5.99V13.048C58.991,13.031,59,13.017,59,13
			S58.991,12.969,58.99,12.952z M11,54c0,2.206-1.794,4-4,4s-4-1.794-4-4V32h8V54z M34,54H19c-0.553,0-1-0.447-1-1s0.447-1,1-1h15
			c0.553,0,1,0.447,1,1S34.553,54,34,54z M17,30V16h14v14H17z M34,48H19c-0.553,0-1-0.447-1-1s0.447-1,1-1h15c0.553,0,1,0.447,1,1
			S34.553,48,34,48z M34,42H19c-0.553,0-1-0.447-1-1s0.447-1,1-1h15c0.553,0,1,0.447,1,1S34.553,42,34,42z M53,54H39V40h14V54z
			 M52,36H19c-0.553,0-1-0.447-1-1s0.447-1,1-1h33c0.553,0,1,0.447,1,1S52.553,36,52,36z M52,30H36c-0.553,0-1-0.447-1-1
			s0.447-1,1-1h16c0.553,0,1,0.447,1,1S52.553,30,52,30z M52,24H36c-0.553,0-1-0.447-1-1s0.447-1,1-1h16c0.553,0,1,0.447,1,1
			S52.553,24,52,24z M52,18H36c-0.553,0-1-0.447-1-1s0.447-1,1-1h16c0.553,0,1,0.447,1,1S52.553,18,52,18z M56.99,12H13V2h43.99V12z
			"/>
	</g>
</g>
<g>
</g>
<g>
</g>
<g>
</g>
<g>
</g>
<g>
</g>
<g>
</g>
<g>
</g>
<g>
</g>
<g>
</g>
<g>
</g>
<g>
</g>
<g>
</g>
<g>
</g>
<g>
</g>
<g>
</g>
</svg>
