<?xml version="1.0" encoding="iso-8859-1"?>
<!-- Generator: Adobe Illustrator 19.0.0, SVG Export Plug-In . SVG Version: 6.00 Build 0)  -->
<svg version="1.1" id="Capa_1" xmlns="http://www.w3.org/2000/svg" xmlns:xlink="http://www.w3.org/1999/xlink" x="0px" y="0px"
	 viewBox="0 0 58 58" style="enable-background:new 0 0 58 58;" xml:space="preserve">
<g>
	<path d="M52.003,0.004H19V0H6v7.101C6.323,7.035,6.658,7,7,7c2.757,0,5,2.243,5,5c0,0.553-0.448,1-1,1s-1-0.447-1-1
		c0-1.654-1.346-3-3-3C6.648,9,6.314,9.072,6,9.184v3.917C6.323,13.035,6.658,13,7,13c2.757,0,5,2.243,5,5c0,0.553-0.448,1-1,1
		s-1-0.447-1-1c0-1.654-1.346-3-3-3c-0.352,0-0.686,0.072-1,0.184v3.917C6.323,19.035,6.658,19,7,19c2.757,0,5,2.243,5,5
		c0,0.553-0.448,1-1,1s-1-0.447-1-1c0-1.654-1.346-3-3-3c-0.352,0-0.686,0.072-1,0.184v3.917C6.323,25.035,6.658,25,7,25
		c2.757,0,5,2.243,5,5c0,0.553-0.448,1-1,1s-1-0.447-1-1c0-1.654-1.346-3-3-3c-0.352,0-0.686,0.072-1,0.184v3.917
		C6.323,31.035,6.658,31,7,31c2.757,0,5,2.243,5,5c0,0.553-0.448,1-1,1s-1-0.447-1-1c0-1.654-1.346-3-3-3
		c-0.352,0-0.686,0.072-1,0.184v3.917C6.323,37.035,6.658,37,7,37c2.757,0,5,2.243,5,5c0,0.553-0.448,1-1,1s-1-0.447-1-1
		c0-1.654-1.346-3-3-3c-0.352,0-0.686,0.072-1,0.184v3.917C6.323,43.035,6.658,43,7,43c2.757,0,5,2.243,5,5c0,0.553-0.448,1-1,1
		s-1-0.447-1-1c0-1.654-1.346-3-3-3c-0.352,0-0.686,0.072-1,0.184V49v1v0.815C4.839,50.401,4,49.302,4,48s0.839-2.401,2-2.816
		v-2.083C3.721,43.566,2,45.585,2,48s1.721,4.434,4,4.899V54v4h11h2h33.003C54.207,58,56,56.207,56,54.004V4
		C56,1.797,54.207,0.004,52.003,0.004z M19,56V2.004h26V56H19z M54,54.004C54,55.104,53.104,56,52.003,56H48V2.004h4.003
		C53.104,2.004,54,2.899,54,4V54.004z"/>
	<path d="M2,12c0,0.553,0.448,1,1,1s1-0.447,1-1c0-1.302,0.839-2.401,2-2.816V7.101C3.721,7.566,2,9.585,2,12z"/>
	<path d="M2,18c0,0.553,0.448,1,1,1s1-0.447,1-1c0-1.302,0.839-2.401,2-2.816v-2.083C3.721,13.566,2,15.585,2,18z"/>
	<path d="M2,24c0,0.553,0.448,1,1,1s1-0.447,1-1c0-1.302,0.839-2.401,2-2.816v-2.083C3.721,19.566,2,21.585,2,24z"/>
	<path d="M2,30c0,0.553,0.448,1,1,1s1-0.447,1-1c0-1.302,0.839-2.401,2-2.816v-2.083C3.721,25.566,2,27.585,2,30z"/>
	<path d="M2,36c0,0.553,0.448,1,1,1s1-0.447,1-1c0-1.302,0.839-2.401,2-2.816v-2.083C3.721,31.566,2,33.585,2,36z"/>
	<path d="M2,42c0,0.553,0.448,1,1,1s1-0.447,1-1c0-1.302,0.839-2.401,2-2.816v-2.083C3.721,37.566,2,39.585,2,42z"/>
</g>
<g>
</g>
<g>
</g>
<g>
</g>
<g>
</g>
<g>
</g>
<g>
</g>
<g>
</g>
<g>
</g>
<g>
</g>
<g>
</g>
<g>
</g>
<g>
</g>
<g>
</g>
<g>
</g>
<g>
</g>
</svg>
