<?xml version="1.0" encoding="iso-8859-1"?>
<!-- Generator: Adobe Illustrator 19.0.0, SVG Export Plug-In . SVG Version: 6.00 Build 0)  -->
<svg version="1.1" id="Capa_1" xmlns="http://www.w3.org/2000/svg" xmlns:xlink="http://www.w3.org/1999/xlink" x="0px" y="0px"
	 viewBox="0 0 59.864 59.864" style="enable-background:new 0 0 59.864 59.864;" xml:space="preserve">
<g>
	<path d="M51.432,17V3.996C51.432,1.793,49.639,0,47.436,0h-1.004h-1h-1v54h2v-0.004h1.004c2.203,0,3.996-1.793,3.996-3.996V37.007
		h-5V17H51.432z"/>
	<polygon points="37.432,0 8.432,0 8.432,17 37.432,17 37.432,37.007 8.432,37.007 8.432,53.996 12.432,53.996 12.432,54 20.432,54 
		20.432,53.996 37.432,53.996 37.432,54 39.432,54 39.432,0 38.432,0 	"/>
	<polygon points="12.432,59.864 16.432,57.198 20.432,59.864 20.432,55 12.432,55 	"/>
</g>
<g>
</g>
<g>
</g>
<g>
</g>
<g>
</g>
<g>
</g>
<g>
</g>
<g>
</g>
<g>
</g>
<g>
</g>
<g>
</g>
<g>
</g>
<g>
</g>
<g>
</g>
<g>
</g>
<g>
</g>
</svg>
