<?xml version="1.0" encoding="iso-8859-1"?>
<!-- Generator: Adobe Illustrator 19.0.0, SVG Export Plug-In . SVG Version: 6.00 Build 0)  -->
<svg version="1.1" id="Capa_1" xmlns="http://www.w3.org/2000/svg" xmlns:xlink="http://www.w3.org/1999/xlink" x="0px" y="0px"
	 viewBox="0 0 59 59" style="enable-background:new 0 0 59 59;" xml:space="preserve">
<g>
	<path d="M26.5,0c-0.553,0-1,0.447-1,1s0.447,1,1,1c1.302,0,2.402,0.838,2.816,2h2.083C30.934,1.721,28.914,0,26.5,0z"/>
	<path d="M32.5,0c-0.553,0-1,0.447-1,1s0.447,1,1,1c1.302,0,2.402,0.838,2.816,2h2.083C36.934,1.721,34.914,0,32.5,0z"/>
	<path d="M38.5,0c-0.553,0-1,0.447-1,1s0.447,1,1,1c1.302,0,2.402,0.838,2.816,2h2.083C42.934,1.721,40.914,0,38.5,0z"/>
	<path d="M43.399,4C43.465,4.323,43.5,4.658,43.5,5c0,2.757-2.243,5-5,5c-0.553,0-1-0.447-1-1s0.447-1,1-1c1.654,0,3-1.346,3-3
		c0-0.353-0.072-0.686-0.184-1h-3.917C37.465,4.323,37.5,4.658,37.5,5c0,2.757-2.243,5-5,5c-0.553,0-1-0.447-1-1s0.447-1,1-1
		c1.654,0,3-1.346,3-3c0-0.353-0.072-0.686-0.184-1h-3.917C31.465,4.323,31.5,4.658,31.5,5c0,2.757-2.243,5-5,5
		c-0.553,0-1-0.447-1-1s0.447-1,1-1c1.654,0,3-1.346,3-3c0-0.353-0.072-0.686-0.184-1h-3.917C25.465,4.323,25.5,4.658,25.5,5
		c0,2.757-2.243,5-5,5c-0.553,0-1-0.447-1-1s0.447-1,1-1c1.654,0,3-1.346,3-3c0-0.353-0.072-0.686-0.184-1H18.5h-0.816
		c0.414-1.162,1.514-2,2.816-2s2.402,0.838,2.816,2h2.083c-0.465-2.279-2.484-4-4.899-4s-4.434,1.721-4.899,4H14.5h-11v8v5v10v10v10
		v6v6h38V45h14l-14,14h14V45v-3v-5V27V17V9V4H43.399z M13.5,27c0,0.553-0.448,1-1,1v8c0.552,0,1,0.447,1,1s-0.448,1-1,1v8
		c0.552,0,1,0.447,1,1s-0.448,1-1,1v5c0,0.553-0.448,1-1,1s-1-0.447-1-1v-5c-0.552,0-1-0.447-1-1s0.448-1,1-1v-8
		c-0.552,0-1-0.447-1-1s0.448-1,1-1v-8c-0.552,0-1-0.447-1-1s0.448-1,1-1v-8c-0.552,0-1-0.447-1-1s0.448-1,1-1v-4
		c0-0.553,0.448-1,1-1s1,0.447,1,1v4c0.552,0,1,0.447,1,1s-0.448,1-1,1v8C13.052,26,13.5,26.447,13.5,27z M18.5,48h-2
		c-0.552,0-1-0.447-1-1s0.448-1,1-1h2c0.552,0,1,0.447,1,1S19.052,48,18.5,48z M18.5,38h-2c-0.552,0-1-0.447-1-1s0.448-1,1-1h2
		c0.552,0,1,0.447,1,1S19.052,38,18.5,38z M18.5,28h-2c-0.552,0-1-0.447-1-1s0.448-1,1-1h2c0.552,0,1,0.447,1,1S19.052,28,18.5,28z
		 M18.5,18h-2c-0.552,0-1-0.447-1-1s0.448-1,1-1h2c0.552,0,1,0.447,1,1S19.052,18,18.5,18z M24.5,48h-2c-0.552,0-1-0.447-1-1
		s0.448-1,1-1h2c0.552,0,1,0.447,1,1S25.052,48,24.5,48z M24.5,38h-2c-0.552,0-1-0.447-1-1s0.448-1,1-1h2c0.552,0,1,0.447,1,1
		S25.052,38,24.5,38z M24.5,28h-2c-0.552,0-1-0.447-1-1s0.448-1,1-1h2c0.552,0,1,0.447,1,1S25.052,28,24.5,28z M24.5,18h-2
		c-0.552,0-1-0.447-1-1s0.448-1,1-1h2c0.552,0,1,0.447,1,1S25.052,18,24.5,18z M30.5,48h-2c-0.552,0-1-0.447-1-1s0.448-1,1-1h2
		c0.552,0,1,0.447,1,1S31.052,48,30.5,48z M30.5,38h-2c-0.552,0-1-0.447-1-1s0.448-1,1-1h2c0.552,0,1,0.447,1,1S31.052,38,30.5,38z
		 M30.5,28h-2c-0.552,0-1-0.447-1-1s0.448-1,1-1h2c0.552,0,1,0.447,1,1S31.052,28,30.5,28z M30.5,18h-2c-0.552,0-1-0.447-1-1
		s0.448-1,1-1h2c0.552,0,1,0.447,1,1S31.052,18,30.5,18z M36.5,48h-2c-0.552,0-1-0.447-1-1s0.448-1,1-1h2c0.552,0,1,0.447,1,1
		S37.052,48,36.5,48z M36.5,38h-2c-0.552,0-1-0.447-1-1s0.448-1,1-1h2c0.552,0,1,0.447,1,1S37.052,38,36.5,38z M36.5,28h-2
		c-0.552,0-1-0.447-1-1s0.448-1,1-1h2c0.552,0,1,0.447,1,1S37.052,28,36.5,28z M36.5,18h-2c-0.552,0-1-0.447-1-1s0.448-1,1-1h2
		c0.552,0,1,0.447,1,1S37.052,18,36.5,18z M42.5,38h-2c-0.552,0-1-0.447-1-1s0.448-1,1-1h2c0.552,0,1,0.447,1,1S43.052,38,42.5,38z
		 M42.5,28h-2c-0.552,0-1-0.447-1-1s0.448-1,1-1h2c0.552,0,1,0.447,1,1S43.052,28,42.5,28z M42.5,18h-2c-0.552,0-1-0.447-1-1
		s0.448-1,1-1h2c0.552,0,1,0.447,1,1S43.052,18,42.5,18z M48.5,38h-2c-0.552,0-1-0.447-1-1s0.448-1,1-1h2c0.552,0,1,0.447,1,1
		S49.052,38,48.5,38z M48.5,28h-2c-0.552,0-1-0.447-1-1s0.448-1,1-1h2c0.552,0,1,0.447,1,1S49.052,28,48.5,28z M48.5,18h-2
		c-0.552,0-1-0.447-1-1s0.448-1,1-1h2c0.552,0,1,0.447,1,1S49.052,18,48.5,18z"/>
</g>
<g>
</g>
<g>
</g>
<g>
</g>
<g>
</g>
<g>
</g>
<g>
</g>
<g>
</g>
<g>
</g>
<g>
</g>
<g>
</g>
<g>
</g>
<g>
</g>
<g>
</g>
<g>
</g>
<g>
</g>
</svg>
