<?xml version="1.0" encoding="iso-8859-1"?>
<!-- Generator: Adobe Illustrator 19.0.0, SVG Export Plug-In . SVG Version: 6.00 Build 0)  -->
<svg version="1.1" id="Capa_1" xmlns="http://www.w3.org/2000/svg" xmlns:xlink="http://www.w3.org/1999/xlink" x="0px" y="0px"
	 viewBox="0 0 60 60" style="enable-background:new 0 0 60 60;" xml:space="preserve">
<g>
	<path d="M49,13v37.266l4,7V59c0,0.553,0.447,1,1,1s1-0.447,1-1v-1.734l4-7V13v-2H49V13z M56.277,51L54,54.984L51.723,51H56.277z"/>
	<path d="M56.015,0h-4.029C50.339,0,49,1.339,49,2.985V7v2h10V7V2.985C59,1.339,57.661,0,56.015,0z"/>
	<path d="M40.004,0H39h-1h-1v54h2v-0.004h1.004C42.207,53.996,44,52.203,44,50V37.007h-5V17h5V3.996C44,1.793,42.207,0,40.004,0z"/>
	<polygon points="30,0 1,0 1,17 30,17 30,37.007 1,37.007 1,53.996 5,53.996 5,54 13,54 13,53.996 30,53.996 30,54 32,54 32,0 31,0 
			"/>
	<polygon points="5,59.864 9,57.198 13,59.864 13,55 5,55 	"/>
</g>
<g>
</g>
<g>
</g>
<g>
</g>
<g>
</g>
<g>
</g>
<g>
</g>
<g>
</g>
<g>
</g>
<g>
</g>
<g>
</g>
<g>
</g>
<g>
</g>
<g>
</g>
<g>
</g>
<g>
</g>
</svg>
