<?xml version="1.0" encoding="iso-8859-1"?>
<!-- Generator: Adobe Illustrator 19.0.0, SVG Export Plug-In . SVG Version: 6.00 Build 0)  -->
<svg version="1.1" id="Capa_1" xmlns="http://www.w3.org/2000/svg" xmlns:xlink="http://www.w3.org/1999/xlink" x="0px" y="0px"
	 viewBox="0 0 60 60" style="enable-background:new 0 0 60 60;" xml:space="preserve">
<g>
	<path d="M25.5,7h9c0.553,0,1-0.447,1-1V1c0-0.553-0.447-1-1-1h-9c-0.553,0-1,0.447-1,1v5C24.5,6.553,24.947,7,25.5,7z"/>
	<path d="M38.5,2c-0.553,0-1,0.447-1,1s0.447,1,1,1h14v54h-45V4h14c0.553,0,1-0.447,1-1s-0.447-1-1-1h-16v58h49V2H38.5z"/>
	<path d="M51.5,5h-11v3h-21V5h-11v52h25.586L51.5,39.586V5z M27.5,25c0,0.26-0.11,0.52-0.29,0.71C27.02,25.89,26.77,26,26.5,26
		c-0.271,0-0.521-0.11-0.71-0.29C25.6,25.52,25.5,25.26,25.5,25c0-0.261,0.1-0.521,0.29-0.7c0.37-0.38,1.04-0.38,1.42-0.01
		C27.39,24.479,27.5,24.739,27.5,25z M16.5,16h9c0.553,0,1,0.447,1,1s-0.447,1-1,1h-9c-0.553,0-1-0.447-1-1S15.947,16,16.5,16z
		 M16.5,24h5c0.553,0,1,0.447,1,1s-0.447,1-1,1h-5c-0.553,0-1-0.447-1-1S15.947,24,16.5,24z M15.79,32.29
		c0.37-0.36,1.05-0.37,1.42,0c0.18,0.189,0.29,0.449,0.29,0.71c0,0.26-0.11,0.52-0.29,0.71C17.02,33.89,16.76,34,16.5,34
		c-0.271,0-0.521-0.11-0.71-0.29c-0.181-0.19-0.29-0.44-0.29-0.71C15.5,32.729,15.609,32.479,15.79,32.29z M18.306,48.766
		c-0.031,0.918-1.045,1.262-1.707,0.707c-0.935-0.784-1.871-1.567-2.806-2.351c-0.99-0.83,0.433-2.237,1.414-1.415
		c0.414,0.347,0.828,0.693,1.241,1.04c0.268-2.261,1.005-4.441,3.196-5.582c1.142-0.594,2.154,1.132,1.009,1.727
		C18.483,44.023,18.379,46.599,18.306,48.766z M27.256,47.259c-0.344-0.615-1.86,0.565-2.267,0.717
		c-0.571,0.213-1.081,0.295-1.688,0.226c-1.169-0.134-2.156-0.89-2.669-1.932c-0.568-1.152,1.156-2.166,1.727-1.009
		c0.955,1.936,2.571,0.28,3.936-0.106c1.046-0.296,2.169,0.165,2.688,1.095C29.613,47.376,27.885,48.385,27.256,47.259z M28.5,34h-7
		c-0.553,0-1-0.447-1-1s0.447-1,1-1h7c0.553,0,1,0.447,1,1S29.053,34,28.5,34z M38.5,26h-7c-0.553,0-1-0.447-1-1s0.447-1,1-1h7
		c0.553,0,1,0.447,1,1S39.053,26,38.5,26z M44.21,25.71C44.02,25.89,43.77,26,43.5,26c-0.271,0-0.521-0.11-0.71-0.29
		C42.6,25.52,42.5,25.26,42.5,25c0-0.261,0.1-0.521,0.29-0.7c0.37-0.38,1.05-0.38,1.42-0.01c0.18,0.189,0.29,0.449,0.29,0.71
		C44.5,25.26,44.39,25.52,44.21,25.71z"/>
	<polygon points="51.5,42.414 36.914,57 51.5,57 	"/>
</g>
<g>
</g>
<g>
</g>
<g>
</g>
<g>
</g>
<g>
</g>
<g>
</g>
<g>
</g>
<g>
</g>
<g>
</g>
<g>
</g>
<g>
</g>
<g>
</g>
<g>
</g>
<g>
</g>
<g>
</g>
</svg>
