<?xml version="1.0" encoding="iso-8859-1"?>
<!-- Generator: Adobe Illustrator 19.0.0, SVG Export Plug-In . SVG Version: 6.00 Build 0)  -->
<svg version="1.1" id="Capa_1" xmlns="http://www.w3.org/2000/svg" xmlns:xlink="http://www.w3.org/1999/xlink" x="0px" y="0px"
	 viewBox="0 0 60 60" style="enable-background:new 0 0 60 60;" xml:space="preserve">
<g>
	<path d="M25.5,7h9c0.553,0,1-0.447,1-1V1c0-0.553-0.447-1-1-1h-9c-0.553,0-1,0.447-1,1v5C24.5,6.553,24.947,7,25.5,7z"/>
	<path d="M38.5,2c-0.553,0-1,0.447-1,1s0.447,1,1,1h14v54h-45V4h14c0.553,0,1-0.447,1-1s-0.447-1-1-1h-16v58h49V2H38.5z"/>
	<path d="M8.5,5v52h43V5h-11v3h-21V5H8.5z M28.5,48h-13c-0.553,0-1-0.447-1-1s0.447-1,1-1h13c0.553,0,1,0.447,1,1S29.053,48,28.5,48
		z M44.5,42h-29c-0.553,0-1-0.447-1-1s0.447-1,1-1h29c0.553,0,1,0.447,1,1S45.053,42,44.5,42z M44.5,35h-29c-0.553,0-1-0.447-1-1
		s0.447-1,1-1h29c0.553,0,1,0.447,1,1S45.053,35,44.5,35z M14.5,28c0-0.553,0.447-1,1-1h14c0.553,0,1,0.447,1,1s-0.447,1-1,1h-14
		C14.947,29,14.5,28.553,14.5,28z M32.5,28c0-0.271,0.1-0.521,0.29-0.71c0.38-0.38,1.04-0.37,1.42,0
		c0.189,0.189,0.29,0.439,0.29,0.71c0,0.27-0.11,0.52-0.29,0.71C34.02,28.89,33.77,29,33.5,29c-0.271,0-0.521-0.101-0.71-0.29
		C32.609,28.52,32.5,28.26,32.5,28z M44.5,29h-7c-0.553,0-1-0.447-1-1s0.447-1,1-1h7c0.553,0,1,0.447,1,1S45.053,29,44.5,29z
		 M44.5,21c0.553,0,1,0.447,1,1s-0.447,1-1,1h-29c-0.553,0-1-0.447-1-1s0.447-1,1-1H44.5z M28.5,15c0.553,0,1,0.447,1,1
		s-0.447,1-1,1h-13c-0.553,0-1-0.447-1-1s0.447-1,1-1H28.5z"/>
</g>
<g>
</g>
<g>
</g>
<g>
</g>
<g>
</g>
<g>
</g>
<g>
</g>
<g>
</g>
<g>
</g>
<g>
</g>
<g>
</g>
<g>
</g>
<g>
</g>
<g>
</g>
<g>
</g>
<g>
</g>
</svg>
