<?xml version="1.0" encoding="iso-8859-1"?>
<!-- Generator: Adobe Illustrator 19.0.0, SVG Export Plug-In . SVG Version: 6.00 Build 0)  -->
<svg version="1.1" id="Capa_1" xmlns="http://www.w3.org/2000/svg" xmlns:xlink="http://www.w3.org/1999/xlink" x="0px" y="0px"
	 viewBox="0 0 60 60" style="enable-background:new 0 0 60 60;" xml:space="preserve">
<g>
	<path d="M20,7h9c0.553,0,1-0.447,1-1V1c0-0.553-0.447-1-1-1h-9c-0.553,0-1,0.447-1,1v5C19,6.553,19.447,7,20,7z"/>
	<path d="M32,3c0,0.553,0.447,1,1,1h14v54H2V4h14c0.553,0,1-0.447,1-1s-0.447-1-1-1H0v58h49V2H33C32.447,2,32,2.447,32,3z"/>
	<path d="M3,5v52h28.414H33h13V43v-0.586V5H35v3H14V5H3z M37.29,24.3c0.37-0.38,1.05-0.38,1.42-0.01C38.89,24.479,39,24.739,39,25
		c0,0.26-0.11,0.52-0.29,0.71C38.52,25.89,38.27,26,38,26c-0.271,0-0.521-0.11-0.71-0.29C37.1,25.52,37,25.26,37,25
		C37,24.739,37.1,24.479,37.29,24.3z M10.29,32.29c0.37-0.36,1.05-0.37,1.42,0C11.89,32.479,12,32.739,12,33
		c0,0.26-0.11,0.52-0.29,0.71C11.52,33.89,11.26,34,11,34c-0.271,0-0.521-0.11-0.71-0.29C10.109,33.52,10,33.27,10,33
		C10,32.729,10.109,32.479,10.29,32.29z M10,25c0-0.553,0.447-1,1-1h5c0.553,0,1,0.447,1,1s-0.447,1-1,1h-5
		C10.447,26,10,25.553,10,25z M12.806,48.766c-0.031,0.918-1.045,1.262-1.707,0.707c-0.935-0.784-1.871-1.567-2.806-2.351
		c-0.99-0.83,0.433-2.237,1.414-1.415c0.414,0.347,0.828,0.693,1.241,1.04c0.268-2.261,1.005-4.441,3.196-5.582
		c1.142-0.594,2.154,1.132,1.009,1.727C12.983,44.023,12.879,46.599,12.806,48.766z M21.756,47.259
		c-0.344-0.615-1.86,0.565-2.267,0.717c-0.571,0.213-1.081,0.295-1.688,0.226c-1.169-0.134-2.156-0.89-2.669-1.932
		c-0.568-1.152,1.156-2.166,1.727-1.009c0.955,1.936,2.571,0.28,3.936-0.106c1.046-0.296,2.169,0.165,2.688,1.095
		C24.113,47.376,22.385,48.385,21.756,47.259z M26,24h7c0.553,0,1,0.447,1,1s-0.447,1-1,1h-7c-0.553,0-1-0.447-1-1S25.447,24,26,24z
		 M24,33c0,0.553-0.447,1-1,1h-7c-0.553,0-1-0.447-1-1s0.447-1,1-1h7C23.553,32,24,32.447,24,33z M22,25c0,0.26-0.11,0.52-0.29,0.71
		C21.52,25.89,21.27,26,21,26c-0.271,0-0.521-0.11-0.71-0.29C20.1,25.52,20,25.26,20,25c0-0.261,0.1-0.521,0.29-0.7
		c0.37-0.38,1.04-0.38,1.42-0.01C21.89,24.479,22,24.739,22,25z M20,16c0.553,0,1,0.447,1,1s-0.447,1-1,1h-9c-0.553,0-1-0.447-1-1
		s0.447-1,1-1H20z"/>
	<rect x="50" y="9" width="10" height="2"/>
	<path d="M57.015,0h-4.029C51.339,0,50,1.339,50,2.985V7h10V2.985C60,1.339,58.661,0,57.015,0z"/>
	<rect x="50" y="13" width="10" height="36"/>
	<path d="M50,51l4,6.413V59c0,0.553,0.447,1,1,1s1-0.447,1-1v-1.587L60,51H50z"/>
</g>
<g>
</g>
<g>
</g>
<g>
</g>
<g>
</g>
<g>
</g>
<g>
</g>
<g>
</g>
<g>
</g>
<g>
</g>
<g>
</g>
<g>
</g>
<g>
</g>
<g>
</g>
<g>
</g>
<g>
</g>
</svg>
