<?xml version="1.0" encoding="iso-8859-1"?>
<!-- Generator: Adobe Illustrator 19.0.0, SVG Export Plug-In . SVG Version: 6.00 Build 0)  -->
<svg version="1.1" id="Capa_1" xmlns="http://www.w3.org/2000/svg" xmlns:xlink="http://www.w3.org/1999/xlink" x="0px" y="0px"
	 viewBox="0 0 60 60" style="enable-background:new 0 0 60 60;" xml:space="preserve">
<path d="M60,30c0-4.464-2.941-8.252-6.987-9.534c0.728-1.405,1.118-2.975,1.118-4.609c0-2.678-1.036-5.188-2.918-7.07
	s-4.394-2.918-7.071-2.918c-1.634,0-3.204,0.39-4.608,1.118C38.253,2.942,34.464,0,30,0s-8.253,2.942-9.534,6.988
	c-1.405-0.728-2.974-1.118-4.608-1.118c-2.678,0-5.188,1.036-7.07,2.918c-3.156,3.156-3.756,7.913-1.802,11.68
	C2.94,21.749,0,25.537,0,30s2.94,8.251,6.985,9.533c-1.953,3.766-1.354,8.524,1.802,11.68c1.882,1.882,4.393,2.918,7.07,2.918
	c1.634,0,3.204-0.39,4.608-1.118C21.747,57.058,25.536,60,30,60s8.253-2.942,9.534-6.988c1.405,0.728,2.974,1.118,4.608,1.118
	c2.678,0,5.189-1.036,7.071-2.918s2.918-4.393,2.918-7.07c0-1.634-0.39-3.204-1.118-4.609C57.059,38.252,60,34.464,60,30z M30,2
	c3.773,0,6.937,2.629,7.775,6.149c-0.243,0.201-0.478,0.413-0.704,0.638L30,15.858l-7.071-7.071
	c-0.225-0.226-0.461-0.437-0.704-0.638C23.063,4.629,26.227,2,30,2z M2,30c0-3.774,2.63-6.938,6.151-7.775
	c0.2,0.242,0.41,0.478,0.636,0.704L15.858,30l-7.071,7.071c-0.226,0.226-0.436,0.462-0.636,0.704C4.63,36.938,2,33.774,2,30z M30,58
	c-3.773,0-6.937-2.629-7.775-6.149c0.243-0.201,0.478-0.413,0.704-0.638L30,44.142l7.071,7.071c0.225,0.226,0.461,0.437,0.704,0.638
	C36.937,55.371,33.773,58,30,58z M51.852,37.775c-0.201-0.243-0.412-0.478-0.638-0.704L44.142,30l7.072-7.071
	c0.225-0.225,0.437-0.461,0.638-0.704C55.371,23.064,58,26.227,58,30S55.371,36.936,51.852,37.775z"/>
<g>
</g>
<g>
</g>
<g>
</g>
<g>
</g>
<g>
</g>
<g>
</g>
<g>
</g>
<g>
</g>
<g>
</g>
<g>
</g>
<g>
</g>
<g>
</g>
<g>
</g>
<g>
</g>
<g>
</g>
</svg>
