<?xml version="1.0" encoding="iso-8859-1"?>
<!-- Generator: Adobe Illustrator 19.0.0, SVG Export Plug-In . SVG Version: 6.00 Build 0)  -->
<svg version="1.1" id="Capa_1" xmlns="http://www.w3.org/2000/svg" xmlns:xlink="http://www.w3.org/1999/xlink" x="0px" y="0px"
	 viewBox="0 0 57 57" style="enable-background:new 0 0 57 57;" xml:space="preserve">
<g>
	<path d="M49.38,15c-1.79-1.586-11.313-9.958-16.748-13.415C31.72,0.615,30.434,0,29,0s-2.72,0.615-3.632,1.585
		C19.933,5.042,10.41,13.414,8.62,15H1v42h55V15H49.38z M31.221,3.002c0.005,0.005,0.006,0.012,0.011,0.018
		c0.245,0.275,0.515,0.69,0.66,1.225c0.011,0.042,0.029,0.082,0.039,0.125C31.974,4.564,32,4.774,32,5c0,1.654-1.346,3-3,3
		s-3-1.346-3-3c0-0.226,0.026-0.436,0.069-0.631c0.009-0.043,0.028-0.083,0.039-0.125c0.145-0.535,0.415-0.949,0.66-1.224
		c0.005-0.005,0.006-0.012,0.011-0.018C27.328,2.391,28.116,2,29,2S30.672,2.391,31.221,3.002z M24,4.95c0,0.017,0,0.033,0,0.05
		c0,2.757,2.243,5,5,5s5-2.243,5-5c0-0.017,0-0.033,0-0.05c4.17,3.033,9.504,7.581,12.345,10.05H11.655
		C14.496,12.531,19.831,7.983,24,4.95z M52,53H5V19h47V53z"/>
	<path d="M29.882,42.468l4.807,4.807c0.391,0.391,0.391,1.023,0,1.414s-1.023,0.391-1.414,0L22.974,38.389L8.649,51H50v-8.56
		L39.063,32.414L29.882,42.468z"/>
	<path d="M23.724,36.311l4.743,4.743l9.794-10.727c0.179-0.196,0.429-0.313,0.694-0.325c0.263-0.019,0.524,0.083,0.72,0.262
		L50,39.727V21H7v28.787l15.356-13.52C22.752,35.92,23.351,35.938,23.724,36.311z M15,35.138c-3.071,0-5.569-2.498-5.569-5.568
		C9.431,26.498,11.929,24,15,24s5.569,2.498,5.569,5.569C20.569,32.64,18.071,35.138,15,35.138z"/>
</g>
<g>
</g>
<g>
</g>
<g>
</g>
<g>
</g>
<g>
</g>
<g>
</g>
<g>
</g>
<g>
</g>
<g>
</g>
<g>
</g>
<g>
</g>
<g>
</g>
<g>
</g>
<g>
</g>
<g>
</g>
</svg>
