<?xml version="1.0" encoding="iso-8859-1"?>
<!-- Generator: Adobe Illustrator 19.0.0, SVG Export Plug-In . SVG Version: 6.00 Build 0)  -->
<svg version="1.1" id="Capa_1" xmlns="http://www.w3.org/2000/svg" xmlns:xlink="http://www.w3.org/1999/xlink" x="0px" y="0px"
	 viewBox="0 0 61.168 61.168" style="enable-background:new 0 0 61.168 61.168;" xml:space="preserve">
<path d="M50.216,37.584h-7.161l3.047-4.4c5.755-7.671,4.922-20.28-1.781-26.982c-3.621-3.622-8.437-5.617-13.56-5.617
	c-5.122,0-9.938,1.995-13.56,5.617c-6.703,6.702-7.536,19.312-1.804,26.952l3.068,4.431h-7.513L0,60.584h61.168L50.216,37.584z
	 M30.938,12.584c3.859,0,7,3.141,7,7s-3.141,7-7,7s-7-3.141-7-7S27.078,12.584,30.938,12.584z M12.216,39.584h7.634l10.911,15.757
	l10.91-15.757h7.281l9.048,19H3.168L12.216,39.584z"/>
<g>
</g>
<g>
</g>
<g>
</g>
<g>
</g>
<g>
</g>
<g>
</g>
<g>
</g>
<g>
</g>
<g>
</g>
<g>
</g>
<g>
</g>
<g>
</g>
<g>
</g>
<g>
</g>
<g>
</g>
</svg>
