<?xml version="1.0" encoding="iso-8859-1"?>
<!-- Generator: Adobe Illustrator 19.0.0, SVG Export Plug-In . SVG Version: 6.00 Build 0)  -->
<svg version="1.1" id="Capa_1" xmlns="http://www.w3.org/2000/svg" xmlns:xlink="http://www.w3.org/1999/xlink" x="0px" y="0px"
	 viewBox="0 0 53.602 53.602" style="enable-background:new 0 0 53.602 53.602;" xml:space="preserve">
<path d="M14.801,7.301c-7.904,0-12.411,3.814-13.398,11.338c-0.344,2.616-0.2,5.447,0.426,8.416
	C4.969,41.941,12.619,51.2,14.8,53.602c2.184-2.401,9.832-11.66,12.973-26.547c0.626-2.969,0.77-5.8,0.426-8.416
	C27.211,11.115,22.705,7.301,14.801,7.301z M14.801,28.301c-4.653,0-8.438-3.785-8.438-8.438s3.785-8.438,8.438-8.438
	s8.438,3.785,8.438,8.438S19.454,28.301,14.801,28.301z"/>
<path d="M52.199,11.338C51.211,3.814,46.705,0,38.801,0c-7.274,0-11.663,3.24-13.087,9.619c2.13,2.105,3.477,5.055,3.972,8.824
	c0.365,2.783,0.216,5.785-0.445,8.921c-0.153,0.727-0.326,1.428-0.499,2.129c3.594,9.196,8.401,14.984,10.058,16.808
	c2.184-2.401,9.832-11.66,12.973-26.547C52.399,16.785,52.542,13.954,52.199,11.338z M38.801,21c-4.653,0-8.437-3.785-8.437-8.438
	s3.785-8.438,8.437-8.438s8.438,3.785,8.438,8.438S43.454,21,38.801,21z"/>
<g>
</g>
<g>
</g>
<g>
</g>
<g>
</g>
<g>
</g>
<g>
</g>
<g>
</g>
<g>
</g>
<g>
</g>
<g>
</g>
<g>
</g>
<g>
</g>
<g>
</g>
<g>
</g>
<g>
</g>
</svg>
