<?xml version="1.0" encoding="iso-8859-1"?>
<!-- Generator: Adobe Illustrator 19.0.0, SVG Export Plug-In . SVG Version: 6.00 Build 0)  -->
<svg version="1.1" id="Capa_1" xmlns="http://www.w3.org/2000/svg" xmlns:xlink="http://www.w3.org/1999/xlink" x="0px" y="0px"
	 viewBox="0 0 56.414 56.414" style="enable-background:new 0 0 56.414 56.414;" xml:space="preserve">
<g>
	<path d="M1.415,14c0.201,0,0.404-0.061,0.58-0.187C2.199,13.669,22.621-0.591,41.814,13.8c0.442,0.332,1.069,0.243,1.399-0.2
		c0.332-0.441,0.242-1.068-0.2-1.399C22.665-3.063,1.05,12.032,0.833,12.187c-0.449,0.32-0.554,0.945-0.232,1.395
		C0.796,13.854,1.103,14,1.415,14z"/>
	<path d="M52.917,26.134c-0.479,0.274-0.644,0.886-0.37,1.364c0.192,0.337,4.622,8.332-2.84,15.795
		c-2.741,2.739-9.128,3.895-13.912,1.172c-4.812-2.738-6.378-8.497-4.412-16.218c0.137-0.535-0.187-1.08-0.722-1.216
		c-0.537-0.143-1.079,0.187-1.216,0.722c-2.98,11.703,2.079,16.583,5.36,18.45c2.143,1.219,4.695,1.809,7.215,1.808
		c3.501,0,6.935-1.138,9.101-3.304c8.568-8.568,3.214-18.111,3.159-18.207C54.004,26.023,53.396,25.859,52.917,26.134z"/>
	<path d="M45.299,0H31.295l-3.703,3.691c4.301,0.563,8.815,1.979,13.326,4.692c0.704,0.423,1.52,0.665,2.34,0.622
		c0.719-0.038,1.505,0.157,2.388,0.816c1,0.746,1.721,1.875,1.719,3.122c-0.004,2.167-1.768,3.928-3.936,3.928
		c-1.161,0-2.201-0.509-2.92-1.312c-0.37-0.413-0.78-0.796-1.24-1.107c-5.967-4.031-12.006-5.236-17.397-5.059L5.999,25.213
		l0.008,0.008L0,31.213l25.146,25.201l8.56-8.537c-3.076-1.791-9.546-7.264-6.234-20.48c0.357-1.423,1.65-2.492,3.114-2.394
		c1.936,0.129,3.19,1.95,2.735,3.737c-1.748,6.866-0.551,11.702,3.463,13.986c0.458,0.261,0.938,0.476,1.43,0.654l13.269-13.233
		c-0.314-1.014-0.655-1.627-0.667-1.647c-0.829-1.435-0.337-3.27,1.098-4.098c1.437-0.828,3.27-0.337,4.098,1.098
		c0.016,0.027,0.031,0.057,0.047,0.084l0.356-0.355V11.089L45.299,0z"/>
</g>
<g>
</g>
<g>
</g>
<g>
</g>
<g>
</g>
<g>
</g>
<g>
</g>
<g>
</g>
<g>
</g>
<g>
</g>
<g>
</g>
<g>
</g>
<g>
</g>
<g>
</g>
<g>
</g>
<g>
</g>
</svg>
