<?xml version="1.0" encoding="iso-8859-1"?>
<!-- Generator: Adobe Illustrator 19.0.0, SVG Export Plug-In . SVG Version: 6.00 Build 0)  -->
<svg version="1.1" id="Capa_1" xmlns="http://www.w3.org/2000/svg" xmlns:xlink="http://www.w3.org/1999/xlink" x="0px" y="0px"
	 viewBox="0 0 57.997 57.997" style="enable-background:new 0 0 57.997 57.997;" xml:space="preserve">
<g>
	<path d="M50.184,9.217l2.51-2.51c0.391-0.391,0.391-1.023,0-1.414s-1.023-0.391-1.414,0l-2.51,2.509
		C43.386,2.767,36.405,0,28.997,0C22.953,0,17.214,1.84,12.32,5.294c-0.919-0.829-2.085-1.297-3.333-1.297
		c-1.336,0-2.591,0.52-3.535,1.464c-1.882,1.882-1.929,4.895-0.176,6.855C-2.769,23.73-1.462,39.559,8.482,49.503
		c5.478,5.478,12.76,8.494,20.506,8.494s15.028-3.017,20.506-8.494C60.563,38.434,60.788,20.573,50.184,9.217z M48.08,48.089
		c-5.1,5.1-11.88,7.908-19.092,7.908s-13.992-2.809-19.092-7.908C0.652,38.844-0.58,24.133,6.872,13.511
		c0.157,0.074,0.318,0.136,0.482,0.193c0.058,0.02,0.118,0.035,0.176,0.053c0.247,0.075,0.497,0.135,0.755,0.171
		c0.153,0.023,0.307,0.037,0.463,0.045c0.081,0.004,0.158,0.023,0.239,0.023c1.336,0,2.592-0.521,3.535-1.465
		c0.217-0.217,0.403-0.454,0.571-0.7c0.065-0.094,0.118-0.192,0.176-0.289c0.089-0.151,0.171-0.304,0.243-0.462
		c0.059-0.13,0.115-0.259,0.162-0.392c0.043-0.122,0.076-0.246,0.11-0.371c0.166-0.606,0.215-1.23,0.149-1.851
		c-0.006-0.055-0.008-0.11-0.016-0.165C13.89,8.095,13.844,7.893,13.79,7.69c-0.017-0.062-0.035-0.122-0.054-0.184
		C13.671,7.3,13.599,7.098,13.507,6.9c-0.003-0.006-0.004-0.012-0.007-0.017C18.047,3.686,23.385,2,28.997,2
		c6.874,0,13.353,2.559,18.36,7.216l-3.553,3.553c-4.057-3.709-9.27-5.762-14.816-5.762c-5.883,0-11.407,2.285-15.557,6.434
		c-8.578,8.578-8.578,22.534,0,31.112c4.149,4.149,9.674,6.435,15.557,6.435s11.407-2.285,15.557-6.435
		c3.46-3.46,5.646-8.007,6.242-12.867c0.838-0.224,1.614-0.645,2.244-1.274c1.948-1.949,1.948-5.122,0-7.071
		c-0.872-0.872-2.014-1.361-3.234-1.435c-0.971-2.859-2.53-5.503-4.565-7.735l3.54-3.539C58.595,21.207,58.369,37.799,48.08,48.089z
		 M47.758,22.2c-0.286,0.106-0.558,0.24-0.82,0.397c-0.05,0.03-0.105,0.051-0.154,0.082c-0.294,0.19-0.573,0.407-0.826,0.661
		c-0.24,0.24-0.452,0.502-0.636,0.779c-0.031,0.047-0.049,0.098-0.078,0.146c-0.145,0.234-0.279,0.474-0.382,0.728
		c-0.004,0.011-0.006,0.022-0.01,0.033c-0.232,0.582-0.359,1.206-0.359,1.851c0,0.647,0.127,1.274,0.361,1.858
		c0.003,0.008,0.004,0.017,0.008,0.025c0.103,0.254,0.238,0.495,0.383,0.73c0.029,0.047,0.047,0.098,0.077,0.144
		c0.184,0.277,0.395,0.538,0.636,0.779c0.214,0.214,0.447,0.399,0.691,0.568c0.099,0.069,0.205,0.125,0.309,0.186
		c0.144,0.084,0.288,0.166,0.44,0.235c0.144,0.067,0.29,0.123,0.44,0.175c0.11,0.038,0.221,0.071,0.334,0.101
		c0.185,0.051,0.37,0.095,0.561,0.125c0.014,0.002,0.026,0.007,0.04,0.009c-0.604,4.281-2.585,8.271-5.643,11.329
		c-3.771,3.771-8.794,5.849-14.143,5.849s-10.371-2.077-14.143-5.849c-7.798-7.798-7.798-20.486,0-28.284
		c3.771-3.771,8.794-5.848,14.143-5.848c5.012,0,9.724,1.844,13.402,5.176L28.281,28.29c-0.391,0.391-0.391,1.023,0,1.414
		c0.195,0.195,0.451,0.293,0.707,0.293s0.512-0.098,0.707-0.293l14.104-14.103c1.734,1.92,3.109,4.153,3.987,6.585
		C47.776,22.19,47.768,22.196,47.758,22.2z"/>
	<path d="M31.109,31.118c-0.586,0.586-1.354,0.879-2.121,0.879s-1.535-0.293-2.121-0.879c-1.172-1.172-1.172-3.071,0-4.242
		l9.665-9.664c-2.23-1.432-4.825-2.208-7.544-2.208c-3.744,0-7.26,1.454-9.899,4.094s-4.094,6.155-4.094,9.899
		s1.454,7.26,4.094,9.899s6.155,4.094,9.899,4.094s7.26-1.454,9.899-4.094s4.094-6.155,4.094-9.899c0-2.719-0.776-5.313-2.207-7.543
		L31.109,31.118z"/>
</g>
<g>
</g>
<g>
</g>
<g>
</g>
<g>
</g>
<g>
</g>
<g>
</g>
<g>
</g>
<g>
</g>
<g>
</g>
<g>
</g>
<g>
</g>
<g>
</g>
<g>
</g>
<g>
</g>
<g>
</g>
</svg>
