<?xml version="1.0" encoding="iso-8859-1"?>
<!-- Generator: Adobe Illustrator 19.0.0, SVG Export Plug-In . SVG Version: 6.00 Build 0)  -->
<svg version="1.1" id="Capa_1" xmlns="http://www.w3.org/2000/svg" xmlns:xlink="http://www.w3.org/1999/xlink" x="0px" y="0px"
	 viewBox="0 0 60 60" style="enable-background:new 0 0 60 60;" xml:space="preserve">
<path d="M56,4.5H33c-0.736,0-1.41,0.222-2,0.574V50.5h-2V5.074C28.41,4.722,27.736,4.5,27,4.5H4c-2.206,0-4,1.794-4,4v39
	c0,2.206,1.794,4,4,4h22c1.157,0,3,1.373,3,3c0,0.553,0.448,1,1,1s1-0.447,1-1c0-1.627,1.843-3,3-3h22c2.206,0,4-1.794,4-4v-39
	C60,6.294,58.206,4.5,56,4.5z"/>
<g>
</g>
<g>
</g>
<g>
</g>
<g>
</g>
<g>
</g>
<g>
</g>
<g>
</g>
<g>
</g>
<g>
</g>
<g>
</g>
<g>
</g>
<g>
</g>
<g>
</g>
<g>
</g>
<g>
</g>
</svg>
