<?xml version="1.0" encoding="iso-8859-1"?>
<!-- Generator: Adobe Illustrator 19.0.0, SVG Export Plug-In . SVG Version: 6.00 Build 0)  -->
<svg version="1.1" id="Capa_1" xmlns="http://www.w3.org/2000/svg" xmlns:xlink="http://www.w3.org/1999/xlink" x="0px" y="0px"
	 viewBox="0 0 58.424 58.424" style="enable-background:new 0 0 58.424 58.424;" xml:space="preserve">
<path d="M57.417,14.489L43.007,0v8.652c-3.874,0.031-6.7,0.909-8.556,1.771H1.007v48h48V22.945L57.417,14.489z M43.222,10.651
	c0.247,0,0.498,0.004,0.755,0.012l1.03,0.03V4.848l9.59,9.642l-5.59,5.619v0l-0.948,0.953l-3.052,3.069v-5.602v-0.001l-0.765-0.185
	c-0.036-0.009-0.756-0.179-1.928-0.237c-3.221-0.161-9.887,0.532-15.393,7.803c0.128-2.78,1.007-7.121,4.672-10.93
	c0.449-0.467,0.932-0.927,1.469-1.374c0.001-0.001,0.044-0.04,0.123-0.103c0.004-0.003,0.007-0.005,0.011-0.009
	c0.031-0.024,0.073-0.056,0.114-0.087c0.022-0.017,0.043-0.032,0.067-0.051c0.036-0.027,0.081-0.058,0.124-0.088
	c0.045-0.032,0.092-0.065,0.144-0.1c0.035-0.024,0.074-0.05,0.113-0.075c0.078-0.051,0.161-0.104,0.252-0.16
	c0.024-0.015,0.049-0.03,0.074-0.045C35.532,12.014,38.539,10.651,43.222,10.651z"/>
<g>
</g>
<g>
</g>
<g>
</g>
<g>
</g>
<g>
</g>
<g>
</g>
<g>
</g>
<g>
</g>
<g>
</g>
<g>
</g>
<g>
</g>
<g>
</g>
<g>
</g>
<g>
</g>
<g>
</g>
</svg>
