<?xml version="1.0" encoding="iso-8859-1"?>
<!-- Generator: Adobe Illustrator 19.0.0, SVG Export Plug-In . SVG Version: 6.00 Build 0)  -->
<svg version="1.1" id="Capa_1" xmlns="http://www.w3.org/2000/svg" xmlns:xlink="http://www.w3.org/1999/xlink" x="0px" y="0px"
	 viewBox="0 0 60 60" style="enable-background:new 0 0 60 60;" xml:space="preserve">
<g>
	<path d="M38.692,31.329c0.623-2.321,0.303-4.747-0.898-6.828c-0.228-0.394-0.49-0.761-0.77-1.111l7.584-7.584
		c0.912,1.01,1.737,2.125,2.444,3.35c1.732,3,2.638,6.432,2.62,9.924c-0.003,0.552,0.443,1.002,0.995,1.005c0.001,0,0.003,0,0.005,0
		c0.55,0,0.997-0.444,1-0.995c0.008-1.597-0.169-3.18-0.504-4.725l2.273-0.61c0.534-0.143,0.85-0.691,0.707-1.225
		c-0.143-0.534-0.692-0.853-1.225-0.707l-2.269,0.608c-0.369-1.168-0.837-2.302-1.4-3.393l2.03-1.172
		c0.479-0.276,0.642-0.888,0.366-1.366c-0.276-0.479-0.889-0.644-1.366-0.366l-2.045,1.181c-0.67-1.047-1.406-2.029-2.219-2.921
		l1.657-1.657c0.391-0.391,0.391-1.023,0-1.414s-1.023-0.391-1.414,0l-1.653,1.653c-0.913-0.832-1.894-1.568-2.921-2.223
		l1.176-2.036c0.276-0.479,0.113-1.09-0.366-1.366c-0.479-0.277-1.091-0.113-1.366,0.366l-1.179,2.042
		c-1.091-0.562-2.225-1.023-3.391-1.393l0.613-2.288c0.143-0.533-0.174-1.082-0.707-1.225c-0.537-0.147-1.082,0.174-1.225,0.707
		l-0.613,2.288C33.439,7.584,32.226,7.417,31,7.358V5c0-0.553-0.448-1-1-1s-1,0.447-1,1v2.352c-1.217,0.054-2.434,0.201-3.641,0.465
		l-0.605-2.258c-0.143-0.533-0.688-0.854-1.225-0.707c-0.533,0.143-0.85,0.691-0.707,1.225l0.606,2.263
		c-1.151,0.366-2.278,0.849-3.383,1.42l-1.18-2.044C18.589,7.236,17.978,7.072,17.5,7.35c-0.479,0.276-0.642,0.888-0.366,1.366
		l1.172,2.029c-1.04,0.667-2.012,1.415-2.91,2.237l-1.66-1.66c-0.391-0.391-1.023-0.391-1.414,0s-0.391,1.023,0,1.414l1.664,1.664
		c-0.825,0.909-1.57,1.883-2.228,2.913l-2.043-1.179c-0.48-0.277-1.09-0.113-1.366,0.366c-0.276,0.479-0.112,1.09,0.366,1.366
		l2.045,1.181c-0.56,1.085-1.03,2.218-1.403,3.387l-2.281-0.612c-0.531-0.145-1.082,0.174-1.225,0.707
		c-0.143,0.533,0.173,1.082,0.707,1.225l2.281,0.612c-0.338,1.535-0.521,3.115-0.516,4.721c0.001,0.552,0.449,0.997,1,0.997
		c0.001,0,0.002,0,0.003,0c0.552-0.002,0.999-0.451,0.997-1.003c-0.015-4.964,1.852-9.68,5.076-13.267l7.57,7.57
		c-0.765,0.957-1.336,2.067-1.663,3.287c-0.623,2.321-0.303,4.747,0.898,6.828C23.81,36.275,26.798,38,30.007,38
		c1.571,0,3.125-0.418,4.492-1.207C36.581,35.592,38.07,33.651,38.692,31.329z M29.993,20c-1.571,0-3.125,0.418-4.492,1.207
		c-0.395,0.228-0.76,0.49-1.111,0.768l-7.579-7.579c1.017-0.922,2.132-1.748,3.345-2.448c7.573-4.373,16.868-3.118,23.037,2.445
		l-7.585,7.585C34.033,20.725,32.062,20,29.993,20z"/>
	<path d="M27,47.5h-1.251c-0.125-1.882-0.624-3.746-1.486-5.502l1.093-0.631c0.479-0.276,0.642-0.888,0.366-1.366
		c-0.277-0.479-0.89-0.643-1.366-0.366l-1.101,0.635c-0.496-0.734-1.033-1.435-1.643-2.062l-5.567,6.183
		c0.218,0.267,0.423,0.547,0.598,0.851c0.902,1.562,1.08,3.346,0.642,4.963l7.597,3.382c0.485-1.318,0.757-2.696,0.854-4.087H27
		c0.552,0,1-0.447,1-1S27.552,47.5,27,47.5z"/>
	<path d="M19.238,36.232l0.628-1.088c0.276-0.479,0.112-1.09-0.366-1.366c-0.48-0.276-1.09-0.113-1.366,0.366l-0.632,1.094
		c-1.704-0.838-3.567-1.356-5.502-1.49V32.5c0-0.553-0.448-1-1-1s-1,0.447-1,1v1.261c-1.91,0.13-3.787,0.611-5.513,1.458
		l4.163,7.211c0.748-0.29,1.542-0.448,2.345-0.448c1.286,0,2.515,0.394,3.56,1.075l5.571-6.187
		C19.838,36.645,19.54,36.435,19.238,36.232z"/>
	<path d="M43.356,45.241c0.175-0.304,0.38-0.583,0.598-0.851l-5.567-6.183c-0.61,0.627-1.147,1.327-1.643,2.062l-1.101-0.635
		c-0.477-0.276-1.089-0.113-1.366,0.366c-0.276,0.479-0.112,1.09,0.366,1.366l1.093,0.631c-0.861,1.756-1.361,3.621-1.486,5.502H33
		c-0.552,0-1,0.447-1,1s0.448,1,1,1h1.264c0.096,1.391,0.369,2.769,0.854,4.087l7.597-3.382
		C42.276,48.587,42.454,46.803,43.356,45.241z"/>
	<path d="M50,32.5c0-0.553-0.448-1-1-1s-1,0.447-1,1v1.247c-1.935,0.134-3.798,0.652-5.502,1.49l-0.632-1.094
		c-0.276-0.479-0.886-0.643-1.366-0.366c-0.479,0.276-0.642,0.888-0.366,1.366l0.628,1.088c-0.303,0.203-0.601,0.413-0.888,0.638
		l5.571,6.187c1.045-0.682,2.275-1.075,3.56-1.075c0.803,0,1.597,0.158,2.345,0.448l4.163-7.211
		c-1.726-0.847-3.603-1.328-5.513-1.458V32.5z"/>
	<path d="M56.987,43.092c0.099-0.203,0.19-0.409,0.284-0.614c0.121-0.266,0.248-0.528,0.361-0.798
		c0.217-0.511,0.417-1.031,0.606-1.557c0.036-0.1,0.068-0.201,0.102-0.301c0.165-0.475,0.318-0.956,0.46-1.442
		c0.014-0.048,0.032-0.094,0.046-0.143c0.003-0.011,0.002-0.022,0.004-0.032C59.593,35.595,60,32.845,60,30C60,13.458,46.542,0,30,0
		S0,13.458,0,30c0,2.845,0.407,5.595,1.15,8.205c0.003,0.011,0.001,0.022,0.004,0.032c0.014,0.048,0.032,0.095,0.046,0.143
		c0.142,0.486,0.295,0.966,0.46,1.442c0.035,0.1,0.067,0.202,0.102,0.301c0.189,0.525,0.389,1.045,0.606,1.557
		c0.114,0.27,0.24,0.532,0.361,0.798c0.094,0.205,0.185,0.411,0.284,0.614c0.18,0.372,0.37,0.737,0.564,1.1
		c0.03,0.056,0.06,0.113,0.091,0.169C6.66,49.867,11.302,54.3,16.99,57.029c0.007,0.003,0.015,0.007,0.022,0.011
		c0.362,0.173,0.728,0.338,1.098,0.497c0.17,0.074,0.341,0.145,0.513,0.216c0.303,0.124,0.607,0.247,0.916,0.362
		c0.297,0.111,0.598,0.212,0.899,0.314c0.188,0.063,0.37,0.135,0.559,0.195c0.01,0.003,0.02,0.002,0.03,0.004
		C23.861,59.518,26.875,60,30,60s6.139-0.482,8.974-1.373c0.01-0.003,0.02-0.001,0.03-0.004c0.189-0.06,0.372-0.132,0.559-0.195
		c0.301-0.102,0.602-0.203,0.899-0.314c0.309-0.115,0.612-0.238,0.916-0.362c0.172-0.071,0.343-0.142,0.513-0.216
		c0.37-0.159,0.736-0.324,1.098-0.497c0.007-0.003,0.015-0.007,0.022-0.011c5.687-2.73,10.33-7.162,13.322-12.669
		c0.031-0.056,0.061-0.113,0.091-0.169C56.618,43.829,56.808,43.464,56.987,43.092z M5.099,46.712
		c0.127,0.188,0.261,0.37,0.392,0.555c-0.112-0.158-0.238-0.305-0.347-0.466C5.125,46.774,5.115,46.742,5.099,46.712z M8.137,50.512
		c0.199,0.212,0.398,0.426,0.603,0.632C8.535,50.938,8.337,50.724,8.137,50.512z M6.372,48.452c0.231,0.295,0.465,0.586,0.706,0.872
		C6.836,49.038,6.602,48.747,6.372,48.452z M12.551,54.396c-0.073-0.052-0.138-0.112-0.21-0.165
		c0.094,0.069,0.189,0.135,0.284,0.202C12.601,54.418,12.574,54.412,12.551,54.396z M10.149,52.466
		c0.183,0.161,0.366,0.322,0.553,0.479C10.515,52.788,10.332,52.627,10.149,52.466z M23.003,57.115
		c0.394-0.549,0.758-1.113,1.07-1.7l-7.603-3.385c-0.387,0.602-0.878,1.143-1.462,1.6c-3.682-2.344-6.784-5.52-9.032-9.267
		c0.281-0.343,0.591-0.662,0.938-0.941l-4.153-7.194c-0.015,0.01-0.031,0.022-0.046,0.032C2.253,34.247,2,32.153,2,30
		C2,14.561,14.561,2,30,2s28,12.561,28,28c0,2.153-0.253,4.247-0.715,6.262c-0.015-0.01-0.031-0.022-0.046-0.032l-4.153,7.194
		c0.347,0.279,0.656,0.598,0.938,0.941c-2.249,3.747-5.35,6.923-9.032,9.267c-0.583-0.458-1.075-0.999-1.462-1.6l-7.603,3.385
		c0.312,0.587,0.676,1.151,1.07,1.7C34.76,57.692,32.415,58,30,58S25.24,57.692,23.003,57.115z M47.376,54.433
		c0.095-0.068,0.19-0.134,0.284-0.202c-0.072,0.053-0.138,0.113-0.21,0.165C47.426,54.412,47.399,54.418,47.376,54.433z
		 M49.852,52.465c-0.183,0.162-0.366,0.323-0.554,0.48C49.485,52.788,49.669,52.627,49.852,52.465z M51.26,51.144
		c0.206-0.207,0.404-0.42,0.603-0.633C51.663,50.724,51.465,50.938,51.26,51.144z M54.856,46.802
		c-0.109,0.161-0.235,0.308-0.347,0.466c0.131-0.185,0.265-0.368,0.392-0.556C54.885,46.742,54.875,46.774,54.856,46.802z
		 M52.921,49.326c0.242-0.287,0.477-0.58,0.709-0.875C53.398,48.747,53.163,49.039,52.921,49.326z"/>
</g>
<g>
</g>
<g>
</g>
<g>
</g>
<g>
</g>
<g>
</g>
<g>
</g>
<g>
</g>
<g>
</g>
<g>
</g>
<g>
</g>
<g>
</g>
<g>
</g>
<g>
</g>
<g>
</g>
<g>
</g>
</svg>
