<?xml version="1.0" encoding="iso-8859-1"?>
<!-- Generator: Adobe Illustrator 19.0.0, SVG Export Plug-In . SVG Version: 6.00 Build 0)  -->
<svg version="1.1" id="Capa_1" xmlns="http://www.w3.org/2000/svg" xmlns:xlink="http://www.w3.org/1999/xlink" x="0px" y="0px"
	 viewBox="0 0 58 58" style="enable-background:new 0 0 58 58;" xml:space="preserve">
<g>
	<path d="M29,24c-2.757,0-5,2.243-5,5s2.243,5,5,5s5-2.243,5-5S31.757,24,29,24z"/>
	<path d="M56,27h-2.087c-0.429-5.392-2.574-10.305-5.89-14.195l1.483-1.483c0.781-0.781,0.781-2.047,0-2.828s-2.047-0.781-2.828,0
		l-1.483,1.483C41.305,6.661,36.392,4.516,31,4.087V2c0-1.104-0.896-2-2-2s-2,0.896-2,2v2.087
		c-5.392,0.429-10.305,2.573-14.195,5.89l-1.483-1.483c-0.781-0.781-2.047-0.781-2.828,0s-0.781,2.047,0,2.828l1.483,1.483
		C6.661,16.695,4.516,21.608,4.087,27H2c-1.104,0-2,0.896-2,2s0.896,2,2,2h2.087c0.429,5.392,2.574,10.305,5.89,14.195l-1.483,1.483
		c-0.781,0.781-0.781,2.047,0,2.828c0.391,0.391,0.902,0.586,1.414,0.586s1.023-0.195,1.414-0.586l1.483-1.483
		c3.89,3.316,8.803,5.461,14.195,5.89V56c0,1.104,0.896,2,2,2s2-0.896,2-2v-2.087c5.392-0.429,10.305-2.573,14.195-5.89l1.483,1.483
		c0.391,0.391,0.902,0.586,1.414,0.586s1.023-0.195,1.414-0.586c0.781-0.781,0.781-2.047,0-2.828l-1.483-1.483
		c3.316-3.89,5.461-8.803,5.89-14.195H56c1.104,0,2-0.896,2-2S57.104,27,56,27z M29,50C17.421,50,8,40.579,8,29S17.421,8,29,8
		s21,9.421,21,21S40.579,50,29,50z"/>
</g>
<g>
</g>
<g>
</g>
<g>
</g>
<g>
</g>
<g>
</g>
<g>
</g>
<g>
</g>
<g>
</g>
<g>
</g>
<g>
</g>
<g>
</g>
<g>
</g>
<g>
</g>
<g>
</g>
<g>
</g>
</svg>
