<?xml version="1.0" encoding="iso-8859-1"?>
<!-- Generator: Adobe Illustrator 19.0.0, SVG Export Plug-In . SVG Version: 6.00 Build 0)  -->
<svg version="1.1" id="Capa_1" xmlns="http://www.w3.org/2000/svg" xmlns:xlink="http://www.w3.org/1999/xlink" x="0px" y="0px"
	 viewBox="0 0 60 60" style="enable-background:new 0 0 60 60;" xml:space="preserve">
<path d="M55,31h4c0.553,0,1-0.447,1-1s-0.447-1-1-1h-4c-0.007,0-0.013,0.004-0.021,0.004c-0.059-1.506-0.249-3.014-0.586-4.507
	c0.005-0.001,0.009,0,0.014-0.002l3.863-1.035c0.533-0.143,0.85-0.691,0.707-1.225s-0.689-0.848-1.225-0.707l-3.863,1.035
	c-0.008,0.002-0.013,0.008-0.02,0.01c-0.445-1.427-1.024-2.832-1.742-4.198c0.007-0.004,0.016-0.005,0.023-0.01l3.464-2
	c0.479-0.276,0.643-0.888,0.366-1.366c-0.277-0.479-0.891-0.644-1.366-0.366l-3.464,2c-0.01,0.006-0.016,0.016-0.026,0.023
	c-0.824-1.306-1.748-2.513-2.761-3.613c0.006-0.006,0.015-0.008,0.021-0.014l2.828-2.828c0.391-0.391,0.391-1.023,0-1.414
	s-1.023-0.391-1.414,0l-2.828,2.828c-0.007,0.007-0.009,0.016-0.015,0.023c-1.125-1.039-2.33-1.965-3.604-2.769
	c0.004-0.007,0.011-0.012,0.015-0.02l2-3.464C45.643,4.907,45.479,4.296,45,4.02c-0.478-0.276-1.09-0.114-1.366,0.366l-2,3.464
	c-0.005,0.009-0.005,0.019-0.009,0.028c-1.348-0.707-2.754-1.289-4.201-1.739c0.003-0.01,0.01-0.018,0.013-0.028l1.035-3.863
	c0.143-0.533-0.174-1.082-0.707-1.225c-0.53-0.141-1.082,0.174-1.225,0.707l-1.035,3.863c-0.003,0.011,0,0.022-0.002,0.033
	c-1.408-0.318-2.843-0.519-4.291-0.59C31.144,4.984,31.074,4.938,31,4.895V1c0-0.553-0.447-1-1-1s-1,0.447-1,1v3.895
	c-0.073,0.042-0.142,0.088-0.209,0.139c-1.435,0.068-2.871,0.265-4.294,0.586c-0.002-0.009,0.001-0.018-0.002-0.027L23.46,1.729
	c-0.142-0.534-0.689-0.849-1.225-0.707c-0.533,0.143-0.85,0.691-0.707,1.225l1.035,3.863c0.002,0.009,0.009,0.016,0.011,0.025
	c-1.427,0.446-2.831,1.027-4.198,1.746c-0.005-0.01-0.005-0.022-0.011-0.032l-2-3.464C16.089,3.905,15.476,3.743,15,4.02
	c-0.479,0.276-0.643,0.888-0.366,1.366l2,3.464c0.004,0.008,0.011,0.013,0.016,0.02c-1.306,0.824-2.509,1.751-3.608,2.764
	c-0.005-0.006-0.007-0.013-0.012-0.019l-2.828-2.828c-0.391-0.391-1.023-0.391-1.414,0s-0.391,1.023,0,1.414l2.828,2.828
	c0.003,0.003,0.008,0.004,0.011,0.008c-1.039,1.125-1.958,2.336-2.761,3.611c-0.006-0.004-0.009-0.01-0.016-0.014l-3.464-2
	C4.908,14.356,4.296,14.521,4.02,15c-0.276,0.479-0.112,1.09,0.366,1.366l3.464,2c0.007,0.004,0.015,0.005,0.022,0.009
	c-0.706,1.348-1.289,2.753-1.739,4.199c-0.008-0.002-0.014-0.009-0.022-0.011l-3.863-1.035c-0.531-0.14-1.082,0.174-1.225,0.707
	s0.174,1.082,0.707,1.225l3.863,1.035c0.008,0.002,0.016,0.001,0.024,0.003c-0.334,1.478-0.531,2.986-0.594,4.506
	C5.015,29.004,5.008,29,5,29H1c-0.553,0-1,0.447-1,1s0.447,1,1,1h4c0.007,0,0.013-0.004,0.021-0.004
	c0.059,1.506,0.249,3.015,0.586,4.508c-0.005,0.001-0.009,0-0.014,0.001L1.729,36.54c-0.533,0.143-0.85,0.691-0.707,1.225
	c0.119,0.447,0.523,0.741,0.965,0.741c0.086,0,0.173-0.011,0.26-0.034l3.863-1.035c0.008-0.002,0.013-0.008,0.02-0.01
	c0.445,1.427,1.024,2.833,1.743,4.199c-0.008,0.004-0.016,0.004-0.024,0.008l-3.464,2C3.907,43.91,3.743,44.521,4.02,45
	c0.186,0.321,0.521,0.5,0.867,0.5c0.17,0,0.342-0.043,0.499-0.134l3.464-2c0.01-0.006,0.016-0.016,0.026-0.023
	c0.824,1.306,1.748,2.513,2.761,3.613c-0.006,0.006-0.015,0.008-0.021,0.014l-2.828,2.828c-0.391,0.391-0.391,1.023,0,1.414
	c0.195,0.195,0.451,0.293,0.707,0.293s0.512-0.098,0.707-0.293l2.828-2.828c0.007-0.007,0.009-0.016,0.015-0.023
	c1.125,1.039,2.331,1.966,3.606,2.77c-0.005,0.008-0.012,0.011-0.016,0.019l-2,3.464c-0.276,0.479-0.112,1.09,0.366,1.366
	c0.157,0.091,0.329,0.134,0.499,0.134c0.346,0,0.682-0.179,0.867-0.5l2-3.464c0.005-0.009,0.005-0.019,0.01-0.028
	c1.349,0.707,2.754,1.29,4.202,1.739c-0.003,0.01-0.011,0.018-0.014,0.028l-1.035,3.863c-0.143,0.533,0.174,1.082,0.707,1.225
	c0.087,0.023,0.174,0.034,0.26,0.034c0.441,0,0.846-0.294,0.965-0.741l1.035-3.863c0.003-0.011,0-0.022,0.002-0.033
	c1.479,0.334,2.987,0.535,4.509,0.597C29.005,54.981,29,54.99,29,55v4c0,0.553,0.447,1,1,1s1-0.447,1-1v-4
	c0-0.01-0.005-0.018-0.005-0.027c1.506-0.059,3.014-0.255,4.509-0.593c0.002,0.009-0.001,0.018,0.002,0.027l1.035,3.863
	c0.119,0.447,0.523,0.741,0.965,0.741c0.086,0,0.173-0.011,0.26-0.034c0.533-0.143,0.85-0.691,0.707-1.225l-1.035-3.863
	c-0.002-0.009-0.01-0.015-0.012-0.024c1.428-0.446,2.832-1.027,4.199-1.747c0.005,0.01,0.005,0.022,0.011,0.032l2,3.464
	c0.186,0.321,0.521,0.5,0.867,0.5c0.17,0,0.342-0.043,0.499-0.134c0.479-0.276,0.643-0.888,0.366-1.366l-2-3.464
	c-0.004-0.008-0.012-0.012-0.017-0.019c1.306-0.824,2.51-1.752,3.609-2.765c0.005,0.006,0.007,0.013,0.012,0.019l2.828,2.828
	c0.195,0.195,0.451,0.293,0.707,0.293s0.512-0.098,0.707-0.293c0.391-0.391,0.391-1.023,0-1.414l-2.828-2.828
	c-0.003-0.003-0.008-0.004-0.011-0.008c1.039-1.125,1.958-2.336,2.761-3.611c0.006,0.004,0.009,0.01,0.016,0.014l3.464,2
	c0.157,0.091,0.329,0.134,0.499,0.134c0.346,0,0.682-0.179,0.867-0.5c0.276-0.479,0.112-1.09-0.366-1.366l-3.464-2
	c-0.007-0.004-0.015-0.004-0.022-0.008c0.707-1.348,1.29-2.754,1.74-4.201c0.008,0.002,0.014,0.009,0.022,0.011l3.863,1.035
	c0.087,0.023,0.174,0.034,0.26,0.034c0.441,0,0.846-0.294,0.965-0.741c0.143-0.533-0.174-1.082-0.707-1.225l-3.863-1.035
	c-0.008-0.002-0.016,0-0.025-0.001c0.334-1.478,0.532-2.987,0.594-4.508C54.985,30.996,54.992,31,55,31z M48.187,19.5
	c3.521,6.098,3.608,13.239,0.895,19.207l-9.421-5.44c-0.063-0.036-0.129-0.058-0.193-0.087c0.066-0.196,0.136-0.39,0.19-0.592
	c0.692-2.579,0.338-5.273-0.998-7.587c-1.444-2.5-3.905-4.212-6.681-4.779C31.986,20.148,32,20.076,32,20V9.105
	C38.706,9.758,44.785,13.609,48.187,19.5z M29.996,24c2.139,0,4.131,1.149,5.199,3c0.801,1.388,1.014,3.005,0.6,4.553
	c-0.415,1.548-1.407,2.842-2.795,3.643C32.088,35.722,31.052,36,30.004,36c-2.139,0-4.131-1.149-5.199-3
	c-0.801-1.388-1.014-3.005-0.6-4.553c0.415-1.548,1.407-2.842,2.795-3.643C27.912,24.278,28.948,24,29.996,24z M19.5,11.813
	c2.616-1.51,5.522-2.426,8.5-2.712V20c0,0.075,0.014,0.147,0.022,0.22c-1.055,0.214-2.079,0.579-3.021,1.123
	c-2.313,1.334-3.967,3.49-4.658,6.07c-0.518,1.929-0.449,3.923,0.177,5.774c-0.06,0.027-0.122,0.047-0.18,0.081l-9.44,5.45
	C6.455,28.993,10.057,17.266,19.5,11.813z M40.5,48.187c-3.193,1.843-6.815,2.818-10.477,2.818c-6.819,0-13.203-3.342-17.117-8.826
	l9.434-5.447c0.066-0.038,0.121-0.086,0.181-0.13C24.401,38.724,27.118,40,30.01,40h0.001c1.743,0,3.468-0.465,4.988-1.342
	c0.953-0.55,1.786-1.245,2.494-2.046c0.056,0.04,0.106,0.085,0.167,0.12l9.425,5.442C45.393,44.557,43.192,46.632,40.5,48.187z"/>
<g>
</g>
<g>
</g>
<g>
</g>
<g>
</g>
<g>
</g>
<g>
</g>
<g>
</g>
<g>
</g>
<g>
</g>
<g>
</g>
<g>
</g>
<g>
</g>
<g>
</g>
<g>
</g>
<g>
</g>
</svg>
