<?xml version="1.0" encoding="iso-8859-1"?>
<!-- Generator: Adobe Illustrator 19.0.0, SVG Export Plug-In . SVG Version: 6.00 Build 0)  -->
<svg version="1.1" id="Capa_1" xmlns="http://www.w3.org/2000/svg" xmlns:xlink="http://www.w3.org/1999/xlink" x="0px" y="0px"
	 viewBox="0 0 60 60" style="enable-background:new 0 0 60 60;" xml:space="preserve">
<g>
	<path d="M29.988,38c3.86,0,7-3.141,7-7s-3.14-7-7-7s-7,3.141-7,7S26.128,38,29.988,38z M29.988,26c2.757,0,5,2.243,5,5
		s-2.243,5-5,5s-5-2.243-5-5S27.231,26,29.988,26z"/>
	<circle cx="29.988" cy="31" r="1"/>
	<path d="M0,0v38.607v14.392V60h10.63h11.75H37.62h11.75H60v-7.002V38.607V0H0z M37.351,2c-0.383,0.056-0.716,0.332-0.822,0.729
		l-0.801,2.989C34.185,5.349,32.605,5.124,31,5.052V2H37.351z M29,5.046c-1.614,0.062-3.204,0.283-4.756,0.653l-0.796-2.97
		C23.342,2.333,23.009,2.057,22.628,2H29V5.046z M22.572,2c-0.114-0.01-0.231-0.009-0.348,0.022
		c-0.534,0.143-0.85,0.691-0.707,1.225l0.802,2.994c-1.517,0.492-2.985,1.118-4.387,1.877l-1.577-2.732
		c-0.276-0.479-0.889-0.644-1.366-0.366c-0.479,0.276-0.642,0.888-0.366,1.366l1.589,2.751c-1.336,0.857-2.599,1.825-3.767,2.904
		l-2.254-2.254c-0.391-0.391-1.023-0.391-1.414,0s-0.391,1.023,0,1.414l2.253,2.253c-1.084,1.16-2.074,2.409-2.939,3.748
		l-2.715-1.568C4.895,15.356,4.284,15.521,4.007,16c-0.276,0.479-0.112,1.09,0.366,1.366l2.7,1.559
		c-0.655,1.207-1.209,2.471-1.666,3.78c-0.057,0.081-0.115,0.162-0.147,0.261c-0.022,0.067-0.016,0.134-0.023,0.201
		c-0.247,0.755-0.465,1.522-0.639,2.305c-0.12,0.539,0.219,1.073,0.758,1.193c0.543,0.123,1.074-0.218,1.194-0.758
		c0.102-0.458,0.237-0.904,0.366-1.352l13.252,4.306c0.103,0.033,0.207,0.049,0.309,0.049c0.422,0,0.814-0.269,0.951-0.691
		c0.17-0.524-0.117-1.089-0.642-1.26l-13.233-4.3C10.954,13.814,19.563,7.437,29,7.046V21c0,0.553,0.448,1,1,1s1-0.447,1-1V7.053
		c9.505,0.458,18.113,6.83,21.457,15.594l-13.268,4.312c-0.525,0.171-0.813,0.735-0.642,1.26c0.137,0.423,0.529,0.691,0.951,0.691
		c0.102,0,0.207-0.016,0.309-0.049l13.28-4.315c0.131,0.461,0.265,0.921,0.367,1.393c0.101,0.469,0.515,0.79,0.977,0.79
		c0.069,0,0.14-0.007,0.211-0.022c0.54-0.115,0.884-0.647,0.768-1.188c-0.181-0.843-0.418-1.666-0.684-2.477
		c-0.006-0.026-0.001-0.052-0.009-0.077c-0.012-0.036-0.038-0.061-0.053-0.094c-0.463-1.375-1.042-2.699-1.729-3.964l2.669-1.541
		c0.479-0.276,0.642-0.888,0.366-1.366c-0.276-0.479-0.887-0.644-1.366-0.366l-2.688,1.552c-0.867-1.337-1.861-2.586-2.953-3.745
		l2.239-2.239c0.391-0.391,0.391-1.023,0-1.414s-1.023-0.391-1.414,0l-2.246,2.246c-1.171-1.073-2.437-2.037-3.778-2.891
		l1.591-2.756c0.276-0.479,0.112-1.09-0.366-1.366c-0.479-0.277-1.09-0.112-1.366,0.366l-1.584,2.743
		c-1.401-0.752-2.868-1.377-4.386-1.868l0.808-3.013c0.143-0.533-0.173-1.082-0.707-1.225C37.632,1.99,37.51,1.988,37.392,2H58
		v36.325c-1.308-0.46-2.288-1.585-2.508-3.015L54.983,32h-6.184l-0.739,3.842c-0.347,1.802-1.933,3.109-3.772,3.109
		c-0.756,0-1.494-0.229-2.135-0.663l-3.239-2.193l-4.372,4.372l1.98,2.701c0.781,1.064,0.959,2.434,0.477,3.662
		c-0.482,1.229-1.544,2.112-2.841,2.361L31,49.799v6.184l3.31,0.51c1.027,0.158,1.899,0.708,2.485,1.508H23.205
		c0.586-0.799,1.459-1.349,2.486-1.508l3.31-0.51v-6.184l-3.157-0.607c-1.297-0.249-2.359-1.132-2.841-2.361
		c-0.482-1.229-0.304-2.598,0.477-3.662l1.98-2.701l-4.373-4.372l-3.239,2.193c-0.64,0.435-1.378,0.663-2.135,0.663
		c-1.839,0-3.425-1.308-3.772-3.109L11.201,32H5.017l-0.509,3.31c-0.22,1.431-1.2,2.555-2.508,3.015V2H22.572z M2,58v-8.58
		C3.263,47.309,5.535,46,8,46c3.86,0,7,3.141,7,7c0,1.884-0.776,3.684-2.127,5H2z M47.127,58C45.776,56.684,45,54.885,45,53
		c0-3.859,3.14-7,7-7c2.465,0,4.737,1.309,6,3.42V58H47.127z"/>
</g>
<g>
</g>
<g>
</g>
<g>
</g>
<g>
</g>
<g>
</g>
<g>
</g>
<g>
</g>
<g>
</g>
<g>
</g>
<g>
</g>
<g>
</g>
<g>
</g>
<g>
</g>
<g>
</g>
<g>
</g>
</svg>
