<?xml version="1.0" encoding="iso-8859-1"?>
<!-- Generator: Adobe Illustrator 19.0.0, SVG Export Plug-In . SVG Version: 6.00 Build 0)  -->
<svg version="1.1" id="Capa_1" xmlns="http://www.w3.org/2000/svg" xmlns:xlink="http://www.w3.org/1999/xlink" x="0px" y="0px"
	 viewBox="0 0 60 60" style="enable-background:new 0 0 60 60;" xml:space="preserve">
<path d="M30,0C13.458,0,0,13.458,0,30s13.458,30,30,30s30-13.458,30-30S46.542,0,30,0z M11,17h2c3.206,0,6.285,1.175,8.67,3.309
	c0.411,0.368,0.446,1,0.078,1.412c-0.197,0.221-0.471,0.333-0.745,0.333c-0.237,0-0.476-0.084-0.667-0.255
	C18.318,19.994,15.713,19,13,19h-2c-0.553,0-1-0.447-1-1S10.447,17,11,17z M37.588,50.809C37.41,50.938,37.205,51,37.001,51
	c-0.31,0-0.614-0.143-0.81-0.412c-0.325-0.446-0.227-1.072,0.221-1.396L44.925,43H37c-3.172,0-6.227-1.153-8.601-3.248
	c-0.415-0.365-0.454-0.997-0.089-1.411c0.367-0.415,1-0.454,1.411-0.089C31.73,40.024,34.315,41,37,41h7.925l-8.513-6.191
	c-0.447-0.324-0.546-0.95-0.221-1.396c0.324-0.448,0.948-0.546,1.396-0.221L49.7,42L37.588,50.809z M37.588,26.809
	C37.41,26.938,37.205,27,37.001,27c-0.31,0-0.614-0.143-0.81-0.412c-0.325-0.446-0.227-1.072,0.221-1.396L44.925,19H37
	c-6.065,0-11,4.935-11,11c0,7.168-5.832,13-13,13h-2c-0.553,0-1-0.447-1-1s0.447-1,1-1h2c6.065,0,11-4.935,11-11
	c0-7.168,5.832-13,13-13h7.925l-8.513-6.191c-0.447-0.324-0.546-0.95-0.221-1.396c0.324-0.448,0.948-0.546,1.396-0.221L49.7,18
	L37.588,26.809z"/>
<g>
</g>
<g>
</g>
<g>
</g>
<g>
</g>
<g>
</g>
<g>
</g>
<g>
</g>
<g>
</g>
<g>
</g>
<g>
</g>
<g>
</g>
<g>
</g>
<g>
</g>
<g>
</g>
<g>
</g>
</svg>
