<?xml version="1.0" encoding="iso-8859-1"?>
<!-- Generator: Adobe Illustrator 19.0.0, SVG Export Plug-In . SVG Version: 6.00 Build 0)  -->
<svg version="1.1" id="Capa_1" xmlns="http://www.w3.org/2000/svg" xmlns:xlink="http://www.w3.org/1999/xlink" x="0px" y="0px"
	 viewBox="0 0 60 60" style="enable-background:new 0 0 60 60;" xml:space="preserve">
<g>
	<circle cx="19.5" cy="53" r="2"/>
	<path d="M34.5,46h-30V8h30v13h2V4.405C36.5,1.977,34.524,0,32.095,0H6.905C4.476,0,2.5,1.977,2.5,4.405v51.189
		C2.5,58.023,4.476,60,6.905,60h25.189c2.429,0,4.405-1.977,4.405-4.405V32h-2V46z M22.5,3h1c0.552,0,1,0.447,1,1s-0.448,1-1,1h-1
		c-0.552,0-1-0.447-1-1S21.948,3,22.5,3z M15.5,3h4c0.552,0,1,0.447,1,1s-0.448,1-1,1h-4c-0.552,0-1-0.447-1-1S14.948,3,15.5,3z
		 M19.5,57c-2.206,0-4-1.794-4-4s1.794-4,4-4s4,1.794,4,4S21.706,57,19.5,57z"/>
	<path d="M55.5,25H22.328l8.586-8.586c0.781-0.781,0.781-2.047,0-2.828C30.524,13.195,30.012,13,29.5,13s-1.024,0.195-1.414,0.586
		L16.087,25.584c-0.094,0.093-0.177,0.197-0.251,0.307c-0.032,0.048-0.053,0.099-0.081,0.148c-0.036,0.065-0.075,0.127-0.103,0.196
		c-0.027,0.065-0.042,0.133-0.062,0.2c-0.017,0.058-0.039,0.113-0.051,0.173c-0.051,0.259-0.051,0.524,0,0.783
		c0.012,0.06,0.034,0.115,0.051,0.173c0.02,0.067,0.035,0.135,0.062,0.2c0.028,0.068,0.067,0.131,0.103,0.196
		c0.027,0.049,0.049,0.101,0.081,0.148c0.074,0.11,0.157,0.213,0.251,0.307l11.999,11.999c0.78,0.781,2.048,0.781,2.828,0
		c0.781-0.781,0.781-2.047,0-2.828L22.328,29H55.5c1.104,0,2-0.896,2-2S56.604,25,55.5,25z"/>
</g>
<g>
</g>
<g>
</g>
<g>
</g>
<g>
</g>
<g>
</g>
<g>
</g>
<g>
</g>
<g>
</g>
<g>
</g>
<g>
</g>
<g>
</g>
<g>
</g>
<g>
</g>
<g>
</g>
<g>
</g>
</svg>
