<?xml version="1.0" encoding="iso-8859-1"?>
<!-- Generator: Adobe Illustrator 19.0.0, SVG Export Plug-In . SVG Version: 6.00 Build 0)  -->
<svg version="1.1" id="Capa_1" xmlns="http://www.w3.org/2000/svg" xmlns:xlink="http://www.w3.org/1999/xlink" x="0px" y="0px"
	 viewBox="0 0 60 60" style="enable-background:new 0 0 60 60;" xml:space="preserve">
<g>
	<circle cx="41.5" cy="53" r="2"/>
	<path d="M54.095,0H28.905C26.476,0,24.5,1.977,24.5,4.405v9.534c-5.254,2.019-9,7.104-9,13.061c0,3.258,1.128,6.253,3.002,8.634
		L1.816,51.271c-0.403,0.378-0.424,1.011-0.046,1.413C1.967,52.894,2.233,53,2.5,53c0.245,0,0.491-0.09,0.684-0.271l16.663-15.615
		c1.33,1.27,2.907,2.276,4.653,2.947v15.534c0,2.429,1.976,4.405,4.405,4.405h25.189c2.429,0,4.405-1.977,4.405-4.405V4.405
		C58.5,1.977,56.524,0,54.095,0z M44.5,3h1c0.552,0,1,0.447,1,1s-0.448,1-1,1h-1c-0.552,0-1-0.447-1-1S43.948,3,44.5,3z M37.5,3h4
		c0.552,0,1,0.447,1,1s-0.448,1-1,1h-4c-0.552,0-1-0.447-1-1S36.948,3,37.5,3z M17.5,27c0-6.617,5.383-12,12-12s12,5.383,12,12
		s-5.383,12-12,12S17.5,33.617,17.5,27z M41.5,57c-2.206,0-4-1.794-4-4s1.794-4,4-4s4,1.794,4,4S43.706,57,41.5,57z M56.5,46h-30
		v-5.332C27.468,40.88,28.47,41,29.5,41c7.72,0,14-6.28,14-14s-6.28-14-14-14c-1.03,0-2.032,0.12-3,0.332V8h30V46z"/>
</g>
<g>
</g>
<g>
</g>
<g>
</g>
<g>
</g>
<g>
</g>
<g>
</g>
<g>
</g>
<g>
</g>
<g>
</g>
<g>
</g>
<g>
</g>
<g>
</g>
<g>
</g>
<g>
</g>
<g>
</g>
</svg>
