<?xml version="1.0" encoding="iso-8859-1"?>
<!-- Generator: Adobe Illustrator 19.0.0, SVG Export Plug-In . SVG Version: 6.00 Build 0)  -->
<svg version="1.1" id="Capa_1" xmlns="http://www.w3.org/2000/svg" xmlns:xlink="http://www.w3.org/1999/xlink" x="0px" y="0px"
	 viewBox="0 0 60 60" style="enable-background:new 0 0 60 60;" xml:space="preserve">
<g>
	<circle cx="21" cy="53" r="2"/>
	<path d="M38,12V4.405C38,1.977,36.024,0,33.595,0H8.405C5.976,0,4,1.977,4,4.405v51.189C4,58.023,5.976,60,8.405,60h25.189
		C36.024,60,38,58.023,38,55.595V33h18V12H38z M24,3h1c0.552,0,1,0.447,1,1s-0.448,1-1,1h-1c-0.552,0-1-0.447-1-1S23.448,3,24,3z
		 M17,3h4c0.552,0,1,0.447,1,1s-0.448,1-1,1h-4c-0.552,0-1-0.447-1-1S16.448,3,17,3z M21,57c-2.206,0-4-1.794-4-4s1.794-4,4-4
		s4,1.794,4,4S23.206,57,21,57z M36,46H6V8h30v4H18v21h4v7l9.333-7H36V46z M36,20c0,0.553-0.448,1-1,1H25c-0.552,0-1-0.447-1-1
		s0.448-1,1-1h10C35.552,19,36,19.447,36,20z M49,26H25c-0.552,0-1-0.447-1-1s0.448-1,1-1h24c0.552,0,1,0.447,1,1S49.552,26,49,26z"
		/>
</g>
<g>
</g>
<g>
</g>
<g>
</g>
<g>
</g>
<g>
</g>
<g>
</g>
<g>
</g>
<g>
</g>
<g>
</g>
<g>
</g>
<g>
</g>
<g>
</g>
<g>
</g>
<g>
</g>
<g>
</g>
</svg>
