<?xml version="1.0" encoding="iso-8859-1"?>
<!-- Generator: Adobe Illustrator 19.0.0, SVG Export Plug-In . SVG Version: 6.00 Build 0)  -->
<svg version="1.1" id="Capa_1" xmlns="http://www.w3.org/2000/svg" xmlns:xlink="http://www.w3.org/1999/xlink" x="0px" y="0px"
	 viewBox="0 0 60 60" style="enable-background:new 0 0 60 60;" xml:space="preserve">
<g>
	<path d="M31.962,11.02h-3.924c-1.124,0-2.038,0.914-2.038,2.038v3.924c0,1.124,0.914,2.038,2.038,2.038h3.924
		c1.124,0,2.038-0.914,2.038-2.038v-3.924C34,11.934,33.086,11.02,31.962,11.02z"/>
	<path d="M22.962,11.02h-3.924c-1.124,0-2.038,0.914-2.038,2.038v3.924c0,1.124,0.914,2.038,2.038,2.038h3.924
		c1.124,0,2.038-0.914,2.038-2.038v-3.924C25,11.934,24.086,11.02,22.962,11.02z"/>
	<path d="M40.962,11.02h-3.924c-1.124,0-2.038,0.914-2.038,2.038v3.924c0,1.124,0.914,2.038,2.038,2.038h3.924
		c1.124,0,2.038-0.914,2.038-2.038v-3.924C43,11.934,42.086,11.02,40.962,11.02z"/>
	<path d="M31.962,20h-3.924C26.914,20,26,20.914,26,22.038v3.924C26,27.086,26.914,28,28.038,28h3.924
		C33.086,28,34,27.086,34,25.962v-3.924C34,20.914,33.086,20,31.962,20z"/>
	<path d="M22.962,20h-3.924C17.914,20,17,20.914,17,22.038v3.924C17,27.086,17.914,28,19.038,28h3.924
		C24.086,28,25,27.086,25,25.962v-3.924C25,20.914,24.086,20,22.962,20z"/>
	<path d="M40.962,20h-3.924C35.914,20,35,20.914,35,22.038v3.924C35,27.086,35.914,28,37.038,28h3.924
		C42.086,28,43,27.086,43,25.962v-3.924C43,20.914,42.086,20,40.962,20z"/>
	<path d="M31.962,29h-3.924C26.914,29,26,29.914,26,31.038v3.924C26,36.086,26.914,37,28.038,37h3.924
		C33.086,37,34,36.086,34,34.962v-3.924C34,29.914,33.086,29,31.962,29z"/>
	<path d="M22.962,29h-3.924C17.914,29,17,29.914,17,31.038v3.924C17,36.086,17.914,37,19.038,37h3.924
		C24.086,37,25,36.086,25,34.962v-3.924C25,29.914,24.086,29,22.962,29z"/>
	<path d="M40.962,29h-3.924C35.914,29,35,29.914,35,31.038v3.924C35,36.086,35.914,37,37.038,37h3.924
		C42.086,37,43,36.086,43,34.962v-3.924C43,29.914,42.086,29,40.962,29z"/>
	<g>
		<circle cx="30" cy="53" r="2"/>
		<path d="M42.595,0H17.405C14.976,0,13,1.977,13,4.405v51.189C13,58.023,14.976,60,17.405,60h25.189C45.024,60,47,58.023,47,55.595
			V4.405C47,1.977,45.024,0,42.595,0z M33,3h1c0.552,0,1,0.447,1,1s-0.448,1-1,1h-1c-0.552,0-1-0.447-1-1S32.448,3,33,3z M26,3h4
			c0.552,0,1,0.447,1,1s-0.448,1-1,1h-4c-0.552,0-1-0.447-1-1S25.448,3,26,3z M30,57c-2.206,0-4-1.794-4-4s1.794-4,4-4s4,1.794,4,4
			S32.206,57,30,57z M45,46H15V8h30V46z"/>
	</g>
</g>
<g>
</g>
<g>
</g>
<g>
</g>
<g>
</g>
<g>
</g>
<g>
</g>
<g>
</g>
<g>
</g>
<g>
</g>
<g>
</g>
<g>
</g>
<g>
</g>
<g>
</g>
<g>
</g>
<g>
</g>
</svg>
