<?xml version="1.0" encoding="iso-8859-1"?>
<!-- Generator: Adobe Illustrator 19.0.0, SVG Export Plug-In . SVG Version: 6.00 Build 0)  -->
<svg version="1.1" id="Capa_1" xmlns="http://www.w3.org/2000/svg" xmlns:xlink="http://www.w3.org/1999/xlink" x="0px" y="0px"
	 viewBox="0 0 60 60" style="enable-background:new 0 0 60 60;" xml:space="preserve">
<line style="fill:none;stroke:#000000;stroke-width:2;stroke-linecap:round;stroke-miterlimit:10;" x1="14" y1="47" x2="46" y2="47"/>
<g>
	<circle cx="30" cy="53" r="2"/>
	<path d="M49.725,4.117l1.988,0.459c0.076,0.018,0.151,0.025,0.226,0.025c0.455,0,0.867-0.313,0.973-0.775
		c0.125-0.538-0.211-1.075-0.749-1.199l-1.988-0.459c-0.535-0.122-1.075,0.211-1.199,0.75C48.852,3.456,49.187,3.993,49.725,4.117z"
		/>
	<path d="M49.705,33.44c-0.532-0.156-1.085,0.149-1.24,0.68l-0.571,1.958c-0.155,0.53,0.15,1.086,0.68,1.24
		c0.094,0.027,0.188,0.04,0.281,0.04c0.433,0,0.832-0.283,0.959-0.72l0.571-1.958C50.54,34.15,50.235,33.595,49.705,33.44z"/>
	<path d="M56.56,9.938c-0.528-0.151-1.085,0.15-1.24,0.68l-0.571,1.958c-0.155,0.53,0.15,1.086,0.68,1.24
		c0.093,0.027,0.188,0.04,0.28,0.04c0.433,0,0.832-0.283,0.959-0.72l0.571-1.958C57.395,10.647,57.09,10.092,56.56,9.938z"/>
	<path d="M54.847,15.813c-0.531-0.154-1.085,0.149-1.24,0.68l-0.571,1.958c-0.155,0.53,0.15,1.086,0.68,1.24
		c0.094,0.027,0.188,0.04,0.281,0.04c0.433,0,0.832-0.283,0.959-0.72l0.571-1.958C55.681,16.523,55.376,15.968,54.847,15.813z"/>
	<path d="M47.991,39.315c-0.368-0.106-0.741,0.018-0.991,0.276V4.405c0-0.538-0.111-1.048-0.288-1.525
		c0.108-0.121,0.198-0.261,0.238-0.431c0.124-0.538-0.212-1.075-0.75-1.199l-0.751-0.173C44.677,0.415,43.688,0,42.595,0H17.405
		c-1.093,0-2.082,0.415-2.853,1.077L13.801,1.25c-0.538,0.124-0.874,0.661-0.75,1.199c0.039,0.17,0.129,0.31,0.238,0.431
		C13.111,3.357,13,3.867,13,4.405v35.186c-0.25-0.257-0.622-0.381-0.991-0.275c-0.53,0.154-0.835,0.71-0.68,1.24l0.571,1.959
		c0.127,0.437,0.526,0.72,0.959,0.72c0.047,0,0.094-0.014,0.141-0.02v12.38C13,58.023,14.976,60,17.405,60h25.189
		C45.024,60,47,58.023,47,55.595v-12.38c0.047,0.006,0.094,0.02,0.141,0.02c0.433,0,0.832-0.283,0.959-0.72l0.571-1.959
		C48.826,40.025,48.521,39.47,47.991,39.315z M33,3h1c0.552,0,1,0.447,1,1s-0.448,1-1,1h-1c-0.552,0-1-0.447-1-1S32.448,3,33,3z
		 M26,3h4c0.552,0,1,0.447,1,1s-0.448,1-1,1h-4c-0.552,0-1-0.447-1-1S25.448,3,26,3z M30,57c-2.206,0-4-1.794-4-4s1.794-4,4-4
		s4,1.794,4,4S32.206,57,30,57z M15,46V8h30v38H15z"/>
	<path d="M57.61,6.612c-0.252-0.792-0.692-1.527-1.271-2.127c-0.383-0.396-1.017-0.408-1.414-0.025
		c-0.397,0.384-0.409,1.017-0.025,1.414c0.367,0.38,0.645,0.846,0.805,1.346c0.136,0.426,0.529,0.696,0.952,0.696
		c0.101,0,0.204-0.015,0.305-0.047C57.488,7.701,57.778,7.139,57.61,6.612z"/>
	<path d="M51.418,27.564c-0.529-0.153-1.084,0.15-1.24,0.68l-0.571,1.959c-0.155,0.53,0.15,1.086,0.68,1.24
		c0.093,0.027,0.188,0.04,0.28,0.04c0.433,0,0.832-0.283,0.959-0.72l0.571-1.959C52.253,28.274,51.949,27.719,51.418,27.564z"/>
	<path d="M53.132,21.688c-0.527-0.156-1.085,0.149-1.24,0.68l-0.571,1.959c-0.155,0.53,0.15,1.086,0.68,1.24
		c0.093,0.027,0.188,0.04,0.28,0.04c0.433,0,0.832-0.283,0.959-0.72l0.571-1.959C53.967,22.398,53.663,21.843,53.132,21.688z"/>
	<path d="M3.343,7.916c0.423,0,0.816-0.271,0.952-0.696c0.16-0.5,0.438-0.966,0.805-1.346c0.383-0.397,0.372-1.03-0.025-1.414
		C4.678,4.077,4.044,4.089,3.66,4.485C3.082,5.085,2.642,5.82,2.39,6.612C2.222,7.139,2.512,7.701,3.038,7.869
		C3.14,7.901,3.242,7.916,3.343,7.916z"/>
	<path d="M8.061,4.602c0.075,0,0.15-0.008,0.226-0.025l1.988-0.459c0.538-0.124,0.874-0.661,0.749-1.199
		c-0.124-0.54-0.663-0.878-1.199-0.75L7.837,2.627C7.299,2.751,6.963,3.288,7.088,3.826C7.194,4.289,7.606,4.602,8.061,4.602z"/>
	<path d="M5.251,12.575L4.68,10.617c-0.155-0.529-0.71-0.831-1.24-0.68c-0.53,0.154-0.835,0.71-0.68,1.24l0.571,1.958
		c0.127,0.437,0.526,0.72,0.959,0.72c0.093,0,0.187-0.013,0.28-0.04C5.101,13.661,5.406,13.105,5.251,12.575z"/>
	<path d="M12.106,36.078l-0.571-1.958c-0.154-0.53-0.709-0.836-1.24-0.68c-0.53,0.154-0.834,0.71-0.68,1.24l0.571,1.958
		c0.127,0.437,0.526,0.72,0.959,0.72c0.093,0,0.187-0.013,0.281-0.04C11.957,37.164,12.261,36.608,12.106,36.078z"/>
	<path d="M10.393,30.203l-0.571-1.959c-0.154-0.529-0.712-0.833-1.24-0.68c-0.53,0.154-0.835,0.71-0.68,1.24l0.571,1.959
		c0.127,0.437,0.526,0.72,0.959,0.72c0.093,0,0.187-0.013,0.28-0.04C10.243,31.289,10.547,30.733,10.393,30.203z"/>
	<path d="M6.965,18.451l-0.571-1.958c-0.155-0.53-0.708-0.834-1.24-0.68c-0.53,0.154-0.834,0.71-0.68,1.24l0.571,1.958
		c0.127,0.437,0.526,0.72,0.959,0.72c0.093,0,0.187-0.013,0.281-0.04C6.815,19.537,7.12,18.981,6.965,18.451z"/>
	<path d="M8.679,24.327l-0.571-1.959c-0.155-0.53-0.711-0.836-1.24-0.68c-0.53,0.154-0.835,0.71-0.68,1.24l0.571,1.959
		c0.127,0.437,0.526,0.72,0.959,0.72c0.093,0,0.187-0.013,0.28-0.04C8.529,25.413,8.833,24.857,8.679,24.327z"/>
</g>
<g>
</g>
<g>
</g>
<g>
</g>
<g>
</g>
<g>
</g>
<g>
</g>
<g>
</g>
<g>
</g>
<g>
</g>
<g>
</g>
<g>
</g>
<g>
</g>
<g>
</g>
<g>
</g>
<g>
</g>
</svg>
