<?xml version="1.0" encoding="iso-8859-1"?>
<!-- Generator: Adobe Illustrator 19.0.0, SVG Export Plug-In . SVG Version: 6.00 Build 0)  -->
<svg version="1.1" id="Capa_1" xmlns="http://www.w3.org/2000/svg" xmlns:xlink="http://www.w3.org/1999/xlink" x="0px" y="0px"
	 viewBox="0 0 60 60" style="enable-background:new 0 0 60 60;" xml:space="preserve">
<g>
	<path d="M21.455,31.773l-0.045,0.042l0.977,0.708c0.032,0.023,0.066,0.042,0.098,0.065c0.193,0.138,0.391,0.268,0.593,0.396
		c0.123,0.078,0.247,0.153,0.372,0.226c0.191,0.112,0.382,0.222,0.578,0.324c0.165,0.086,0.334,0.164,0.503,0.243
		c0.168,0.078,0.332,0.161,0.504,0.232c0.335,0.14,0.676,0.264,1.021,0.375c0.12,0.039,0.244,0.068,0.365,0.103
		c0.259,0.075,0.519,0.144,0.783,0.202c0.136,0.03,0.272,0.056,0.409,0.081c0.27,0.051,0.541,0.092,0.815,0.125
		c0.124,0.015,0.247,0.032,0.371,0.044c0.397,0.037,0.797,0.061,1.2,0.061c0.403,0,0.802-0.024,1.199-0.061
		c0.125-0.012,0.247-0.029,0.371-0.044c0.274-0.033,0.546-0.074,0.816-0.125c0.136-0.025,0.271-0.051,0.406-0.081
		c0.267-0.059,0.53-0.128,0.792-0.204c0.118-0.034,0.238-0.063,0.355-0.1c0.346-0.111,0.688-0.235,1.025-0.375
		c0.165-0.068,0.323-0.148,0.485-0.223c0.176-0.082,0.352-0.163,0.524-0.253c0.19-0.099,0.375-0.205,0.559-0.313
		c0.133-0.078,0.266-0.158,0.397-0.241c0.193-0.122,0.383-0.247,0.568-0.378c0.034-0.024,0.071-0.045,0.105-0.07l1.012-0.731
		l-0.05-0.044c2.713-2.384,4.437-5.869,4.437-9.756c0-7.168-5.832-13-13-13s-13,5.832-13,13
		C16.999,25.896,18.731,29.389,21.455,31.773z M29.999,11c6.065,0,11,4.935,11,11c0,3.415-1.564,6.47-4.013,8.489
		c-0.049-0.027-0.096-0.061-0.146-0.086l-3.461-1.729c-0.108-0.055-0.178-0.167-0.178-0.287v-1.005
		c0.047-0.062,0.095-0.127,0.143-0.195c0.438-0.617,0.797-1.298,1.069-2.028c0.592-0.375,0.963-1.027,0.963-1.753v-1.45
		c0-0.417-0.129-0.824-0.363-1.167v-1.68c0.032-0.362,0.071-1.689-0.916-2.816c-0.87-0.992-2.239-1.496-4.069-1.496
		s-3.199,0.504-4.069,1.496c-0.987,1.127-0.948,2.454-0.916,2.816v1.68c-0.234,0.343-0.363,0.75-0.363,1.167v1.45
		c0,0.561,0.224,1.086,0.613,1.474c0.322,1.139,0.883,2.036,1.199,2.482v0.991c0,0.117-0.064,0.225-0.167,0.281l-3.232,1.764
		c-0.037,0.02-0.071,0.047-0.107,0.068c-2.433-2.02-3.986-5.064-3.986-8.466C18.999,15.935,23.934,11,29.999,11z"/>
	<circle cx="30" cy="53" r="2"/>
	<path d="M42.595,0H17.405C14.976,0,13,1.977,13,4.405v51.189C13,58.023,14.976,60,17.405,60h25.189C45.024,60,47,58.023,47,55.595
		V4.405C47,1.977,45.024,0,42.595,0z M33,3h1c0.552,0,1,0.447,1,1s-0.448,1-1,1h-1c-0.552,0-1-0.447-1-1S32.448,3,33,3z M26,3h4
		c0.552,0,1,0.447,1,1s-0.448,1-1,1h-4c-0.552,0-1-0.447-1-1S25.448,3,26,3z M30,57c-2.206,0-4-1.794-4-4s1.794-4,4-4s4,1.794,4,4
		S32.206,57,30,57z M45,46H15V8h30V46z"/>
	<rect x="16.999" y="38" width="6" height="6"/>
	<rect x="24.999" y="38" width="18" height="6"/>
</g>
<g>
</g>
<g>
</g>
<g>
</g>
<g>
</g>
<g>
</g>
<g>
</g>
<g>
</g>
<g>
</g>
<g>
</g>
<g>
</g>
<g>
</g>
<g>
</g>
<g>
</g>
<g>
</g>
<g>
</g>
</svg>
