<?xml version="1.0" encoding="iso-8859-1"?>
<!-- Generator: Adobe Illustrator 19.0.0, SVG Export Plug-In . SVG Version: 6.00 Build 0)  -->
<svg version="1.1" id="Capa_1" xmlns="http://www.w3.org/2000/svg" xmlns:xlink="http://www.w3.org/1999/xlink" x="0px" y="0px"
	 viewBox="0 0 60 60" style="enable-background:new 0 0 60 60;" xml:space="preserve">
<path d="M30,0C13.458,0,0,13.458,0,30s13.458,30,30,30s30-13.458,30-30S46.542,0,30,0z M36,48.894C36,50.606,34.606,52,32.893,52
	c-0.547,0-1.09-0.149-1.571-0.432c-0.063-0.037-0.121-0.081-0.174-0.131L17.906,39.109C17.756,39.037,17.593,39,17.427,39H9.104
	C7.392,39,6,37.607,6,35.896V23.104C6,21.393,7.392,20,9.104,20h8.324c0.166,0,0.329-0.037,0.479-0.109L31.148,7.563
	c0.053-0.05,0.112-0.094,0.174-0.131C31.803,7.149,32.346,7,32.893,7C34.606,7,36,8.394,36,10.106V48.894z M39,39
	c-0.256,0-0.512-0.098-0.707-0.293c-0.391-0.391-0.391-1.023,0-1.414c4.297-4.297,4.297-11.289,0-15.586
	c-0.391-0.391-0.391-1.023,0-1.414s1.023-0.391,1.414,0c5.077,5.077,5.077,13.337,0,18.414C39.512,38.902,39.256,39,39,39z
	 M43.248,42.749c-0.195,0.195-0.451,0.293-0.707,0.293s-0.512-0.098-0.707-0.293c-0.391-0.391-0.391-1.023,0-1.414
	c6.238-6.238,6.238-16.39,0-22.628c-0.391-0.391-0.391-1.023,0-1.414s1.023-0.391,1.414,0C50.266,24.312,50.266,35.73,43.248,42.749
	z"/>
<g>
</g>
<g>
</g>
<g>
</g>
<g>
</g>
<g>
</g>
<g>
</g>
<g>
</g>
<g>
</g>
<g>
</g>
<g>
</g>
<g>
</g>
<g>
</g>
<g>
</g>
<g>
</g>
<g>
</g>
</svg>
