<?xml version="1.0" encoding="iso-8859-1"?>
<!-- Generator: Adobe Illustrator 19.0.0, SVG Export Plug-In . SVG Version: 6.00 Build 0)  -->
<svg version="1.1" id="Capa_1" xmlns="http://www.w3.org/2000/svg" xmlns:xlink="http://www.w3.org/1999/xlink" x="0px" y="0px"
	 viewBox="0 0 46 46" style="enable-background:new 0 0 46 46;" xml:space="preserve">
<g>
	<path d="M28.38,0c-0.551,0-1.097,0.153-1.579,0.444c-0.046,0.027-0.09,0.059-0.13,0.093L13.121,12H2.487c-0.553,0-1,0.447-1,1v19
		c0,0.553,0.447,1,1,1h10.61L26.64,45.436c0.05,0.046,0.104,0.086,0.161,0.12C27.284,45.847,27.83,46,28.38,46
		c1.713,0,3.106-1.416,3.106-3.156V3.156C31.487,1.416,30.093,0,28.38,0z M14.487,31c0,0.553-0.447,1-1,1s-1-0.447-1-1v-4
		c0-0.553,0.447-1,1-1s1,0.447,1,1V31z M14.487,18c0,0.553-0.447,1-1,1s-1-0.447-1-1v-4c0-0.553,0.447-1,1-1s1,0.447,1,1V18z"/>
	<path d="M44.513,22.5c0-5.972-4.009-11.302-9.749-12.962c-0.533-0.151-1.084,0.152-1.238,0.684
		c-0.153,0.53,0.152,1.085,0.684,1.238c4.889,1.413,8.304,5.953,8.304,11.04s-3.415,9.627-8.304,11.04
		c-0.531,0.153-0.837,0.708-0.684,1.238c0.127,0.438,0.526,0.723,0.961,0.723c0.092,0,0.185-0.013,0.277-0.039
		C40.504,33.802,44.513,28.472,44.513,22.5z"/>
</g>
<g>
</g>
<g>
</g>
<g>
</g>
<g>
</g>
<g>
</g>
<g>
</g>
<g>
</g>
<g>
</g>
<g>
</g>
<g>
</g>
<g>
</g>
<g>
</g>
<g>
</g>
<g>
</g>
<g>
</g>
</svg>
