<?xml version="1.0" encoding="iso-8859-1"?>
<!-- Generator: Adobe Illustrator 19.0.0, SVG Export Plug-In . SVG Version: 6.00 Build 0)  -->
<svg version="1.1" id="Capa_1" xmlns="http://www.w3.org/2000/svg" xmlns:xlink="http://www.w3.org/1999/xlink" x="0px" y="0px"
	 viewBox="0 0 60 60" style="enable-background:new 0 0 60 60;" xml:space="preserve">
<path d="M30,0C13.458,0,0,13.458,0,30s13.458,30,30,30s30-13.458,30-30S46.542,0,30,0z M38,48.893c0,0.855-0.337,1.65-0.95,2.237
	C36.473,51.683,35.687,52,34.893,52c-0.547,0-1.09-0.149-1.571-0.432c-0.063-0.037-0.121-0.081-0.174-0.131L19.905,39.109
	C19.756,39.037,19.593,39,19.427,39h-8.324C9.392,39,8,37.607,8,35.896V23.104C8,21.393,9.392,20,11.104,20h8.324
	c0.166,0,0.329-0.037,0.478-0.109L33.148,7.563c0.053-0.05,0.111-0.094,0.174-0.131C33.803,7.149,34.346,7,34.893,7
	C36.606,7,38,8.394,38,10.107V48.893z M41.707,38.707C41.512,38.902,41.256,39,41,39s-0.512-0.098-0.707-0.293
	c-0.391-0.391-0.391-1.023,0-1.414c4.297-4.297,4.297-11.289,0-15.586c-0.391-0.391-0.391-1.023,0-1.414s1.023-0.391,1.414,0
	C46.784,25.37,46.784,33.63,41.707,38.707z"/>
<g>
</g>
<g>
</g>
<g>
</g>
<g>
</g>
<g>
</g>
<g>
</g>
<g>
</g>
<g>
</g>
<g>
</g>
<g>
</g>
<g>
</g>
<g>
</g>
<g>
</g>
<g>
</g>
<g>
</g>
</svg>
