<?xml version="1.0" encoding="iso-8859-1"?>
<!-- Generator: Adobe Illustrator 19.0.0, SVG Export Plug-In . SVG Version: 6.00 Build 0)  -->
<svg version="1.1" id="Capa_1" xmlns="http://www.w3.org/2000/svg" xmlns:xlink="http://www.w3.org/1999/xlink" x="0px" y="0px"
	 viewBox="0 0 60 60" style="enable-background:new 0 0 60 60;" xml:space="preserve">
<g>
	<path d="M30,26.939c-0.534,0-1.036,0.208-1.414,0.586S28,28.405,28,28.939s0.208,1.036,0.586,1.414
		c0.756,0.756,2.072,0.756,2.828,0C31.792,29.976,32,29.474,32,28.939s-0.208-1.036-0.586-1.414S30.534,26.939,30,26.939z"/>
	<path d="M30,0.061c-16.542,0-30,13.458-30,30c0,8.084,3.246,15.424,8.501,20.809c5.295-4.139,13.687-6.809,21.439-6.809
		c7.8,0,16.222,2.681,21.532,6.838C56.743,45.511,60,38.16,60,30.061C60,13.519,46.542,0.061,30,0.061z M29,5.061
		c0-0.553,0.447-1,1-1s1,0.447,1,1v2c0,0.553-0.447,1-1,1s-1-0.447-1-1V5.061z M4.5,31.061c-0.553,0-1-0.447-1-1s0.447-1,1-1h2
		c0.553,0,1,0.447,1,1s-0.447,1-1,1H4.5z M9.894,42.711l-1.731,1c-0.157,0.091-0.329,0.134-0.499,0.134
		c-0.346,0-0.682-0.179-0.867-0.5c-0.276-0.479-0.112-1.09,0.366-1.366l1.731-1c0.477-0.276,1.089-0.113,1.366,0.366
		C10.536,41.823,10.372,42.435,9.894,42.711z M10.515,19.311c-0.186,0.32-0.521,0.5-0.867,0.5c-0.17,0-0.342-0.043-0.499-0.134
		l-1.732-1C6.938,18.4,6.773,17.789,7.05,17.311s0.889-0.643,1.366-0.366l1.732,1C10.627,18.221,10.791,18.832,10.515,19.311z
		 M18.745,11.042c-0.157,0.091-0.329,0.134-0.499,0.134c-0.346,0-0.682-0.18-0.867-0.5l-1-1.732
		c-0.276-0.479-0.112-1.09,0.366-1.366c0.477-0.276,1.09-0.112,1.366,0.366l1,1.732C19.388,10.154,19.224,10.766,18.745,11.042z
		 M42.021,18.646l-8.476,8.477C33.832,27.681,34,28.294,34,28.939c0,1.068-0.416,2.073-1.172,2.828
		c-0.755,0.756-1.76,1.172-2.828,1.172s-2.073-0.416-2.828-1.172C26.416,31.013,26,30.008,26,28.939s0.416-2.073,1.172-2.828
		c1.323-1.325,3.511-1.488,5.048-0.491l8.387-8.388c0.391-0.391,1.023-0.391,1.414,0S42.411,18.256,42.021,18.646z M43.616,8.978
		l-1,1.731c-0.186,0.321-0.521,0.5-0.867,0.5c-0.17,0-0.342-0.043-0.499-0.134c-0.479-0.276-0.643-0.888-0.366-1.366l1-1.731
		c0.276-0.479,0.888-0.643,1.366-0.366S43.893,8.499,43.616,8.978z M49.598,17.479l1.731-1c0.477-0.277,1.089-0.113,1.366,0.366
		c0.276,0.479,0.112,1.09-0.366,1.366l-1.731,1c-0.157,0.091-0.329,0.134-0.499,0.134c-0.346,0-0.682-0.179-0.867-0.5
		C48.955,18.366,49.119,17.755,49.598,17.479z M52.95,43.811c-0.186,0.32-0.521,0.5-0.867,0.5c-0.17,0-0.342-0.043-0.499-0.134
		l-1.732-1c-0.479-0.276-0.643-0.888-0.366-1.366c0.275-0.479,0.889-0.643,1.366-0.366l1.732,1
		C53.063,42.721,53.227,43.332,52.95,43.811z M55.5,31.061h-2c-0.553,0-1-0.447-1-1s0.447-1,1-1h2c0.553,0,1,0.447,1,1
		S56.053,31.061,55.5,31.061z"/>
	<path d="M9.962,52.274c5.316,4.762,12.342,7.665,20.038,7.665c7.681,0,14.695-2.893,20.008-7.639
		c-4.927-3.742-12.912-6.24-20.068-6.24C22.83,46.061,14.875,48.548,9.962,52.274z"/>
</g>
<g>
</g>
<g>
</g>
<g>
</g>
<g>
</g>
<g>
</g>
<g>
</g>
<g>
</g>
<g>
</g>
<g>
</g>
<g>
</g>
<g>
</g>
<g>
</g>
<g>
</g>
<g>
</g>
<g>
</g>
</svg>
