<?xml version="1.0" encoding="iso-8859-1"?>
<!-- Generator: Adobe Illustrator 19.0.0, SVG Export Plug-In . SVG Version: 6.00 Build 0)  -->
<svg version="1.1" id="Capa_1" xmlns="http://www.w3.org/2000/svg" xmlns:xlink="http://www.w3.org/1999/xlink" x="0px" y="0px"
	 viewBox="0 0 55.949 55.949" style="enable-background:new 0 0 55.949 55.949;" xml:space="preserve">
<g>
	<circle cx="27.975" cy="27.975" r="2"/>
	<path d="M27.975,34.975c-3.309,0-6,2.691-6,6s2.691,6,6,6s6-2.691,6-6S31.283,34.975,27.975,34.975z M28.682,41.682
		c-0.195,0.195-0.451,0.293-0.707,0.293s-0.512-0.098-0.707-0.293l-3-3c-0.391-0.391-0.391-1.023,0-1.414s1.023-0.391,1.414,0l3,3
		C29.072,40.658,29.072,41.291,28.682,41.682z"/>
	<path d="M50.975,27.975c0-0.553,0.447-1,1-1h3.975c-0.064-1.807-0.3-3.57-0.692-5.275l-1.909,0.511
		c-0.087,0.023-0.174,0.034-0.26,0.034c-0.441,0-0.846-0.294-0.965-0.741c-0.143-0.533,0.174-1.082,0.707-1.225l1.915-0.513
		c-0.526-1.713-1.215-3.356-2.044-4.912l-1.709,0.987c-0.157,0.091-0.329,0.134-0.499,0.134c-0.346,0-0.682-0.179-0.867-0.5
		c-0.276-0.479-0.112-1.09,0.366-1.366l1.704-0.984c-0.947-1.508-2.033-2.919-3.241-4.216l-1.388,1.388
		c-0.195,0.195-0.451,0.293-0.707,0.293s-0.512-0.098-0.707-0.293c-0.391-0.391-0.391-1.023,0-1.414l1.388-1.388
		c-1.297-1.208-2.708-2.294-4.216-3.241l-0.984,1.704c-0.186,0.321-0.521,0.5-0.867,0.5c-0.17,0-0.342-0.043-0.499-0.134
		c-0.479-0.276-0.643-0.888-0.366-1.366l0.987-1.709c-1.557-0.829-3.199-1.518-4.912-2.044L35.67,3.119
		c-0.119,0.447-0.523,0.741-0.965,0.741c-0.086,0-0.173-0.011-0.26-0.034c-0.533-0.143-0.85-0.691-0.707-1.225l0.512-1.909
		C32.545,0.3,30.782,0.064,28.975,0v3.975c0,0.553-0.447,1-1,1s-1-0.447-1-1V0c-1.807,0.064-3.57,0.3-5.275,0.692l0.512,1.909
		c0.143,0.533-0.174,1.082-0.707,1.225C21.417,3.85,21.33,3.86,21.244,3.86c-0.441,0-0.846-0.294-0.965-0.741l-0.513-1.915
		c-1.713,0.526-3.356,1.215-4.912,2.044l0.987,1.709c0.276,0.479,0.112,1.09-0.366,1.366c-0.157,0.091-0.329,0.134-0.499,0.134
		c-0.346,0-0.682-0.179-0.867-0.5l-0.984-1.704c-1.508,0.947-2.919,2.033-4.216,3.241l1.388,1.388c0.391,0.391,0.391,1.023,0,1.414
		c-0.195,0.195-0.451,0.293-0.707,0.293s-0.512-0.098-0.707-0.293L7.495,8.909c-1.208,1.297-2.294,2.708-3.241,4.216l1.704,0.984
		c0.479,0.276,0.643,0.888,0.366,1.366c-0.186,0.321-0.521,0.5-0.867,0.5c-0.17,0-0.342-0.043-0.499-0.134l-1.709-0.987
		c-0.829,1.557-1.518,3.199-2.044,4.912l1.915,0.513c0.533,0.143,0.85,0.691,0.707,1.225c-0.119,0.447-0.523,0.741-0.965,0.741
		c-0.086,0-0.173-0.011-0.26-0.034l-1.909-0.511C0.3,23.405,0.064,25.167,0,26.975h3.975c0.553,0,1,0.447,1,1s-0.447,1-1,1H0
		c0.064,1.807,0.3,3.57,0.692,5.275l1.909-0.511c0.534-0.145,1.083,0.173,1.225,0.707c0.143,0.533-0.174,1.082-0.707,1.225
		l-1.915,0.513c0.526,1.713,1.215,3.356,2.044,4.912l1.709-0.987c0.478-0.276,1.089-0.113,1.366,0.366
		c0.276,0.479,0.112,1.09-0.366,1.366l-1.704,0.984c0.947,1.508,2.033,2.919,3.241,4.216l1.388-1.388
		c0.391-0.391,1.023-0.391,1.414,0s0.391,1.023,0,1.414l-1.388,1.388c1.297,1.208,2.708,2.294,4.216,3.241l0.984-1.705
		c0.277-0.479,0.888-0.643,1.366-0.366s0.643,0.888,0.366,1.366l-0.987,1.709c1.557,0.829,3.199,1.518,4.912,2.044l0.513-1.915
		c0.143-0.534,0.691-0.85,1.225-0.707c0.533,0.143,0.85,0.691,0.707,1.225l-0.512,1.909c1.705,0.392,3.468,0.628,5.275,0.692v-3.975
		c0-0.553,0.447-1,1-1s1,0.447,1,1v3.975c1.807-0.064,3.57-0.3,5.275-0.692l-0.512-1.909c-0.143-0.533,0.174-1.082,0.707-1.225
		c0.535-0.144,1.082,0.173,1.225,0.707l0.513,1.915c1.713-0.526,3.355-1.215,4.912-2.044l-0.987-1.709
		c-0.276-0.479-0.112-1.09,0.366-1.366c0.477-0.276,1.089-0.112,1.366,0.366l0.984,1.705c1.508-0.947,2.919-2.033,4.216-3.241
		l-1.388-1.388c-0.391-0.391-0.391-1.023,0-1.414s1.023-0.391,1.414,0l1.388,1.388c1.208-1.297,2.294-2.708,3.241-4.216
		l-1.704-0.984c-0.479-0.276-0.643-0.888-0.366-1.366c0.276-0.479,0.889-0.643,1.366-0.366l1.709,0.987
		c0.829-1.557,1.518-3.199,2.044-4.912L52.83,35.67c-0.533-0.143-0.85-0.691-0.707-1.225c0.143-0.534,0.692-0.85,1.225-0.707
		l1.909,0.511c0.392-1.705,0.629-3.468,0.692-5.275h-3.975C51.422,28.975,50.975,28.527,50.975,27.975z M27.975,48.975
		c-4.411,0-8-3.589-8-8s3.589-8,8-8s8,3.589,8,8S32.386,48.975,27.975,48.975z M38.975,28.854h-7.142
		c-0.447,1.72-1.999,3.121-3.858,3.121c-2.206,0-4-1.794-4-4c0-1.859,1.279-3.411,3-3.858V10.975c0-0.553,0.447-1,1-1s1,0.447,1,1
		v13.142c1.399,0.363,2.495,1.338,2.858,2.737h7.142c0.553,0,1,0.447,1,1S39.527,28.854,38.975,28.854z"/>
</g>
<g>
</g>
<g>
</g>
<g>
</g>
<g>
</g>
<g>
</g>
<g>
</g>
<g>
</g>
<g>
</g>
<g>
</g>
<g>
</g>
<g>
</g>
<g>
</g>
<g>
</g>
<g>
</g>
<g>
</g>
</svg>
