<?xml version="1.0" encoding="iso-8859-1"?>
<!-- Generator: Adobe Illustrator 19.0.0, SVG Export Plug-In . SVG Version: 6.00 Build 0)  -->
<svg version="1.1" id="Capa_1" xmlns="http://www.w3.org/2000/svg" xmlns:xlink="http://www.w3.org/1999/xlink" x="0px" y="0px"
	 viewBox="0 0 60.121 60.121" style="enable-background:new 0 0 60.121 60.121;" xml:space="preserve">
<g>
	<path d="M32.591,30.674l-12.944-9.363c-0.396-0.285-0.945-0.243-1.293,0.104c-0.348,0.348-0.391,0.896-0.104,1.293l9.365,12.946
		c0.668,0.919,1.746,1.468,2.884,1.468c0.95,0,1.845-0.371,2.518-1.044c0.737-0.737,1.114-1.756,1.033-2.797
		S33.438,31.29,32.591,30.674z"/>
	<path d="M56.141,26.143c-0.001-0.003,0-0.007-0.001-0.01c-0.001-0.004-0.004-0.007-0.005-0.011
		c-0.612-2.279-1.518-4.437-2.67-6.437c-0.01-0.021-0.01-0.043-0.022-0.064c-0.012-0.02-0.031-0.031-0.044-0.05
		c-1.011-1.735-2.207-3.347-3.566-4.809l2.147-2.147l1.415,1.414l4.242-4.242l-4.242-4.243l-4.243,4.243l1.414,1.414l-2.147,2.147
		c-1.462-1.358-3.074-2.555-4.809-3.566c-0.019-0.013-0.03-0.032-0.05-0.044c-0.02-0.012-0.044-0.011-0.064-0.022
		c-2-1.153-4.158-2.058-6.436-2.67c-0.004-0.001-0.007-0.004-0.011-0.005c-0.004-0.001-0.007,0-0.01,0
		c-1.291-0.346-2.619-0.598-3.978-0.749V5h1.5c1.379,0,2.5-1.121,2.5-2.5S35.939,0,34.561,0h-9c-1.379,0-2.5,1.121-2.5,2.5
		s1.121,2.5,2.5,2.5h1.5v1.292c-1.359,0.151-2.687,0.403-3.978,0.749c-0.004,0.001-0.007,0-0.01,0.001
		c-0.004,0.001-0.007,0.004-0.011,0.005c-2.278,0.612-4.436,1.518-6.436,2.67c-0.021,0.01-0.044,0.01-0.065,0.022
		c-0.02,0.012-0.031,0.031-0.05,0.044c-1.734,1.011-3.347,2.207-4.809,3.566l-2.147-2.147l1.414-1.414L6.726,5.544L2.483,9.787
		l4.242,4.242l1.415-1.414l2.147,2.147c-1.358,1.462-2.555,3.074-3.565,4.809c-0.013,0.019-0.033,0.03-0.044,0.05
		c-0.012,0.021-0.011,0.043-0.022,0.064c-1.153,2-2.058,4.158-2.67,6.437c-0.001,0.004-0.004,0.007-0.005,0.011
		c-0.001,0.003,0,0.007-0.001,0.01c-0.596,2.227-0.919,4.565-0.919,6.978s0.323,4.75,0.919,6.978c0.001,0.004,0,0.007,0.001,0.01
		c0.001,0.005,0.005,0.009,0.006,0.014c0.612,2.278,1.517,4.435,2.669,6.434c0.01,0.021,0.01,0.043,0.022,0.064
		c0.017,0.029,0.041,0.051,0.06,0.078c1.165,1.993,2.573,3.827,4.191,5.454c0.016,0.019,0.022,0.042,0.04,0.06
		s0.041,0.024,0.06,0.04c1.634,1.626,3.478,3.039,5.482,4.207c0.019,0.013,0.03,0.032,0.05,0.044
		c0.03,0.017,0.063,0.025,0.094,0.039c1.991,1.144,4.14,2.044,6.407,2.653c0.004,0.001,0.007,0.004,0.011,0.005
		c0.005,0.001,0.01,0.001,0.015,0.002c2.226,0.596,4.562,0.918,6.973,0.918s4.747-0.322,6.973-0.918c0.005-0.001,0.01,0,0.015-0.002
		c0.004-0.001,0.007-0.004,0.011-0.005c2.267-0.609,4.415-1.509,6.407-2.653c0.031-0.014,0.064-0.021,0.094-0.039
		c0.02-0.012,0.031-0.031,0.05-0.044c2.004-1.168,3.847-2.581,5.482-4.207c0.019-0.016,0.042-0.022,0.06-0.04s0.024-0.042,0.04-0.06
		c1.618-1.627,3.026-3.461,4.191-5.454c0.019-0.027,0.043-0.048,0.06-0.078c0.012-0.021,0.011-0.043,0.022-0.064
		c1.152-1.999,2.057-4.156,2.669-6.434c0.001-0.005,0.005-0.009,0.006-0.014c0.001-0.003,0-0.007,0.001-0.01
		c0.596-2.227,0.919-4.565,0.919-6.978S56.738,28.371,56.141,26.143z M52.018,40.04l1.915,0.513
		c-0.455,1.458-1.045,2.857-1.747,4.188l-1.707-0.986c-0.478-0.277-1.09-0.114-1.366,0.366c-0.276,0.479-0.112,1.09,0.366,1.366
		l1.703,0.983c-0.813,1.282-1.736,2.486-2.762,3.596l-1.389-1.389c-0.391-0.391-1.023-0.391-1.414,0s-0.391,1.023,0,1.414
		l1.389,1.389c-1.11,1.026-2.314,1.949-3.596,2.762l-0.983-1.703c-0.277-0.48-0.89-0.644-1.366-0.366
		c-0.479,0.276-0.643,0.888-0.366,1.366l0.986,1.707c-1.331,0.702-2.729,1.292-4.188,1.747l-0.513-1.914
		c-0.143-0.534-0.691-0.852-1.225-0.707c-0.533,0.143-0.85,0.691-0.707,1.225l0.511,1.908c-1.456,0.328-2.959,0.53-4.498,0.591
		v-1.975c0-0.553-0.447-1-1-1s-1,0.447-1,1v1.975c-1.539-0.061-3.042-0.263-4.498-0.591l0.511-1.908
		c0.143-0.533-0.174-1.082-0.707-1.225c-0.533-0.144-1.082,0.173-1.225,0.707l-0.513,1.914c-1.458-0.455-2.857-1.045-4.188-1.747
		l0.986-1.707c0.276-0.479,0.112-1.09-0.366-1.366c-0.478-0.277-1.09-0.114-1.366,0.366l-0.983,1.703
		c-1.282-0.813-2.486-1.736-3.596-2.762l1.389-1.389c0.391-0.391,0.391-1.023,0-1.414s-1.023-0.391-1.414,0l-1.389,1.389
		c-1.026-1.11-1.949-2.314-2.762-3.596l1.703-0.983c0.479-0.276,0.643-0.888,0.366-1.366c-0.277-0.48-0.89-0.644-1.366-0.366
		L7.935,44.74c-0.702-1.331-1.292-2.729-1.747-4.188l1.915-0.513c0.533-0.143,0.85-0.691,0.707-1.225
		c-0.142-0.534-0.69-0.852-1.225-0.707L5.677,38.62c-0.328-1.456-0.53-2.959-0.591-4.499h1.975c0.553,0,1-0.447,1-1s-0.447-1-1-1
		H5.086c0.061-1.539,0.263-3.042,0.591-4.498l1.909,0.512c0.087,0.023,0.174,0.034,0.26,0.034c0.441,0,0.845-0.294,0.965-0.741
		c0.144-0.533-0.174-1.082-0.707-1.225l-1.915-0.514c0.455-1.458,1.045-2.857,1.747-4.188l1.707,0.986
		c0.157,0.091,0.329,0.134,0.499,0.134c0.346,0,0.682-0.179,0.867-0.5c0.276-0.479,0.112-1.09-0.366-1.366l-1.703-0.983
		c0.813-1.282,1.736-2.486,2.762-3.596l1.389,1.389c0.195,0.195,0.451,0.293,0.707,0.293s0.512-0.098,0.707-0.293
		c0.391-0.391,0.391-1.023,0-1.414l-1.389-1.389c1.11-1.025,2.314-1.949,3.596-2.762l0.983,1.704c0.186,0.32,0.521,0.5,0.867,0.5
		c0.17,0,0.342-0.043,0.499-0.134c0.479-0.276,0.643-0.888,0.366-1.366l-0.986-1.708c1.331-0.702,2.729-1.292,4.188-1.747
		l0.513,1.915c0.119,0.446,0.523,0.741,0.965,0.741c0.086,0,0.173-0.011,0.26-0.034c0.533-0.143,0.85-0.691,0.707-1.225
		l-0.511-1.909c1.456-0.328,2.959-0.53,4.499-0.591v1.975c0,0.553,0.447,1,1,1s1-0.447,1-1V8.146
		c1.539,0.061,3.042,0.263,4.499,0.591l-0.511,1.909c-0.143,0.533,0.174,1.082,0.707,1.225c0.087,0.023,0.174,0.034,0.26,0.034
		c0.441,0,0.846-0.295,0.965-0.741l0.513-1.915c1.458,0.455,2.857,1.045,4.188,1.747l-0.986,1.708
		c-0.276,0.479-0.112,1.09,0.366,1.366c0.157,0.091,0.329,0.134,0.499,0.134c0.346,0,0.682-0.18,0.867-0.5L43.41,12
		c1.282,0.813,2.486,1.737,3.596,2.762l-1.389,1.389c-0.391,0.391-0.391,1.023,0,1.414c0.195,0.195,0.451,0.293,0.707,0.293
		s0.512-0.098,0.707-0.293l1.389-1.389c1.026,1.11,1.949,2.314,2.762,3.596l-1.703,0.983c-0.479,0.276-0.643,0.888-0.366,1.366
		c0.186,0.321,0.521,0.5,0.867,0.5c0.17,0,0.342-0.043,0.499-0.134l1.707-0.986c0.702,1.331,1.292,2.729,1.747,4.188l-1.915,0.514
		c-0.533,0.143-0.851,0.691-0.707,1.225c0.12,0.447,0.523,0.741,0.965,0.741c0.086,0,0.173-0.011,0.26-0.034l1.909-0.512
		c0.328,1.456,0.53,2.959,0.591,4.498h-1.975c-0.553,0-1,0.447-1,1s0.447,1,1,1h1.975c-0.061,1.539-0.263,3.042-0.591,4.499
		l-1.909-0.511c-0.531-0.144-1.082,0.174-1.225,0.707S51.484,39.897,52.018,40.04z"/>
</g>
<g>
</g>
<g>
</g>
<g>
</g>
<g>
</g>
<g>
</g>
<g>
</g>
<g>
</g>
<g>
</g>
<g>
</g>
<g>
</g>
<g>
</g>
<g>
</g>
<g>
</g>
<g>
</g>
<g>
</g>
</svg>
