<?xml version="1.0" encoding="iso-8859-1"?>
<!-- Generator: Adobe Illustrator 19.0.0, SVG Export Plug-In . SVG Version: 6.00 Build 0)  -->
<svg version="1.1" id="Capa_1" xmlns="http://www.w3.org/2000/svg" xmlns:xlink="http://www.w3.org/1999/xlink" x="0px" y="0px"
	 viewBox="0 0 60 60" style="enable-background:new 0 0 60 60;" xml:space="preserve">
<path d="M56.008,14h-28H3.992C1.791,14,0,15.791,0,17.992v24.016C0,44.209,1.791,46,3.992,46h24.016h28
	C58.209,46,60,44.209,60,42.008V17.992C60,15.791,58.209,14,56.008,14z M14,33c0,0.553-0.448,1-1,1s-1-0.447-1-1v-6
	c0-0.553,0.448-1,1-1s1,0.447,1,1V33z M17,33c0,0.553-0.448,1-1,1s-1-0.447-1-1v-6c0-0.553,0.448-1,1-1s1,0.447,1,1V33z M20,33
	c0,0.553-0.448,1-1,1s-1-0.447-1-1v-6c0-0.553,0.448-1,1-1s1,0.447,1,1V33z M58,42.008C58,43.106,57.106,44,56.008,44H31.447
	C31.789,43.411,32,42.737,32,42.008V17.992c0-0.729-0.211-1.403-0.553-1.992h24.561C57.106,16,58,16.894,58,17.992V42.008z"/>
<g>
</g>
<g>
</g>
<g>
</g>
<g>
</g>
<g>
</g>
<g>
</g>
<g>
</g>
<g>
</g>
<g>
</g>
<g>
</g>
<g>
</g>
<g>
</g>
<g>
</g>
<g>
</g>
<g>
</g>
</svg>
