<?xml version="1.0" encoding="iso-8859-1"?>
<!-- Generator: Adobe Illustrator 19.0.0, SVG Export Plug-In . SVG Version: 6.00 Build 0)  -->
<svg version="1.1" id="Capa_1" xmlns="http://www.w3.org/2000/svg" xmlns:xlink="http://www.w3.org/1999/xlink" x="0px" y="0px"
	 viewBox="0 0 60 60" style="enable-background:new 0 0 60 60;" xml:space="preserve">
<path d="M59,6H1C0.447,6,0,6.447,0,7v38c0,0.553,0.447,1,1,1h26v3h-5v5h16v-5h-5v-3h26c0.553,0,1-0.447,1-1V7
	C60,6.447,59.553,6,59,6z M19.188,33.936c0.354-0.334,0.735-0.614,1.132-0.83l4.685-2.72c0.166-0.091,0.36-0.184,0.58-0.289
	c0.357-0.17,1.155-0.549,1.416-0.803v-1.327c-0.966-0.623-2.981-2.122-3.647-4.138C22.793,23.437,22,22.753,22,21.789v-2.245
	c0-0.413,0.162-0.816,0.481-1.197C22.718,18.063,23,17.604,23,17.027V16c0.063-2.438,1.817-7,8-7s7.937,4.562,8,6.974v1.054
	c0,0.576,0.282,1.036,0.52,1.32c0.318,0.38,0.48,0.783,0.48,1.196v2.245c0,1.079-0.885,1.929-1.846,2.369
	c-0.443,1.134-1.137,2.189-1.83,3.171c-0.19,0.269-0.508,0.502-1.185,0.968c-0.048,0.033-0.095,0.065-0.14,0.096v1.302
	c0.116,0.03,0.258,0.061,0.367,0.083c0.342,0.072,0.73,0.153,1.08,0.328l0.096,0.055l4.621,2.989
	c0.395,0.204,0.772,0.464,1.125,0.775L42.374,34H19.119L19.188,33.936z M5,41v-4h7v4H5z M55,41H14v-4h41V41z M55,16h-6v-6h6V16z"/>
<g>
</g>
<g>
</g>
<g>
</g>
<g>
</g>
<g>
</g>
<g>
</g>
<g>
</g>
<g>
</g>
<g>
</g>
<g>
</g>
<g>
</g>
<g>
</g>
<g>
</g>
<g>
</g>
<g>
</g>
</svg>
