<?xml version="1.0" encoding="iso-8859-1"?>
<!-- Generator: Adobe Illustrator 19.0.0, SVG Export Plug-In . SVG Version: 6.00 Build 0)  -->
<svg version="1.1" id="Capa_1" xmlns="http://www.w3.org/2000/svg" xmlns:xlink="http://www.w3.org/1999/xlink" x="0px" y="0px"
	 viewBox="0 0 54 54" style="enable-background:new 0 0 54 54;" xml:space="preserve">
<path d="M43,20.113V14.5C43,6.505,35.822,0,27,0S11,6.505,11,14.5c0,0.553,0.447,1,1,1s1-0.447,1-1C13,7.607,19.28,2,27,2
	s14,5.607,14,12.5V20H12.229C8.243,20,5,23.243,5,27.229v19.542C5,50.757,8.243,54,12.229,54h29.542C45.757,54,49,50.757,49,46.771
	V27.229C49,23.663,46.401,20.699,43,20.113z M31,38c0,2.206-1.794,4-4,4s-4-1.794-4-4v-6c0-2.206,1.794-4,4-4s4,1.794,4,4V38z"/>
<g>
</g>
<g>
</g>
<g>
</g>
<g>
</g>
<g>
</g>
<g>
</g>
<g>
</g>
<g>
</g>
<g>
</g>
<g>
</g>
<g>
</g>
<g>
</g>
<g>
</g>
<g>
</g>
<g>
</g>
</svg>
