<?xml version="1.0" encoding="iso-8859-1"?>
<!-- Generator: Adobe Illustrator 19.0.0, SVG Export Plug-In . SVG Version: 6.00 Build 0)  -->
<svg version="1.1" id="Capa_1" xmlns="http://www.w3.org/2000/svg" xmlns:xlink="http://www.w3.org/1999/xlink" x="0px" y="0px"
	 viewBox="0 0 58 58" style="enable-background:new 0 0 58 58;" xml:space="preserve">
<path d="M40,21.314V10.22C40,4.585,35.065,0,29,0S18,4.585,18,10.22c0,0.553,0.447,1,1,1s1-0.447,1-1C20,5.688,24.037,2,29,2
	s9,3.688,9,8.22v9.938l0.001,0.007C35.292,18.792,32.24,18,29,18C17.972,18,9,26.972,9,38s8.972,20,20,20s20-8.972,20-20
	C49,31.034,45.416,24.896,40,21.314z M33,40c0,2.206-1.794,4-4,4s-4-1.794-4-4v-6c0-2.206,1.794-4,4-4s4,1.794,4,4V40z"/>
<g>
</g>
<g>
</g>
<g>
</g>
<g>
</g>
<g>
</g>
<g>
</g>
<g>
</g>
<g>
</g>
<g>
</g>
<g>
</g>
<g>
</g>
<g>
</g>
<g>
</g>
<g>
</g>
<g>
</g>
</svg>
