<?xml version="1.0" encoding="iso-8859-1"?>
<!-- Generator: Adobe Illustrator 19.0.0, SVG Export Plug-In . SVG Version: 6.00 Build 0)  -->
<svg version="1.1" id="Capa_1" xmlns="http://www.w3.org/2000/svg" xmlns:xlink="http://www.w3.org/1999/xlink" x="0px" y="0px"
	 viewBox="0 0 58 58" style="enable-background:new 0 0 58 58;" xml:space="preserve">
<path d="M40,21.314V10.22C40,4.585,35.065,0,29,0S18,4.585,18,10.22c0,0.553,0.447,1,1,1s1-0.447,1-1C20,5.688,24.037,2,29,2
	s9,3.688,9,8.22v9.944C35.291,18.791,32.239,18,29,18C17.972,18,9,26.972,9,38s8.972,20,20,20s20-8.972,20-20
	C49,31.034,45.416,24.896,40,21.314z M36.071,29.515l2.828-2.828c0.391-0.391,1.023-0.391,1.414,0s0.391,1.023,0,1.414l-2.828,2.828
	c-0.195,0.195-0.451,0.293-0.707,0.293s-0.512-0.098-0.707-0.293C35.681,30.538,35.681,29.905,36.071,29.515z M28,23
	c0-0.553,0.447-1,1-1s1,0.447,1,1v4c0,0.553-0.447,1-1,1s-1-0.447-1-1V23z M17.687,26.687c0.391-0.391,1.023-0.391,1.414,0
	l2.828,2.828c0.391,0.391,0.391,1.023,0,1.414c-0.195,0.195-0.451,0.293-0.707,0.293s-0.512-0.098-0.707-0.293l-2.828-2.828
	C17.296,27.71,17.296,27.077,17.687,26.687z M14,39c-0.553,0-1-0.447-1-1s0.447-1,1-1h4c0.553,0,1,0.447,1,1s-0.447,1-1,1H14z
	 M21.929,46.485l-2.828,2.828c-0.195,0.195-0.451,0.293-0.707,0.293s-0.512-0.098-0.707-0.293c-0.391-0.391-0.391-1.023,0-1.414
	l2.828-2.828c0.391-0.391,1.023-0.391,1.414,0S22.319,46.095,21.929,46.485z M30,53c0,0.553-0.447,1-1,1s-1-0.447-1-1v-4
	c0-0.553,0.447-1,1-1s1,0.447,1,1V53z M29,47c-4.963,0-9-4.037-9-9s4.037-9,9-9s9,4.037,9,9S33.963,47,29,47z M40.313,49.313
	c-0.195,0.195-0.451,0.293-0.707,0.293s-0.512-0.098-0.707-0.293l-2.828-2.828c-0.391-0.391-0.391-1.023,0-1.414
	s1.023-0.391,1.414,0l2.828,2.828C40.704,48.29,40.704,48.923,40.313,49.313z M44,39h-4c-0.553,0-1-0.447-1-1s0.447-1,1-1h4
	c0.553,0,1,0.447,1,1S44.553,39,44,39z"/>
<g>
</g>
<g>
</g>
<g>
</g>
<g>
</g>
<g>
</g>
<g>
</g>
<g>
</g>
<g>
</g>
<g>
</g>
<g>
</g>
<g>
</g>
<g>
</g>
<g>
</g>
<g>
</g>
<g>
</g>
</svg>
