<?xml version="1.0" encoding="iso-8859-1"?>
<!-- Generator: Adobe Illustrator 19.0.0, SVG Export Plug-In . SVG Version: 6.00 Build 0)  -->
<svg version="1.1" id="Capa_1" xmlns="http://www.w3.org/2000/svg" xmlns:xlink="http://www.w3.org/1999/xlink" x="0px" y="0px"
	 viewBox="0 0 60 60" style="enable-background:new 0 0 60 60;" xml:space="preserve">
<path d="M60,30C60,13.458,46.542,0,30,0c-0.226,0-0.449,0.012-0.673,0.017c-0.005,0-0.009,0-0.014,0
	c-0.02,0-0.038,0.002-0.058,0.002c-0.373,0.009-0.746,0.022-1.116,0.045c-0.292,0.017-0.57,0.04-0.847,0.065
	C12.015,1.503,0,14.372,0,30c0,5.583,1.537,10.811,4.204,15.292l-0.005,0.025l0.206,0.336c0.095,0.155,0.201,0.3,0.298,0.453
	c0.002-0.001,0.003-0.002,0.005-0.003C10.041,54.45,19.382,60,30,60c9.641,0,18.229-4.577,23.721-11.666
	c0.004,0.001,0.009,0.002,0.013,0.003c0.018-0.024,0.039-0.046,0.057-0.07l0.208-0.271l0-0.016C57.765,42.966,60,36.74,60,30z
	 M15.362,36.245c0.306-0.062,0.612-0.111,0.918-0.149c0.083-0.01,0.166-0.024,0.249-0.032c0.389-0.04,0.776-0.064,1.16-0.064h5.945
	C24.938,36,26,34.938,26,33.635V33c0-0.986-0.605-1.874-1.509-2.209C19.709,29.022,16,20.85,16,15c0-0.228,0.02-0.451,0.031-0.676
	l0.492-0.606c1.651-1.964,4.469-2.526,7.012-1.4C24.558,12.771,25.646,13,26.772,13c2.971,0,5.64-1.615,7.028-4.184
	c3.302,1.084,6.245,3.158,8.165,5.775l0.022-0.016l0,0.193c0.002,0.117-0.003,0.238-0.004,0.357
	c-0.031,5.177-2.76,11.859-6.646,14.673c-0.05,0.036-0.102,0.065-0.152,0.099c-0.228,0.158-0.458,0.309-0.693,0.439
	c-0.301,0.165-0.607,0.312-0.92,0.429C32.617,31.126,32,31.999,32,32.99v0.645C32,34.938,33.062,36,34.365,36h5.945
	c0.407,0,0.819,0.023,1.232,0.068c0.011,0.001,0.023,0.004,0.034,0.005c0.393,0.044,0.787,0.108,1.18,0.192
	c1.151,0.247,2.237,0.666,3.236,1.225L30,51.767V51c0-4.411,3.589-8,8-8c0.553,0,1-0.447,1-1s-0.447-1-1-1
	c-3.961,0-7.382,2.322-9,5.67C27.382,43.322,23.961,41,20,41c-0.553,0-1,0.447-1,1s0.447,1,1,1c4.411,0,8,3.589,8,8v0.768
	L11.994,37.493C13.034,36.91,14.169,36.489,15.362,36.245z M13,49h2v4.625c-0.687-0.438-1.355-0.903-2-1.397V49z M43,49h2v4.625
	c-0.649,0.414-1.316,0.802-2,1.163V49z M58,30c0,5.463-1.578,10.562-4.295,14.875c-0.4-1.902-1.205-3.653-2.307-5.177
	c-0.044-0.062-0.091-0.121-0.136-0.182c-0.227-0.303-0.464-0.596-0.714-0.879c-0.085-0.097-0.173-0.192-0.261-0.286
	c-0.229-0.244-0.466-0.479-0.711-0.705c-0.109-0.101-0.217-0.201-0.33-0.299c-0.258-0.224-0.527-0.434-0.801-0.638
	c-0.075-0.055-0.141-0.119-0.217-0.173l-0.649-0.463l-0.026,0.024c-1.092-0.685-2.284-1.22-3.553-1.577V15l-0.012-1h-0.035
	c-0.018-0.285-0.031-0.573-0.064-0.85c-0.477-3.978-2.576-7.498-5.592-9.895C49.698,6.8,58,17.448,58,30z M18.247,4.595
	C15.616,7.314,14,10.997,14,15v19.516c-1.268,0.358-2.464,0.899-3.563,1.589l-0.032-0.028l-0.649,0.463
	c-0.158,0.113-0.302,0.239-0.455,0.357c-0.119,0.092-0.239,0.182-0.354,0.278c-0.194,0.161-0.379,0.329-0.563,0.499
	c-0.111,0.103-0.222,0.206-0.33,0.313c-0.179,0.177-0.351,0.358-0.519,0.544c-0.101,0.112-0.2,0.225-0.298,0.341
	c-0.161,0.19-0.318,0.383-0.468,0.581c-0.094,0.124-0.184,0.252-0.274,0.38c-0.14,0.198-0.277,0.397-0.406,0.602
	c-0.091,0.145-0.174,0.294-0.26,0.442c-0.114,0.198-0.229,0.395-0.333,0.598c-0.09,0.176-0.17,0.359-0.252,0.539
	c-0.085,0.185-0.174,0.368-0.25,0.558l0,0C3.083,38.789,2,34.52,2,30C2,18.757,8.664,9.047,18.247,4.595z"/>
<g>
</g>
<g>
</g>
<g>
</g>
<g>
</g>
<g>
</g>
<g>
</g>
<g>
</g>
<g>
</g>
<g>
</g>
<g>
</g>
<g>
</g>
<g>
</g>
<g>
</g>
<g>
</g>
<g>
</g>
</svg>
