<?xml version="1.0" encoding="iso-8859-1"?>
<!-- Generator: Adobe Illustrator 19.0.0, SVG Export Plug-In . SVG Version: 6.00 Build 0)  -->
<svg version="1.1" id="Capa_1" xmlns="http://www.w3.org/2000/svg" xmlns:xlink="http://www.w3.org/1999/xlink" x="0px" y="0px"
	 viewBox="0 0 60 60" style="enable-background:new 0 0 60 60;" xml:space="preserve">
<path d="M47.964,43.865l-10.977-4.753c-0.34-0.17-0.701-0.604-1.032-1.112l7.67-0.005c0,0,0.42,0.041,1.07,0.041
	c1.199,0,2.947-0.136,4.463-0.787c0.886-0.381,1.546-1.135,1.811-2.068c0.267-0.942,0.099-1.94-0.462-2.739
	c-2.111-3.004-7.037-10.854-7.191-18.824C43.313,13.482,42.872,0.108,29.669,0c-7.735,0.063-11.401,4.617-13.114,8.425
	c-0.833,1.852-1.322,4.016-1.493,6.612c-0.503,7.615-4.479,14.896-6.166,17.674c-0.444,0.73-0.58,1.626-0.374,2.458
	c0.204,0.82,0.71,1.508,1.427,1.937c1.279,0.764,2.697,0.925,3.662,0.925c0.324,0,0.562-0.02,0.673-0.03h7.364
	c-0.443,0.336-0.621,0.442-0.686,0.479l-9.261,5.363C8.801,45.424,7,48.458,7,51.762V54c0,4.746,15.045,6,23,6s23-1.254,23-6v-2.043
	C53,48.519,51.089,45.427,47.964,43.865z"/>
<g>
</g>
<g>
</g>
<g>
</g>
<g>
</g>
<g>
</g>
<g>
</g>
<g>
</g>
<g>
</g>
<g>
</g>
<g>
</g>
<g>
</g>
<g>
</g>
<g>
</g>
<g>
</g>
<g>
</g>
</svg>
