<?xml version="1.0" encoding="iso-8859-1"?>
<!-- Generator: Adobe Illustrator 19.0.0, SVG Export Plug-In . SVG Version: 6.00 Build 0)  -->
<svg version="1.1" id="Capa_1" xmlns="http://www.w3.org/2000/svg" xmlns:xlink="http://www.w3.org/1999/xlink" x="0px" y="0px"
	 viewBox="0 0 60 60" style="enable-background:new 0 0 60 60;" xml:space="preserve">
<g>
	<path d="M30,0C13.458,0,0,13.458,0,30s13.458,30,30,30s30-13.458,30-30S46.542,0,30,0z M24.763,12.317
		C25.785,12.771,26.874,13,28,13c2.971,0,5.64-1.615,7.028-4.184c3.182,1.045,6.022,3.015,7.943,5.498
		c0.293,6.1-3.294,14.533-8.398,16.452C33.617,31.126,33,31.999,33,32.99v0.645c0,1.146,0.82,2.103,1.904,2.319L32,39.438V39h-4
		v0.438l-2.904-3.484C26.18,35.738,27,34.78,27,33.635V33c0-0.986-0.605-1.874-1.509-2.209C20.709,29.022,17,20.85,17,15
		c0-0.128,0.016-0.253,0.019-0.38l0.732-0.902C19.402,11.754,22.22,11.191,24.763,12.317z M37.469,36h3.054l-2.993,7.484L34,41.132
		v-0.97L37.469,36z M26,40.162v0.97l-3.529,2.353L19.478,36h3.054L26,40.162z M2,30C2,18.083,9.486,7.888,19.999,3.853
		C16.939,6.601,15,10.573,15,15c0,6.629,4.19,15.593,9.797,17.666C24.916,32.711,25,32.848,25,33v0.635
		C25,33.836,24.836,34,24.635,34h-1.166h-4.779h-0.545c-0.095,0-0.188,0.014-0.278,0.037c-5.794,0.343-10.631,4.258-12.257,9.688
		C3.316,39.667,2,34.985,2,30z M14,48v4.958c-2.399-1.677-4.525-3.717-6.295-6.045c-0.082-0.107-0.162-0.215-0.242-0.323
		c-0.12-0.163-0.236-0.33-0.353-0.496c0.724-5.339,4.968-9.417,10.247-10.012l4.173,10.432L28,42.202V44h0.862l-1.76,13.835
		c-4.009-0.417-7.773-1.671-11.102-3.602V48H14z M28.342,57.944c-0.246-0.015-0.49-0.037-0.735-0.058
		C27.852,57.907,28.098,57.929,28.342,57.944z M30,58c-0.02,0-0.04-0.002-0.061-0.002c0.023,0,0.045,0.002,0.068,0.002
		C30.005,58,30.002,58,30,58z M31.74,57.938c0.214-0.014,0.429-0.033,0.644-0.052C32.169,57.905,31.956,57.925,31.74,57.938z
		 M46,52.958V48h-2v6.233c-3.322,1.927-7.076,3.178-11.075,3.597L31.14,44H32v-1.798l6.471,4.313l4.173-10.432
		c5.279,0.595,9.524,4.673,10.247,10.012C51.009,48.763,48.676,51.088,46,52.958z M42.426,34.052L42.386,34h-1.075h-4.779h-1.166
		C35.164,34,35,33.836,35,33.635V32.99c0-0.183,0.149-0.303,0.276-0.352c6.439-2.421,10.455-12.464,9.613-19.488
		c-0.439-3.658-2.25-6.927-4.883-9.295C50.517,7.892,58,18.086,58,30c0,4.978-1.312,9.652-3.598,13.707
		C52.798,38.375,48.087,34.506,42.426,34.052z"/>
</g>
<g>
</g>
<g>
</g>
<g>
</g>
<g>
</g>
<g>
</g>
<g>
</g>
<g>
</g>
<g>
</g>
<g>
</g>
<g>
</g>
<g>
</g>
<g>
</g>
<g>
</g>
<g>
</g>
<g>
</g>
</svg>
