<?xml version="1.0" encoding="iso-8859-1"?>
<!-- Generator: Adobe Illustrator 19.0.0, SVG Export Plug-In . SVG Version: 6.00 Build 0)  -->
<svg version="1.1" id="Capa_1" xmlns="http://www.w3.org/2000/svg" xmlns:xlink="http://www.w3.org/1999/xlink" x="0px" y="0px"
	 viewBox="0 0 60 60" style="enable-background:new 0 0 60 60;" xml:space="preserve">
<path d="M60,30C60,13.458,46.542,0,30,0S0,13.458,0,30c0,6.142,1.858,11.857,5.038,16.618l-0.002,0.021l0.207,0.303
	c5.602,8.173,15.185,13.191,25.104,13.056c9.711-0.132,18.964-5.079,24.443-13.105l0.174-0.254l-0.002-0.021
	C58.142,41.857,60,36.142,60,30z M58,30c0,4.972-1.309,9.642-3.591,13.694C52.697,38.02,47.458,34,41.311,34h-3.725h-2.221
	C35.164,34,35,33.836,35,33.635V32.99c0-0.183,0.149-0.303,0.276-0.352c6.439-2.421,10.455-12.464,9.613-19.488
	c-0.439-3.658-2.251-6.927-4.883-9.295C50.517,7.892,58,18.086,58,30z M25.491,30.791C20.709,29.022,17,20.85,17,15
	c0-0.727,0.075-1.435,0.19-2.13c2.018-2.192,5.226-2.686,7.978-1.467C26.034,11.787,26.992,12,28,12c2.942,0,5.456-1.818,6.492-4.39
	c3.12,0.857,6.076,2.614,8.273,4.938c0.053,0.278,0.104,0.557,0.138,0.84c0.735,6.136-2.964,15.36-8.33,17.378
	C33.617,31.126,33,31.999,33,32.99v0.645C33,34.938,34.062,36,35.365,36h0.221L30,41.586L24.414,36h0.221
	C25.939,36,27,34.938,27,33.635V33C27,32.014,26.395,31.126,25.491,30.791z M19.999,3.853C16.939,6.601,15,10.573,15,15
	c0,6.629,4.19,15.593,9.797,17.666C24.916,32.711,25,32.848,25,33v0.635C25,33.836,24.836,34,24.635,34h-2.221H18.69
	c-3.364,0-6.664,1.264-9.17,3.505c-1.819,1.637-3.196,3.762-3.929,6.189C3.309,39.642,2,34.972,2,30
	C2,18.083,9.486,7.888,19.999,3.853C16.939,6.601,9.486,7.888,19.999,3.853z M14,52.958c0-1.205,0-2.41,0-3.615
	c0-0.445,0-0.889,0-1.334C14,47.99,15.633,48,15.792,48C16.138,48,16,48.283,16,48.598c0,0.74,0,1.48,0,2.22
	c0,1.138,0,2.276,0,3.415C15.316,53.836,14.648,53.412,14,52.958z M44,54.233c0-1.204,0-2.408,0-3.612c0-0.714,0-1.427,0-2.141
	c0-0.619,0.054-0.48,0.704-0.48C44.983,48,46,47.813,46,48.153c0,0.71,0,1.42,0,2.13c0,0.744,0,1.488,0,2.232
	C46,53.418,44.712,53.82,44,54.233z"/>
<g>
</g>
<g>
</g>
<g>
</g>
<g>
</g>
<g>
</g>
<g>
</g>
<g>
</g>
<g>
</g>
<g>
</g>
<g>
</g>
<g>
</g>
<g>
</g>
<g>
</g>
<g>
</g>
<g>
</g>
</svg>
