<?xml version="1.0" encoding="iso-8859-1"?>
<!-- Generator: Adobe Illustrator 19.0.0, SVG Export Plug-In . SVG Version: 6.00 Build 0)  -->
<svg version="1.1" id="Capa_1" xmlns="http://www.w3.org/2000/svg" xmlns:xlink="http://www.w3.org/1999/xlink" x="0px" y="0px"
	 viewBox="0 0 55 55" style="enable-background:new 0 0 55 55;" xml:space="preserve">
<g>
	<path d="M27.5,0C12.336,0,0,12.337,0,27.5c0,7.976,3.417,15.167,8.86,20.195l-0.072,0.098l0.705,0.604
		c3.904,3.342,8.655,5.483,13.681,6.26c0.356,0.056,0.715,0.102,1.075,0.144c0.391,0.045,0.782,0.085,1.176,0.112
		c0.579,0.043,1.162,0.071,1.75,0.078c0.062,0,0.123,0.008,0.185,0.008c0.017,0,0.035-0.002,0.052-0.002
		c0.03,0,0.059,0.002,0.089,0.002C42.664,55,55,42.663,55,27.5S42.664,0,27.5,0z M44.25,46.702
		c-0.633-0.815-1.415-1.491-2.293-1.969l-7.619-4.609c-0.016-0.009-0.07-0.04-0.19-0.124h5.539c0.434,0.061,2.162,0.229,3.67-0.673
		c0.627-0.374,1.072-0.977,1.25-1.695c0.181-0.727,0.062-1.511-0.327-2.151c-2.088-3.438-4.655-8.691-5.018-14.189
		c-0.143-2.147-0.547-3.938-1.237-5.473c-1.424-3.164-4.469-6.947-10.91-7c-10.964,0.09-11.33,11.206-11.332,11.32
		c-0.125,6.47-4.134,12.855-5.851,15.3c-0.467,0.665-0.616,1.312-0.444,1.921c0.188,0.66,0.719,1.171,1.625,1.56
		c1.917,0.823,4.322,1.066,4.521,1.081h6.084c-0.167,0.324-0.395,0.735-0.512,0.813l-9.166,3.933
		c-0.713,0.356-1.349,0.83-1.914,1.395C5.132,41.483,2,34.852,2,27.5C2,13.439,13.439,2,27.5,2S53,13.439,53,27.5
		C53,35.153,49.606,42.024,44.25,46.702z"/>
</g>
<g>
</g>
<g>
</g>
<g>
</g>
<g>
</g>
<g>
</g>
<g>
</g>
<g>
</g>
<g>
</g>
<g>
</g>
<g>
</g>
<g>
</g>
<g>
</g>
<g>
</g>
<g>
</g>
<g>
</g>
</svg>
