<?xml version="1.0" encoding="iso-8859-1"?>
<!-- Generator: Adobe Illustrator 19.0.0, SVG Export Plug-In . SVG Version: 6.00 Build 0)  -->
<svg version="1.1" id="Capa_1" xmlns="http://www.w3.org/2000/svg" xmlns:xlink="http://www.w3.org/1999/xlink" x="0px" y="0px"
	 viewBox="0 0 55 55" style="enable-background:new 0 0 55 55;" xml:space="preserve">
<g>
	<path d="M0.5,55h54V37h-54V55z M17.5,44h4v-2c0-0.553,0.447-1,1-1s1,0.447,1,1v2h24c0.553,0,1,0.447,1,1s-0.447,1-1,1h-24v2
		c0,0.553-0.447,1-1,1s-1-0.447-1-1v-2h-4c-0.553,0-1-0.447-1-1S16.947,44,17.5,44z M10.5,42c0-0.553,0.447-1,1-1s1,0.447,1,1v6
		c0,0.553-0.447,1-1,1s-1-0.447-1-1V42z M6.5,42c0-0.553,0.447-1,1-1s1,0.447,1,1v6c0,0.553-0.447,1-1,1s-1-0.447-1-1V42z"/>
	<path d="M0.5,0v35h54V0H0.5z M34.037,18.844l-11,7C22.873,25.947,22.687,26,22.5,26c-0.165,0-0.331-0.041-0.481-0.123
		C21.699,25.701,21.5,25.365,21.5,25V11c0-0.365,0.199-0.701,0.519-0.877c0.321-0.175,0.709-0.162,1.019,0.033l11,7
		C34.325,17.34,34.5,17.658,34.5,18S34.325,18.66,34.037,18.844z"/>
</g>
<g>
</g>
<g>
</g>
<g>
</g>
<g>
</g>
<g>
</g>
<g>
</g>
<g>
</g>
<g>
</g>
<g>
</g>
<g>
</g>
<g>
</g>
<g>
</g>
<g>
</g>
<g>
</g>
<g>
</g>
</svg>
