<?xml version="1.0" encoding="iso-8859-1"?>
<!-- Generator: Adobe Illustrator 19.0.0, SVG Export Plug-In . SVG Version: 6.00 Build 0)  -->
<svg version="1.1" id="Capa_1" xmlns="http://www.w3.org/2000/svg" xmlns:xlink="http://www.w3.org/1999/xlink" x="0px" y="0px"
	 viewBox="0 0 60 60" style="enable-background:new 0 0 60 60;" xml:space="preserve">
<g>
	<path d="M40.693,17.777H36v-5c0-1.654-1.346-3-3-3H1c-0.552,0-1,0.447-1,1s0.448,1,1,1h32c0.551,0,1,0.448,1,1v5H3.307
		C1.483,17.777,0,19.261,0,21.084v25.387c0,1.823,1.483,3.307,3.307,3.307h37.386c1.824,0,3.307-1.483,3.307-3.307V21.084
		C44,19.261,42.517,17.777,40.693,17.777z"/>
	<path d="M56.234,17.332c-0.545,0-1.077,0.117-1.58,0.35L46,22.138v23.279l8.654,4.456c0.503,0.232,1.035,0.35,1.58,0.35
		c2.076,0,3.766-1.69,3.766-3.77V21.102C60,19.022,58.311,17.332,56.234,17.332z"/>
</g>
<g>
</g>
<g>
</g>
<g>
</g>
<g>
</g>
<g>
</g>
<g>
</g>
<g>
</g>
<g>
</g>
<g>
</g>
<g>
</g>
<g>
</g>
<g>
</g>
<g>
</g>
<g>
</g>
<g>
</g>
</svg>
