<?xml version="1.0" encoding="iso-8859-1"?>
<!-- Generator: Adobe Illustrator 19.0.0, SVG Export Plug-In . SVG Version: 6.00 Build 0)  -->
<svg version="1.1" id="Capa_1" xmlns="http://www.w3.org/2000/svg" xmlns:xlink="http://www.w3.org/1999/xlink" x="0px" y="0px"
	 viewBox="0 0 59.862 59.862" style="enable-background:new 0 0 59.862 59.862;" xml:space="preserve">
<g>
	<path d="M33.793,31.868c0-2.13-1.733-3.862-3.862-3.862s-3.862,1.732-3.862,3.862c0,2.13,1.733,3.862,3.862,3.862
		S33.793,33.998,33.793,31.868z"/>
	<path d="M39.586,31.868c0-5.324-4.331-9.655-9.655-9.655s-9.655,4.332-9.655,9.655c0,3.39,1.823,6.573,4.757,8.31
		c0.92,0.542,2.103,0.239,2.645-0.679c0.543-0.918,0.239-2.103-0.678-2.646c-1.765-1.044-2.862-2.954-2.862-4.985
		c0-3.194,2.599-5.793,5.793-5.793c3.194,0,5.793,2.599,5.793,5.793c0,2.031-1.097,3.941-2.862,4.986
		c-0.918,0.543-1.222,1.727-0.678,2.645c0.361,0.609,1.004,0.948,1.664,0.948c0.334,0,0.673-0.087,0.982-0.27
		C37.763,38.441,39.586,35.257,39.586,31.868z"/>
	<path d="M29.931,1.937C13.427,1.937,0,15.364,0,31.868c0,10.54,5.648,20.421,14.74,25.788c0.917,0.543,2.103,0.237,2.644-0.682
		c0.542-0.918,0.237-2.103-0.681-2.645C8.782,49.654,3.862,41.047,3.862,31.868c0-14.374,11.695-26.069,26.069-26.069
		S56,17.494,56,31.868c0,9.179-4.92,17.786-12.842,22.461c-0.918,0.542-1.223,1.726-0.681,2.645c0.36,0.61,1.004,0.949,1.665,0.949
		c0.333,0,0.672-0.086,0.98-0.268c9.092-5.367,14.741-15.248,14.741-25.788C59.862,15.364,46.435,1.937,29.931,1.937z"/>
	<path d="M53.103,31.868c0-12.777-10.395-23.172-23.172-23.172S6.759,19.091,6.759,31.868c0,8.147,4.374,15.794,11.414,19.957
		c0.309,0.182,0.647,0.269,0.981,0.269c0.66,0,1.304-0.338,1.664-0.949c0.543-0.917,0.239-2.102-0.679-2.645
		c-5.871-3.471-9.518-9.844-9.518-16.632c0-10.648,8.663-19.31,19.31-19.31s19.31,8.662,19.31,19.31
		c0,6.788-3.647,13.162-9.518,16.632c-0.918,0.543-1.222,1.727-0.679,2.645c0.544,0.919,1.727,1.222,2.645,0.68
		C48.729,47.662,53.103,40.015,53.103,31.868z"/>
	<path d="M46.344,31.868c0-9.051-7.363-16.414-16.414-16.414s-16.414,7.363-16.414,16.414c0,5.761,3.1,11.174,8.09,14.125
		c0.917,0.542,2.103,0.239,2.645-0.679c0.543-0.918,0.239-2.103-0.679-2.646c-3.821-2.259-6.194-6.398-6.194-10.801
		c0-6.921,5.63-12.552,12.552-12.552s12.552,5.631,12.552,12.552c0,4.402-2.374,8.542-6.194,10.801
		c-0.918,0.543-1.222,1.727-0.679,2.646c0.361,0.609,1.004,0.948,1.664,0.948c0.334,0,0.673-0.087,0.981-0.269
		C43.244,43.041,46.344,37.629,46.344,31.868z"/>
</g>
<g>
</g>
<g>
</g>
<g>
</g>
<g>
</g>
<g>
</g>
<g>
</g>
<g>
</g>
<g>
</g>
<g>
</g>
<g>
</g>
<g>
</g>
<g>
</g>
<g>
</g>
<g>
</g>
<g>
</g>
</svg>
