<?xml version="1.0" encoding="iso-8859-1"?>
<!-- Generator: Adobe Illustrator 19.0.0, SVG Export Plug-In . SVG Version: 6.00 Build 0)  -->
<svg version="1.1" id="Capa_1" xmlns="http://www.w3.org/2000/svg" xmlns:xlink="http://www.w3.org/1999/xlink" x="0px" y="0px"
	 viewBox="0 0 60 60" style="enable-background:new 0 0 60 60;" xml:space="preserve">
<path d="M47.007,5.305l0.049-0.032l-1.323-0.816c-0.078-0.048-0.16-0.088-0.238-0.136c-0.434-0.262-0.875-0.513-1.323-0.754
	c-0.227-0.122-0.457-0.237-0.687-0.353c-0.337-0.171-0.678-0.334-1.022-0.492c-0.203-0.093-0.405-0.188-0.609-0.276
	c-0.535-0.231-1.076-0.448-1.626-0.648c-0.113-0.041-0.228-0.076-0.342-0.116c-0.481-0.168-0.968-0.324-1.459-0.468
	c-0.157-0.046-0.314-0.091-0.472-0.134c-0.544-0.15-1.094-0.287-1.65-0.406c-0.053-0.011-0.104-0.025-0.157-0.036
	c-0.615-0.129-1.237-0.235-1.865-0.325c-0.138-0.02-0.278-0.035-0.416-0.053c-0.491-0.063-0.985-0.115-1.483-0.154
	c-0.168-0.013-0.335-0.028-0.503-0.038C31.258,0.026,30.632,0,30,0c-0.683,0-1.358,0.031-2.03,0.076
	c-0.176,0.012-0.351,0.025-0.527,0.04c-0.631,0.053-1.258,0.121-1.878,0.214c-0.062,0.009-0.124,0.017-0.186,0.026
	c-0.624,0.097-1.24,0.219-1.85,0.354c-0.202,0.044-0.403,0.091-0.604,0.14c-0.562,0.136-1.118,0.285-1.667,0.452
	c-0.174,0.053-0.346,0.111-0.518,0.167c-0.492,0.16-0.979,0.333-1.459,0.518c-0.22,0.084-0.44,0.17-0.658,0.26
	c-0.552,0.227-1.098,0.465-1.633,0.724c-0.176,0.085-0.349,0.18-0.524,0.269c-0.418,0.212-0.83,0.433-1.236,0.664
	c-0.203,0.115-0.405,0.229-0.606,0.349c-0.508,0.305-1.007,0.623-1.495,0.956c-0.067,0.046-0.138,0.084-0.204,0.131l-0.545,0.378
	l0.005,0.022C4.887,11.197,0,20.036,0,30c0,16.542,13.458,30,30,30s30-13.458,30-30C60,19.769,54.848,10.722,47.007,5.305z M30,58
	C14.561,58,2,45.439,2,30c0-9.077,4.345-17.156,11.061-22.275c0.177,0.397,0.358,0.807,0.546,1.235
	c1.967,4.485,4.415,10.066,8.508,11.636c1.077,0.413,2.082,0.56,3.053,0.7c1.026,0.149,1.995,0.29,2.937,0.752
	c0.076,0.037,0.233,0.159,0.273,0.209c0.357,0.524,0.454,1.248,0.547,1.948c0.129,0.966,0.275,2.061,1.253,2.578
	c0.318,0.169,0.596,0.509,0.453,0.86c-1.553,3.812-0.242,8.191,3.341,11.157c0.918,0.76,1.356,2.842-1.772,8.442
	c-0.439,0.786-0.43,1.717,0.023,2.49C32.682,50.515,33.52,51,34.41,51c0.29,0,0.58-0.051,0.86-0.15
	c2.165-0.77,4.006-1.888,6.157-3.739c1.485-1.276,2.392-2.575,3.27-3.832c0.886-1.269,1.724-2.468,3.097-3.479
	c0.2-0.146,0.348-0.345,0.427-0.575c0.108-0.316,0.25-0.688,0.406-1.098c1.028-2.696,2.582-6.771-0.174-8.204
	c-0.991-0.515-1.688-1.702-2.497-3.077c-0.63-1.073-1.345-2.289-2.316-3.311c-0.376-0.395-0.906-0.646-1.53-0.727
	c-0.86-0.11-1.547-0.443-2.213-0.765c-0.721-0.349-1.402-0.678-2.199-0.678c-0.636,0-1.226,0.211-1.802,0.644
	c-0.692,0.522-1.402,0.223-1.658-0.661c-0.194-0.671-0.599-1.495-2.012-1.931c-0.062-0.02-0.11-0.063-0.143-0.131
	c-0.044-0.089-0.049-0.199-0.003-0.325c0.175-0.478,0.124-0.951-0.144-1.336c-0.459-0.658-1.333-0.751-1.974-0.756
	c-0.021-0.084-0.053-0.17-0.102-0.258l-0.295-0.527l-0.917,0.02l-0.235,0.139c-0.255,0.148-0.566,0.043-0.818-0.221
	c-0.211-0.221-0.33-0.517-0.317-0.79c0.01-0.229,0.025-0.359,0.038-0.434c0.245-0.072,0.83-0.138,1.398-0.201l0.607-0.069
	l0.147-0.068c1.618-0.751,1.854-0.419,1.991-0.277c0.132,0.136,0.434,0.603,0.395,2.01l-0.025,0.888l0.878,0.13
	c0.257,0.038,0.493,0.056,0.708,0.056c1.057,0,1.613-0.445,1.894-0.82c0.474-0.632,0.541-1.5,0.204-2.653
	c-0.051-0.175-0.006-0.39,0.115-0.547c2.766-3.599,5.087-5.255,9.507-6.783C52.866,11.449,58,20.134,58,30
	C58,45.439,45.439,58,30,58z"/>
<g>
</g>
<g>
</g>
<g>
</g>
<g>
</g>
<g>
</g>
<g>
</g>
<g>
</g>
<g>
</g>
<g>
</g>
<g>
</g>
<g>
</g>
<g>
</g>
<g>
</g>
<g>
</g>
<g>
</g>
</svg>
