<svg height="512" viewBox="0 0 64 64" width="512" xmlns="http://www.w3.org/2000/svg"><g id="Computer-Engineer-Gear-Monitor-Construction"><path d="m31 12h5v2h-5z"/><path d="m52 30v10h-20v-3.1a7 7 0 0 0 -4.15-6.39l-4.85-2.16v-1.43a8.06 8.06 0 0 0 3.74-4.92h.26a3 3 0 0 0 0-6v-.18a2.983 2.983 0 0 0 -.05-5.65 6.934 6.934 0 0 0 -2-4.11 6.756 6.756 0 0 0 -2.95-1.75v-.31a2.006 2.006 0 0 0 -2-2h-2a2.006 2.006 0 0 0 -2 2v.3a6.96 6.96 0 0 0 -4.95 5.87 2.983 2.983 0 0 0 -.05 5.65v.18a3 3 0 0 0 0 6h.26a8.06 8.06 0 0 0 3.74 4.92v1.43l-4.85 2.16a7 7 0 0 0 -4.15 6.39v3.1h-2v-23a3.009 3.009 0 0 1 3-3v-2a5 5 0 0 0 -5 5v28a5 5 0 0 0 5 5h12.87l-.75 6h-1.12a3 3 0 0 0 0 6h20a3 3 0 0 0 0-6h-1.12l-.75-6h12.87a5 5 0 0 0 5-5v-15zm-41-10a1 1 0 0 1 0-2zm13 14a1 1 0 0 0 .48-.12 1.017 1.017 0 0 0 .49-.64l.41-1.64 1.65.73a5 5 0 0 1 2.97 4.57v3.1h-7.2l-1.52-6.85 2.4.8a1.185 1.185 0 0 0 .32.05zm-.47-3.23-.24.94-1.58-.53-.37-.73.69-.34zm4.47-11.77a1 1 0 0 1 -1 1v-2a1 1 0 0 1 1 1zm-6-12.57a5.106 5.106 0 0 1 1.54 1.04 4.913 4.913 0 0 1 1.36 2.53h-2.9zm-4-2.43h2v6h-2zm-2 2.43v3.57h-2.9a4.961 4.961 0 0 1 2.9-3.57zm-5 6.57a1 1 0 0 1 1-1h14a1 1 0 0 1 0 2h-14a1 1 0 0 1 -1-1zm2 7v-4h12v4a6 6 0 0 1 -12 0zm5.41 14.78a.9.9 0 0 0 1.18 0l1.16 5.22h-3.5zm-.19-2.98.4-.8h.76l.4.8-.78.79zm1.54-2.8h-1.52l-1.24-.62v-.64a7.822 7.822 0 0 0 4 0v.64zm-3.79 1.11.69.34-.37.73-1.58.53-.24-.94zm-7.97 6.79a5 5 0 0 1 2.97-4.57l1.65-.73.41 1.64a1.017 1.017 0 0 0 .49.64 1 1 0 0 0 .48.12 1.185 1.185 0 0 0 .32-.05l2.4-.8-1.52 6.85h-7.2zm30 21.1a1 1 0 0 1 0 2h-20a1 1 0 0 1 0-2zm-16.87-2 .75-6h12.24l.75 6zm30.87-11a3.009 3.009 0 0 1 -3 3h-42a3.009 3.009 0 0 1 -3-3v-3h48z"/><path d="m46 44h2v2h-2z"/><path d="m15 18h2v2h-2z"/><path d="m21 18h2v2h-2z"/><path d="m61.142 15.01-2.682-.383a10.86 10.86 0 0 0 -.679-1.639l1.625-2.166a1 1 0 0 0 -.093-1.307l-2.828-2.828a1 1 0 0 0 -1.306-.093l-2.167 1.624a10.9 10.9 0 0 0 -1.639-.678l-.383-2.682a1 1 0 0 0 -.99-.858h-4a1 1 0 0 0 -.99.858l-.383 2.682a10.855 10.855 0 0 0 -1.639.678l-2.167-1.624a1 1 0 0 0 -1.306.093l-2.828 2.828a1 1 0 0 0 -.093 1.307l1.625 2.166a10.86 10.86 0 0 0 -.679 1.639l-2.682.383a1 1 0 0 0 -.858.99v4a1 1 0 0 0 .858.99l2.682.383a10.86 10.86 0 0 0 .679 1.639l-1.625 2.166a1 1 0 0 0 .093 1.307l2.828 2.828a1 1 0 0 0 1.306.093l2.167-1.624a10.855 10.855 0 0 0 1.639.678l.383 2.682a1 1 0 0 0 .99.858h4a1 1 0 0 0 .99-.858l.383-2.682a10.9 10.9 0 0 0 1.639-.678l2.167 1.624a1 1 0 0 0 1.306-.093l2.828-2.828a1 1 0 0 0 .093-1.307l-1.625-2.166a10.86 10.86 0 0 0 .679-1.639l2.682-.383a1 1 0 0 0 .858-.99v-4a1 1 0 0 0 -.858-.99zm-1.142 4.123-2.463.352a1 1 0 0 0 -.827.742 8.923 8.923 0 0 1 -.977 2.357 1 1 0 0 0 .061 1.111l1.492 1.99-1.6 1.6-1.991-1.492a1 1 0 0 0 -1.11-.06 8.859 8.859 0 0 1 -2.356.975 1 1 0 0 0 -.744.828l-.352 2.464h-2.266l-.351-2.463a1 1 0 0 0 -.744-.828 8.859 8.859 0 0 1 -2.356-.975 1 1 0 0 0 -1.11.06l-1.991 1.492-1.6-1.6 1.492-1.99a1 1 0 0 0 .061-1.111 8.923 8.923 0 0 1 -.977-2.357 1 1 0 0 0 -.827-.742l-2.464-.353v-2.266l2.463-.352a1 1 0 0 0 .827-.742 8.923 8.923 0 0 1 .977-2.357 1 1 0 0 0 -.061-1.111l-1.492-1.99 1.6-1.6 1.991 1.492a1 1 0 0 0 1.11.06 8.859 8.859 0 0 1 2.356-.975 1 1 0 0 0 .744-.828l.352-2.464h2.266l.351 2.463a1 1 0 0 0 .744.828 8.859 8.859 0 0 1 2.356.975 1 1 0 0 0 1.11-.06l1.991-1.492 1.6 1.6-1.492 1.99a1 1 0 0 0 -.061 1.111 8.923 8.923 0 0 1 .977 2.357 1 1 0 0 0 .827.742l2.464.353z"/><path d="m48 12a6 6 0 1 0 6 6 6.006 6.006 0 0 0 -6-6zm0 10a4 4 0 1 1 4-4 4 4 0 0 1 -4 4z"/><path d="m36 32h8v2h-8z"/><path d="m36 36h8v2h-8z"/></g></svg>