<?xml version="1.0" standalone="no"?>
<svg version="1.1" id="downloadSvg" xmlns="http://www.w3.org/2000/svg" xmlns:xlink="http://www.w3.org/1999/xlink" x="0px" y="0px" viewBox="0 0 1200 1200" enable-background="new 0 0 1200 1200" xml:space="preserve" height="512" width="512">
<g>
	<g>
		<linearGradient id="SVGID_1_" gradientUnits="userSpaceOnUse" x1="604.3304" y1="1012.6952" x2="589.3125" y2="134.5779">
			<stop offset="0" style="stop-color:#2072B3"/>
			<stop offset="1" style="stop-color:#3EB3D1"/>
		</linearGradient>
		<path fill="url(#SVGID_1_)" d="M945.285,625.89H781.757c-9.174,0-17.314-5.746-20.591-14.323l-22.131-58.44l-57.029,288.807&#10;&#9;&#9;&#9;c-2.124,10.283-11.098,17.806-21.751,17.806h-0.511c-10.65-0.433-19.702-8.383-21.171-19.018L588.659,491.7L564.99,603.834&#10;&#9;&#9;&#9;c-2.248,10.223-11.223,17.523-21.619,17.523H394.905c-12.06,0-21.943-9.933-21.943-22.145c0-12.115,9.882-21.987,21.943-21.987&#10;&#9;&#9;&#9;h130.631l45.799-216.384c2.193-10.485,12.134-17.656,22.329-17.505c10.653,0.349,19.503,8.368,21.046,18.938l49.139,344.113&#10;&#9;&#9;&#9;l46.831-237.295c1.995-9.662,10.07-16.954,19.823-17.663c9.691-0.87,18.989,4.956,22.394,14.114L796.9,581.707h170.784&#10;&#9;&#9;&#9;l159.604-94.118c10.782-6.312,14.305-20.135,8.023-30.855L993.722,216.657c-2.954-5.179-7.961-8.927-13.662-10.345&#10;&#9;&#9;&#9;c-5.841-1.634-11.939-0.716-17.137,2.41L758.797,329.071V76.578c0-12.413-10.011-22.611-22.457-22.611H457.643&#10;&#9;&#9;&#9;c-12.376,0-22.453,10.198-22.453,22.611v250.024L235.803,209.637c-10.712-6.164-24.474-2.821-30.788,8.016L63.94,458.016&#10;&#9;&#9;&#9;c-3.053,5.18-3.847,11.34-2.281,17.02c1.48,5.826,5.165,10.778,10.33,13.758l208.593,122.344L61.052,740.647&#10;&#9;&#9;&#9;c-10.617,6.319-14.276,20.073-7.924,30.771l141.49,240.065c3.079,5.268,7.986,8.817,13.791,10.374&#10;&#9;&#9;&#9;c5.68,1.477,11.899,0.558,17.064-2.505L435.19,895.69v227.81c0,12.394,10.077,22.534,22.453,22.534H736.34&#10;&#9;&#9;&#9;c12.446,0,22.457-10.14,22.457-22.534V891.7l216.256,126.828c10.708,6.245,24.569,2.77,30.858-8.104L1146.92,770.22&#10;&#9;&#9;&#9;c3.079-5.18,3.85-11.425,2.31-17.082c-1.411-5.819-5.198-10.716-10.334-13.761L945.285,625.89z"/>
		<linearGradient id="SVGID_2_" gradientUnits="userSpaceOnUse" x1="795.0204" y1="1083.0402" x2="788.1546" y2="681.5851">
			<stop offset="0" style="stop-color:#2072B3"/>
			<stop offset="1" style="stop-color:#3EB3D1"/>
		</linearGradient>
		<path fill="url(#SVGID_2_)" d="M1138.897,739.376l-168.528-98.792C807.292,800.52,627.215,937.737,435.19,1044.251v79.248&#10;&#9;&#9;&#9;c0,12.394,10.077,22.534,22.453,22.534H736.34c12.446,0,22.457-10.14,22.457-22.534V891.7l216.256,126.828&#10;&#9;&#9;&#9;c10.708,6.245,24.569,2.77,30.858-8.104L1146.92,770.22c3.079-5.18,3.85-11.425,2.31-17.082&#10;&#9;&#9;&#9;C1147.82,747.319,1144.033,742.422,1138.897,739.376z"/>
	</g>
</g>
</svg>