<?xml version="1.0" encoding="utf-8"?>
<svg version="1.1" id="Layer_1" xmlns="http://www.w3.org/2000/svg" xmlns:xlink="http://www.w3.org/1999/xlink" x="0px" y="0px"
	 viewBox="0 0 1634.3589 1621.8223" enable-background="new 0 0 1634.3589 1621.8223" xml:space="preserve">
<g>
	<path fill="none" stroke="#000000" stroke-miterlimit="10" d="M43.3653,815.9111"/>
	<polygon fill="#EE1C24" points="41.8891,542.9337 546.9691,542.9337 546.9691,35.5902 1085.278,35.5902 1085.278,542.9596 
		1592.8286,542.9596 1592.8286,1079.3282 1089.236,1079.3282 1089.236,1586.2321 549.0645,1586.2321 549.0645,1079.5869 
		41.902,1079.5869 	"/>
	
		<polyline fill="none" stroke="#FFFFFF" stroke-width="15" stroke-linecap="round" stroke-linejoin="round" stroke-miterlimit="10" points="
		43.3653,815.9111 192.3589,815.9111 217.6922,743.9111 275.0255,1055.9111 321.6922,563.2445 355.0255,861.2445 390.3589,815.9111 
		668.3588,815.9111 693.0255,746.5778 750.3588,1055.9111 797.0255,563.2445 831.6922,862.5778 864.3588,815.9111 
		1217.6921,815.9111 1243.0255,742.5778 1300.3589,1055.9111 1346.3589,563.2445 1379.0255,865.9111 1411.6921,817.9111 
		1590.9935,817.9111 	"/>
</g>
</svg>
